M48
; DRILL file {KiCad 8.0.5} date 2024-11-06T17:44:38-0800
; FORMAT={-:-/ absolute / inch / decimal}
; #@! TF.CreationDate,2024-11-06T17:44:38-08:00
; #@! TF.GenerationSoftware,Kicad,Pcbnew,8.0.5
; #@! TF.FileFunction,Plated,1,4,PTH
FMAT,2
INCH
; #@! TA.AperFunction,Plated,PTH,ComponentDrill
T1C0.0079
; #@! TA.AperFunction,Plated,PTH,ViaDrill
T2C0.0118
; #@! TA.AperFunction,Plated,PTH,ComponentDrill
T3C0.0236
; #@! TA.AperFunction,Plated,PTH,ComponentDrill
T4C0.0394
; #@! TA.AperFunction,Plated,PTH,ComponentDrill
T5C0.0433
; #@! TA.AperFunction,Plated,PTH,ComponentDrill
T6C0.0591
%
G90
G05
T1
X4.6004Y-2.3138
X4.6004Y-2.3689
X4.628Y-2.2862
X4.628Y-2.3413
X4.628Y-2.3965
X4.6555Y-2.3138
X4.6555Y-2.3689
X4.6831Y-2.2862
X4.6831Y-2.3413
X4.6831Y-2.3965
X4.7106Y-2.3138
X4.7106Y-2.3689
T2
X4.039Y-2.4244
X4.0421Y-2.7862
X4.0443Y-2.9971
X4.122Y-3.0768
X4.126Y-2.9425
X4.1465Y-2.0165
X4.1469Y-2.6906
X4.1531Y-2.1154
X4.1673Y-2.252
X4.1728Y-2.9024
X4.1736Y-2.9965
X4.1867Y-2.6636
X4.2039Y-2.8669
X4.2067Y-2.4244
X4.2618Y-2.9764
X4.2764Y-2.8602
X4.2941Y-2.674
X4.3091Y-2.5343
X4.3114Y-2.4854
X4.3328Y-2.6376
X4.4016Y-2.9504
X4.4512Y-2.0827
X4.8362Y-2.6654
X4.9421Y-2.1941
X5.1189Y-2.0366
X5.1342Y-2.6374
X5.152Y-2.2331
X5.1697Y-2.1866
X5.1992Y-2.6126
X5.2008Y-2.7386
X5.2272Y-2.7008
X5.2339Y-2.6366
X5.2539Y-2.7331
X5.2909Y-2.6272
X5.3043Y-2.4535
X5.3063Y-2.1138
X5.3394Y-2.6583
X5.5787Y-2.2244
X5.5996Y-2.0366
X5.6236Y-2.3961
X5.7354Y-2.2323
X5.7457Y-2.5886
X5.7654Y-2.389
X5.8378Y-2.8335
X5.8839Y-2.1063
X6.0433Y-2.2028
X6.0579Y-2.5106
X6.061Y-2.5831
X6.0626Y-2.661
X6.0657Y-2.7323
X6.0685Y-2.7996
X6.139Y-2.5035
X6.1524Y-2.3996
X6.2465Y-2.1583
T4
X6.2254Y-2.4016
X6.2254Y-2.5591
T5
X5.2559Y-2.1654
X5.2559Y-2.3425
X5.5118Y-2.1654
X5.5118Y-2.3425
X5.8366Y-2.1555
X5.8366Y-2.3327
X6.0925Y-2.1555
X6.0925Y-2.3327
T6
X4.5672Y-3.0761
X4.7641Y-3.0761
X4.9609Y-3.0761
X5.1578Y-3.0761
X5.3546Y-3.0761
T3
G00X4.0579Y-2.4841
M15
G01X4.0264Y-2.4841
M16
G05
G00X4.0579Y-2.8242
M15
G01X4.0264Y-2.8242
M16
G05
G00X4.2283Y-2.4841
M15
G01X4.185Y-2.4841
M16
G05
G00X4.2283Y-2.8242
M15
G01X4.185Y-2.8242
M16
G05
M30
