%TF.GenerationSoftware,KiCad,Pcbnew,8.0.5*%
%TF.CreationDate,2024-11-06T17:44:16-08:00*%
%TF.ProjectId,PCB Board and Schematic,50434220-426f-4617-9264-20616e642053,rev?*%
%TF.SameCoordinates,Original*%
%TF.FileFunction,Copper,L1,Top*%
%TF.FilePolarity,Positive*%
%FSLAX46Y46*%
G04 Gerber Fmt 4.6, Leading zero omitted, Abs format (unit mm)*
G04 Created by KiCad (PCBNEW 8.0.5) date 2024-11-06 17:44:16*
%MOMM*%
%LPD*%
G01*
G04 APERTURE LIST*
G04 Aperture macros list*
%AMRoundRect*
0 Rectangle with rounded corners*
0 $1 Rounding radius*
0 $2 $3 $4 $5 $6 $7 $8 $9 X,Y pos of 4 corners*
0 Add a 4 corners polygon primitive as box body*
4,1,4,$2,$3,$4,$5,$6,$7,$8,$9,$2,$3,0*
0 Add four circle primitives for the rounded corners*
1,1,$1+$1,$2,$3*
1,1,$1+$1,$4,$5*
1,1,$1+$1,$6,$7*
1,1,$1+$1,$8,$9*
0 Add four rect primitives between the rounded corners*
20,1,$1+$1,$2,$3,$4,$5,0*
20,1,$1+$1,$4,$5,$6,$7,0*
20,1,$1+$1,$6,$7,$8,$9,0*
20,1,$1+$1,$8,$9,$2,$3,0*%
G04 Aperture macros list end*
%TA.AperFunction,SMDPad,CuDef*%
%ADD10RoundRect,0.250000X0.287500X0.275000X-0.287500X0.275000X-0.287500X-0.275000X0.287500X-0.275000X0*%
%TD*%
%TA.AperFunction,SMDPad,CuDef*%
%ADD11RoundRect,0.250000X-0.287500X-0.275000X0.287500X-0.275000X0.287500X0.275000X-0.287500X0.275000X0*%
%TD*%
%TA.AperFunction,SMDPad,CuDef*%
%ADD12R,0.400000X0.480000*%
%TD*%
%TA.AperFunction,SMDPad,CuDef*%
%ADD13RoundRect,0.100000X0.130000X0.100000X-0.130000X0.100000X-0.130000X-0.100000X0.130000X-0.100000X0*%
%TD*%
%TA.AperFunction,ComponentPad*%
%ADD14R,3.000000X3.000000*%
%TD*%
%TA.AperFunction,ComponentPad*%
%ADD15C,3.000000*%
%TD*%
%TA.AperFunction,ComponentPad*%
%ADD16C,2.000000*%
%TD*%
%TA.AperFunction,SMDPad,CuDef*%
%ADD17RoundRect,0.225000X-0.375000X0.225000X-0.375000X-0.225000X0.375000X-0.225000X0.375000X0.225000X0*%
%TD*%
%TA.AperFunction,SMDPad,CuDef*%
%ADD18RoundRect,0.100000X-0.130000X-0.100000X0.130000X-0.100000X0.130000X0.100000X-0.130000X0.100000X0*%
%TD*%
%TA.AperFunction,ComponentPad*%
%ADD19R,1.700000X1.700000*%
%TD*%
%TA.AperFunction,SMDPad,CuDef*%
%ADD20RoundRect,0.150000X0.512500X0.150000X-0.512500X0.150000X-0.512500X-0.150000X0.512500X-0.150000X0*%
%TD*%
%TA.AperFunction,SMDPad,CuDef*%
%ADD21RoundRect,0.100000X-0.100000X0.130000X-0.100000X-0.130000X0.100000X-0.130000X0.100000X0.130000X0*%
%TD*%
%TA.AperFunction,SMDPad,CuDef*%
%ADD22RoundRect,0.375000X0.625000X0.375000X-0.625000X0.375000X-0.625000X-0.375000X0.625000X-0.375000X0*%
%TD*%
%TA.AperFunction,SMDPad,CuDef*%
%ADD23RoundRect,0.500000X0.500000X1.400000X-0.500000X1.400000X-0.500000X-1.400000X0.500000X-1.400000X0*%
%TD*%
%TA.AperFunction,SMDPad,CuDef*%
%ADD24RoundRect,0.250000X0.275000X-0.287500X0.275000X0.287500X-0.275000X0.287500X-0.275000X-0.287500X0*%
%TD*%
%TA.AperFunction,SMDPad,CuDef*%
%ADD25RoundRect,0.150000X-0.425000X0.150000X-0.425000X-0.150000X0.425000X-0.150000X0.425000X0.150000X0*%
%TD*%
%TA.AperFunction,SMDPad,CuDef*%
%ADD26RoundRect,0.075000X-0.500000X0.075000X-0.500000X-0.075000X0.500000X-0.075000X0.500000X0.075000X0*%
%TD*%
%TA.AperFunction,ComponentPad*%
%ADD27O,2.100000X1.000000*%
%TD*%
%TA.AperFunction,ComponentPad*%
%ADD28O,1.800000X1.000000*%
%TD*%
%TA.AperFunction,SMDPad,CuDef*%
%ADD29R,1.500000X0.900000*%
%TD*%
%TA.AperFunction,SMDPad,CuDef*%
%ADD30R,0.900000X1.500000*%
%TD*%
%TA.AperFunction,HeatsinkPad*%
%ADD31C,0.600000*%
%TD*%
%TA.AperFunction,SMDPad,CuDef*%
%ADD32R,3.900000X3.900000*%
%TD*%
%TA.AperFunction,ViaPad*%
%ADD33C,0.600000*%
%TD*%
%TA.AperFunction,Conductor*%
%ADD34C,0.200000*%
%TD*%
%TA.AperFunction,Conductor*%
%ADD35C,0.300000*%
%TD*%
%TA.AperFunction,Conductor*%
%ADD36C,1.524000*%
%TD*%
G04 APERTURE END LIST*
D10*
%TO.P,C2,1*%
%TO.N,VCC_3V3*%
X108212500Y-53750000D03*
%TO.P,C2,2*%
%TO.N,VBat-*%
X106787500Y-53750000D03*
%TD*%
D11*
%TO.P,C9,1*%
%TO.N,CHIP_UP*%
X157325000Y-56500000D03*
%TO.P,C9,2*%
%TO.N,VBat-*%
X158750000Y-56500000D03*
%TD*%
D12*
%TO.P,D2,1*%
%TO.N,VBat-*%
X105200000Y-74040000D03*
%TO.P,D2,2*%
%TO.N,D+*%
X105200000Y-75360000D03*
%TD*%
D13*
%TO.P,R3,1*%
%TO.N,VCC_3V3*%
X143390000Y-54250000D03*
%TO.P,R3,2*%
%TO.N,GIPOO*%
X142750000Y-54250000D03*
%TD*%
D14*
%TO.P,J4,1,Pin_1*%
%TO.N,17*%
X136007500Y-78132500D03*
D15*
%TO.P,J4,2,Pin_2*%
%TO.N,18*%
X131007500Y-78132500D03*
%TO.P,J4,3,Pin_3*%
%TO.N,19*%
X126007500Y-78132500D03*
%TO.P,J4,4,Pin_4*%
%TO.N,20*%
X121007500Y-78132500D03*
%TO.P,J4,5,Pin_5*%
%TO.N,21*%
X116007500Y-78132500D03*
%TD*%
D16*
%TO.P,SW1,1,A*%
%TO.N,VBat-*%
X133500000Y-55000000D03*
X140000000Y-55000000D03*
%TO.P,SW1,2,B*%
%TO.N,GIPOO*%
X133500000Y-59500000D03*
X140000000Y-59500000D03*
%TD*%
D11*
%TO.P,C8,1*%
%TO.N,GIPOO*%
X143250000Y-55750000D03*
%TO.P,C8,2*%
%TO.N,VBat-*%
X144675000Y-55750000D03*
%TD*%
D17*
%TO.P,D4,1,K*%
%TO.N,VCC_5V*%
X107200000Y-74050000D03*
%TO.P,D4,2,A*%
%TO.N,Net-(D4-A)*%
X107200000Y-77350000D03*
%TD*%
D18*
%TO.P,R8,1*%
%TO.N,Net-(U3-PROG)*%
X131680000Y-68750000D03*
%TO.P,R8,2*%
%TO.N,VBat-*%
X132320000Y-68750000D03*
%TD*%
D11*
%TO.P,C4,1*%
%TO.N,VCC_3V3*%
X150950000Y-69370000D03*
%TO.P,C4,2*%
%TO.N,VBat-*%
X152375000Y-69370000D03*
%TD*%
D18*
%TO.P,C11,1*%
%TO.N,VBat-*%
X133430000Y-67500000D03*
%TO.P,C11,2*%
%TO.N,VCC_5V*%
X134070000Y-67500000D03*
%TD*%
D19*
%TO.P,J2,1,Pin_1*%
%TO.N,VBat+*%
X158125000Y-65000000D03*
%TD*%
D13*
%TO.P,D1,1,K*%
%TO.N,VBat-*%
X153020000Y-71100000D03*
%TO.P,D1,2,A*%
%TO.N,Net-(D1-A)*%
X152380000Y-71100000D03*
%TD*%
D18*
%TO.P,R1,1*%
%TO.N,ESP_3V3*%
X107930000Y-55750000D03*
%TO.P,R1,2*%
%TO.N,CHIP_UP*%
X108570000Y-55750000D03*
%TD*%
D20*
%TO.P,U3,1,STAT*%
%TO.N,Net-(U3-STAT)*%
X134637500Y-65450000D03*
%TO.P,U3,2,V_{SS}*%
%TO.N,VBat-*%
X134637500Y-64500000D03*
%TO.P,U3,3,V_{BAT}*%
%TO.N,VBat+*%
X134637500Y-63550000D03*
%TO.P,U3,4,V_{DD}*%
%TO.N,VCC_5V*%
X132362500Y-63550000D03*
%TO.P,U3,5,PROG*%
%TO.N,Net-(U3-PROG)*%
X132362500Y-65450000D03*
%TD*%
D12*
%TO.P,D9,1*%
%TO.N,VBat-*%
X103700000Y-76630000D03*
%TO.P,D9,2*%
%TO.N,Net-(D4-A)*%
X103700000Y-77950000D03*
%TD*%
D21*
%TO.P,R5,1*%
%TO.N,Net-(J1-CC1)*%
X101950000Y-74130000D03*
%TO.P,R5,2*%
%TO.N,VBat-*%
X101950000Y-74770000D03*
%TD*%
D18*
%TO.P,C13,1*%
%TO.N,VBat+*%
X137275000Y-65000000D03*
%TO.P,C13,2*%
%TO.N,VBat-*%
X137915000Y-65000000D03*
%TD*%
D22*
%TO.P,U2,1,GND*%
%TO.N,VBat-*%
X148250000Y-70100000D03*
%TO.P,U2,2,VO*%
%TO.N,VCC_3V3*%
X148250000Y-67800000D03*
D23*
X141950000Y-67800000D03*
D22*
%TO.P,U2,3,VI*%
%TO.N,VCC_5V*%
X148250000Y-65500000D03*
%TD*%
D24*
%TO.P,C10,1*%
%TO.N,VBat-*%
X109340000Y-75517500D03*
%TO.P,C10,2*%
%TO.N,VCC_5V*%
X109340000Y-74092500D03*
%TD*%
D18*
%TO.P,C12,1*%
%TO.N,VBat+*%
X137275000Y-63250000D03*
%TO.P,C12,2*%
%TO.N,VBat-*%
X137915000Y-63250000D03*
%TD*%
D16*
%TO.P,SW3,1,A*%
%TO.N,VBat-*%
X148250000Y-54750000D03*
X154750000Y-54750000D03*
%TO.P,SW3,2,B*%
%TO.N,CHIP_UP*%
X148250000Y-59250000D03*
X154750000Y-59250000D03*
%TD*%
D11*
%TO.P,C6,1*%
%TO.N,VCC_5V*%
X150737500Y-65600000D03*
%TO.P,C6,2*%
%TO.N,VBat-*%
X152162500Y-65600000D03*
%TD*%
D18*
%TO.P,D5,1,K*%
%TO.N,Net-(D5-K)*%
X131750000Y-67500000D03*
%TO.P,D5,2,A*%
%TO.N,VCC_5V*%
X132390000Y-67500000D03*
%TD*%
D19*
%TO.P,J3,1,Pin_1*%
%TO.N,VBat-*%
X158125000Y-61000000D03*
%TD*%
D10*
%TO.P,C3,1*%
%TO.N,VCC_3V3*%
X108212500Y-51250000D03*
%TO.P,C3,2*%
%TO.N,VBat-*%
X106787500Y-51250000D03*
%TD*%
D21*
%TO.P,R6,1*%
%TO.N,CC2*%
X105200000Y-76880000D03*
%TO.P,R6,2*%
%TO.N,VBat-*%
X105200000Y-77520000D03*
%TD*%
D18*
%TO.P,R7,1*%
%TO.N,Net-(U3-STAT)*%
X133500000Y-68750000D03*
%TO.P,R7,2*%
%TO.N,Net-(D5-K)*%
X134140000Y-68750000D03*
%TD*%
D25*
%TO.P,J1,A1,GND*%
%TO.N,VBat-*%
X107425000Y-64215000D03*
%TO.P,J1,A4,VBUS*%
%TO.N,Net-(D4-A)*%
X107425000Y-65015000D03*
D26*
%TO.P,J1,A5,CC1*%
%TO.N,Net-(J1-CC1)*%
X107425000Y-66165000D03*
%TO.P,J1,A6,D+*%
%TO.N,D-*%
X107425000Y-67165000D03*
%TO.P,J1,A7,D-*%
%TO.N,D+*%
X107425000Y-67665000D03*
%TO.P,J1,A8,SBU1*%
%TO.N,unconnected-(J1-SBU1-PadA8)*%
X107425000Y-68665000D03*
D25*
%TO.P,J1,A9,VBUS*%
%TO.N,Net-(D4-A)*%
X107425000Y-69815000D03*
%TO.P,J1,A12,GND*%
%TO.N,VBat-*%
X107425000Y-70615000D03*
%TO.P,J1,B1,GND*%
X107425000Y-70615000D03*
%TO.P,J1,B4,VBUS*%
%TO.N,Net-(D4-A)*%
X107425000Y-69815000D03*
D26*
%TO.P,J1,B5,CC2*%
%TO.N,CC2*%
X107425000Y-69165000D03*
%TO.P,J1,B6,D+*%
%TO.N,D-*%
X107425000Y-68165000D03*
%TO.P,J1,B7,D-*%
%TO.N,D+*%
X107425000Y-66665000D03*
%TO.P,J1,B8,SBU2*%
%TO.N,unconnected-(J1-SBU2-PadB8)*%
X107425000Y-65665000D03*
D25*
%TO.P,J1,B9,VBUS*%
%TO.N,Net-(D4-A)*%
X107425000Y-65015000D03*
%TO.P,J1,B12,GND*%
%TO.N,VBat-*%
X107425000Y-64215000D03*
D27*
%TO.P,J1,S1,SHIELD*%
X106850000Y-63095000D03*
D28*
X102670000Y-63095000D03*
D27*
X106850000Y-71735000D03*
D28*
X102670000Y-71735000D03*
%TD*%
D29*
%TO.P,U1,1,GND*%
%TO.N,VBat-*%
X111000000Y-51750000D03*
%TO.P,U1,2,3V3*%
%TO.N,VCC_3V3*%
X111000000Y-53020000D03*
%TO.P,U1,3,EN*%
%TO.N,CHIP_UP*%
X111000000Y-54290000D03*
%TO.P,U1,4,IO4*%
%TO.N,unconnected-(U1-IO4-Pad4)*%
X111000000Y-55560000D03*
%TO.P,U1,5,IO5*%
%TO.N,unconnected-(U1-IO5-Pad5)*%
X111000000Y-56830000D03*
%TO.P,U1,6,IO6*%
%TO.N,unconnected-(U1-IO6-Pad6)*%
X111000000Y-58100000D03*
%TO.P,U1,7,IO7*%
%TO.N,unconnected-(U1-IO7-Pad7)*%
X111000000Y-59370000D03*
%TO.P,U1,8,IO15*%
%TO.N,unconnected-(U1-IO15-Pad8)*%
X111000000Y-60640000D03*
%TO.P,U1,9,IO16*%
%TO.N,unconnected-(U1-IO16-Pad9)*%
X111000000Y-61910000D03*
%TO.P,U1,10,IO17*%
%TO.N,19*%
X111000000Y-63180000D03*
%TO.P,U1,11,IO18*%
%TO.N,20*%
X111000000Y-64450000D03*
%TO.P,U1,12,IO8*%
%TO.N,unconnected-(U1-IO8-Pad12)*%
X111000000Y-65720000D03*
%TO.P,U1,13,IO19*%
%TO.N,D-*%
X111000000Y-66990000D03*
%TO.P,U1,14,IO20*%
%TO.N,D+*%
X111000000Y-68260000D03*
D30*
%TO.P,U1,15,IO3*%
%TO.N,unconnected-(U1-IO3-Pad15)*%
X112765000Y-69510000D03*
%TO.P,U1,16,IO46*%
%TO.N,unconnected-(U1-IO46-Pad16)*%
X114035000Y-69510000D03*
%TO.P,U1,17,IO9*%
%TO.N,unconnected-(U1-IO9-Pad17)*%
X115305000Y-69510000D03*
%TO.P,U1,18,IO10*%
%TO.N,unconnected-(U1-IO10-Pad18)*%
X116575000Y-69510000D03*
%TO.P,U1,19,IO11*%
%TO.N,unconnected-(U1-IO11-Pad19)*%
X117845000Y-69510000D03*
%TO.P,U1,20,IO12*%
%TO.N,unconnected-(U1-IO12-Pad20)*%
X119115000Y-69510000D03*
%TO.P,U1,21,IO13*%
%TO.N,unconnected-(U1-IO13-Pad21)*%
X120385000Y-69510000D03*
%TO.P,U1,22,IO14*%
%TO.N,unconnected-(U1-IO14-Pad22)*%
X121655000Y-69510000D03*
%TO.P,U1,23,IO21*%
%TO.N,21*%
X122925000Y-69510000D03*
%TO.P,U1,24,IO47*%
%TO.N,unconnected-(U1-IO47-Pad24)*%
X124195000Y-69510000D03*
%TO.P,U1,25,IO48*%
%TO.N,unconnected-(U1-IO48-Pad25)*%
X125465000Y-69510000D03*
%TO.P,U1,26,IO45*%
%TO.N,unconnected-(U1-IO45-Pad26)*%
X126735000Y-69510000D03*
D29*
%TO.P,U1,27,IO0*%
%TO.N,GIPOO*%
X128500000Y-68260000D03*
%TO.P,U1,28,IO35*%
%TO.N,unconnected-(U1-IO35-Pad28)*%
X128500000Y-66990000D03*
%TO.P,U1,29,IO36*%
%TO.N,unconnected-(U1-IO36-Pad29)*%
X128500000Y-65720000D03*
%TO.P,U1,30,IO37*%
%TO.N,unconnected-(U1-IO37-Pad30)*%
X128500000Y-64450000D03*
%TO.P,U1,31,IO38*%
%TO.N,unconnected-(U1-IO38-Pad31)*%
X128500000Y-63180000D03*
%TO.P,U1,32,IO39*%
%TO.N,unconnected-(U1-IO39-Pad32)*%
X128500000Y-61910000D03*
%TO.P,U1,33,IO40*%
%TO.N,unconnected-(U1-IO40-Pad33)*%
X128500000Y-60640000D03*
%TO.P,U1,34,IO41*%
%TO.N,unconnected-(U1-IO41-Pad34)*%
X128500000Y-59370000D03*
%TO.P,U1,35,IO42*%
%TO.N,unconnected-(U1-IO42-Pad35)*%
X128500000Y-58100000D03*
%TO.P,U1,36,RXD0*%
%TO.N,18*%
X128500000Y-56830000D03*
%TO.P,U1,37,TXD0*%
%TO.N,17*%
X128500000Y-55560000D03*
%TO.P,U1,38,IO2*%
%TO.N,unconnected-(U1-IO2-Pad38)*%
X128500000Y-54290000D03*
%TO.P,U1,39,IO1*%
%TO.N,unconnected-(U1-IO1-Pad39)*%
X128500000Y-53020000D03*
%TO.P,U1,40,GND*%
%TO.N,VBat-*%
X128500000Y-51750000D03*
D31*
%TO.P,U1,41,GND*%
X116850000Y-58770000D03*
X116850000Y-60170000D03*
X117550000Y-58070000D03*
X117550000Y-59470000D03*
X117550000Y-60870000D03*
X118250000Y-58770000D03*
D32*
X118250000Y-59470000D03*
D31*
X118250000Y-60170000D03*
X118950000Y-58070000D03*
X118950000Y-59470000D03*
X118950000Y-60870000D03*
X119650000Y-58770000D03*
X119650000Y-60170000D03*
%TD*%
D12*
%TO.P,D3,1*%
%TO.N,VBat-*%
X103450000Y-75360000D03*
%TO.P,D3,2*%
%TO.N,D-*%
X103450000Y-74040000D03*
%TD*%
D11*
%TO.P,C1,1*%
%TO.N,VBat-*%
X107037500Y-57250000D03*
%TO.P,C1,2*%
%TO.N,CHIP_UP*%
X108462500Y-57250000D03*
%TD*%
%TO.P,C5,1*%
%TO.N,VCC_3V3*%
X151025000Y-67620000D03*
%TO.P,C5,2*%
%TO.N,VBat-*%
X152450000Y-67620000D03*
%TD*%
D13*
%TO.P,R4,1*%
%TO.N,VCC_3V3*%
X157570000Y-53750000D03*
%TO.P,R4,2*%
%TO.N,CHIP_UP*%
X156930000Y-53750000D03*
%TD*%
D18*
%TO.P,R2,1*%
%TO.N,VCC_3V3*%
X150630000Y-71100000D03*
%TO.P,R2,2*%
%TO.N,Net-(D1-A)*%
X151270000Y-71100000D03*
%TD*%
D11*
%TO.P,C7,1*%
%TO.N,VCC_5V*%
X150987500Y-63600000D03*
%TO.P,C7,2*%
%TO.N,VBat-*%
X152412500Y-63600000D03*
%TD*%
D33*
%TO.N,VBat-*%
X132941573Y-66970320D03*
X106780000Y-72820000D03*
X153950000Y-65610000D03*
X145680000Y-56700000D03*
X105850000Y-57200000D03*
X153500000Y-55950000D03*
X108250000Y-75600000D03*
X104700000Y-78150000D03*
X153990000Y-67590000D03*
X106850000Y-61580000D03*
X102590000Y-61580000D03*
X102724265Y-76125735D03*
X154140000Y-71110000D03*
X156270000Y-60950000D03*
X105990000Y-73720000D03*
X149450000Y-53500000D03*
X102670000Y-70770000D03*
X158660000Y-54820000D03*
X154070000Y-69400000D03*
X130020000Y-51730000D03*
X134780000Y-53690000D03*
X148280000Y-71970000D03*
X105320000Y-51220000D03*
X105490000Y-53730000D03*
X132771614Y-68600000D03*
X153870000Y-63770000D03*
X142840000Y-60860000D03*
X141700000Y-56500000D03*
%TO.N,CHIP_UP*%
X146440000Y-60680000D03*
X125530000Y-55730000D03*
%TO.N,VCC_3V3*%
X113060000Y-52900000D03*
X142230000Y-51730000D03*
%TO.N,VCC_5V*%
X145940000Y-65750000D03*
X108620000Y-72650000D03*
X135620000Y-67520000D03*
X130407500Y-66990000D03*
%TO.N,VBat+*%
X155930000Y-63590000D03*
X134730000Y-62320000D03*
%TO.N,D+*%
X105330000Y-68340000D03*
X104799999Y-74738259D03*
X106341865Y-67656607D03*
%TO.N,D-*%
X110054265Y-66995735D03*
X109070000Y-67920000D03*
%TO.N,CC2*%
X111800000Y-74940000D03*
X106010000Y-76110000D03*
%TO.N,Net-(U3-STAT)*%
X134390000Y-66730000D03*
X133450000Y-69420000D03*
%TO.N,Net-(U3-PROG)*%
X132060000Y-66360000D03*
X132100000Y-69560000D03*
%TO.N,17*%
X131310000Y-55540000D03*
%TO.N,20*%
X109450000Y-64370000D03*
%TO.N,21*%
X122840000Y-67700000D03*
%TO.N,19*%
X109510000Y-63130000D03*
%TO.N,18*%
X130860000Y-56720000D03*
%TD*%
D34*
%TO.N,*%
X35500000Y-104000000D02*
X35500000Y-103500000D01*
X35500000Y-99000000D02*
X35500000Y-98500000D01*
X35500000Y-93500000D02*
X35500000Y-94000000D01*
X98120000Y-58050000D02*
X97990000Y-57920000D01*
X98170000Y-58050000D02*
X98120000Y-58050000D01*
X35500000Y-109000000D02*
X36000000Y-108500000D01*
%TO.N,VBat-*%
X132941573Y-66970320D02*
X132941573Y-67011573D01*
X102695000Y-63095000D02*
X102670000Y-63095000D01*
X106560000Y-53750000D02*
X106540000Y-53730000D01*
X134637500Y-64500000D02*
X135690552Y-64500000D01*
X133325000Y-66586893D02*
X132941573Y-66970320D01*
X137915000Y-65345000D02*
X137915000Y-63250000D01*
X105200000Y-74040000D02*
X105670000Y-74040000D01*
X134637500Y-64500000D02*
X133975001Y-64500000D01*
X154840000Y-54660000D02*
X154750000Y-54750000D01*
X133325000Y-65150001D02*
X133325000Y-66586893D01*
X133500000Y-55000000D02*
X133230000Y-55000000D01*
X152412500Y-65350000D02*
X152162500Y-65600000D01*
X132941573Y-67011573D02*
X133430000Y-67500000D01*
X102724265Y-76125735D02*
X103195735Y-76125735D01*
X137915000Y-63250000D02*
X140450000Y-63250000D01*
X152450000Y-69295000D02*
X152375000Y-69370000D01*
X107425000Y-70615000D02*
X107425000Y-71160000D01*
X137915000Y-65199999D02*
X137915000Y-65000000D01*
X137594999Y-65520000D02*
X137915000Y-65199999D01*
X134637500Y-64500000D02*
X135299999Y-64500000D01*
X105670000Y-74040000D02*
X105990000Y-73720000D01*
X106787500Y-51250000D02*
X106865256Y-51250000D01*
X135299999Y-64500000D02*
X136299999Y-65500000D01*
X136299999Y-65500000D02*
X137760000Y-65500000D01*
X109675000Y-50425000D02*
X111000000Y-51750000D01*
X137760000Y-65500000D02*
X137915000Y-65345000D01*
X136710552Y-65520000D02*
X137594999Y-65520000D01*
X132320000Y-68750000D02*
X132621614Y-68750000D01*
X106865256Y-51250000D02*
X107690256Y-50425000D01*
X105200000Y-77650000D02*
X104700000Y-78150000D01*
X107425000Y-71160000D02*
X106850000Y-71735000D01*
D35*
X103440000Y-75370000D02*
X103440000Y-75380000D01*
D34*
X105200000Y-77520000D02*
X105200000Y-77650000D01*
X141700000Y-56500000D02*
X141500000Y-56500000D01*
X107735000Y-63095000D02*
X106850000Y-63095000D01*
X106666839Y-71918161D02*
X106850000Y-71735000D01*
X106787500Y-53750000D02*
X106560000Y-53750000D01*
X107690256Y-50425000D02*
X109675000Y-50425000D01*
X140450000Y-63250000D02*
X142840000Y-60860000D01*
X145680000Y-56700000D02*
X145625000Y-56700000D01*
X152412500Y-63600000D02*
X152412500Y-63097500D01*
X108485000Y-64215000D02*
X108670000Y-64030000D01*
X158750000Y-54910000D02*
X158660000Y-54820000D01*
X132621614Y-68750000D02*
X132771614Y-68600000D01*
X107037500Y-54000000D02*
X106787500Y-53750000D01*
X135690552Y-64500000D02*
X136710552Y-65520000D01*
D35*
X103450000Y-75360000D02*
X103440000Y-75370000D01*
D34*
X133975001Y-64500000D02*
X133325000Y-65150001D01*
X106540000Y-53730000D02*
X106787500Y-53482500D01*
X103195735Y-76125735D02*
X103700000Y-76630000D01*
%TO.N,CHIP_UP*%
X111000000Y-54290000D02*
X124090000Y-54290000D01*
X146440000Y-60680000D02*
X146820000Y-60680000D01*
X156930000Y-56105000D02*
X156930000Y-53750000D01*
X110030000Y-54290000D02*
X111000000Y-54290000D01*
X124090000Y-54290000D02*
X125530000Y-55730000D01*
D35*
X148250000Y-59250000D02*
X154750000Y-59250000D01*
D34*
X157325000Y-56500000D02*
X156930000Y-56105000D01*
D35*
X154750000Y-59250000D02*
X157325000Y-56675000D01*
D34*
X110470000Y-54290000D02*
X111000000Y-54290000D01*
D35*
X157325000Y-56675000D02*
X157325000Y-56500000D01*
D34*
X146820000Y-60680000D02*
X148250000Y-59250000D01*
D35*
%TO.N,VCC_3V3*%
X148010406Y-57580406D02*
X152390811Y-53200000D01*
X108212500Y-51250000D02*
X109982500Y-53020000D01*
X109982500Y-53020000D02*
X111000000Y-53020000D01*
X150950000Y-69370000D02*
X149820000Y-69370000D01*
X148010406Y-57580406D02*
X144680000Y-54250000D01*
X143390000Y-54250000D02*
X143390000Y-52890000D01*
X151025000Y-67620000D02*
X148430000Y-67620000D01*
X144680000Y-54250000D02*
X143390000Y-54250000D01*
X111120000Y-52900000D02*
X111000000Y-53020000D01*
X150630000Y-70180000D02*
X149112500Y-68662500D01*
X152390811Y-53200000D02*
X157250000Y-53200000D01*
X150630000Y-71100000D02*
X150630000Y-70180000D01*
X108942500Y-53020000D02*
X108212500Y-53750000D01*
X141950000Y-67800000D02*
X141950000Y-63640811D01*
X111000000Y-53020000D02*
X108942500Y-53020000D01*
X113060000Y-52900000D02*
X111120000Y-52900000D01*
X157250000Y-53200000D02*
X157570000Y-53520000D01*
X143390000Y-52890000D02*
X142230000Y-51730000D01*
X157570000Y-53520000D02*
X157570000Y-53750000D01*
X148430000Y-67620000D02*
X148250000Y-67800000D01*
X148250000Y-67800000D02*
X141950000Y-67800000D01*
X141950000Y-63640811D02*
X148010406Y-57580406D01*
X149112500Y-68662500D02*
X148250000Y-67800000D01*
X149820000Y-69370000D02*
X149112500Y-68662500D01*
%TO.N,GIPOO*%
X129600000Y-67790000D02*
X129130000Y-68260000D01*
X133500000Y-59500000D02*
X129600000Y-63400000D01*
X133500000Y-59500000D02*
X140000000Y-59500000D01*
X129130000Y-68260000D02*
X128500000Y-68260000D01*
X143250000Y-56250000D02*
X140000000Y-59500000D01*
X143250000Y-55750000D02*
X143250000Y-56250000D01*
X129600000Y-63400000D02*
X129600000Y-67790000D01*
X142750000Y-55250000D02*
X143250000Y-55750000D01*
X142750000Y-54250000D02*
X142750000Y-55250000D01*
D34*
%TO.N,VCC_5V*%
X131400000Y-64512500D02*
X131400000Y-66548529D01*
X131400000Y-66548529D02*
X131841471Y-66990000D01*
D36*
X150563000Y-65500000D02*
X150663000Y-65600000D01*
D35*
X150150000Y-63600000D02*
X148250000Y-65500000D01*
D34*
X132038456Y-66990000D02*
X130407500Y-66990000D01*
X131841471Y-66990000D02*
X132040000Y-66990000D01*
D35*
X146190000Y-65500000D02*
X145940000Y-65750000D01*
D34*
X132362500Y-63550000D02*
X131400000Y-64512500D01*
D35*
X150987500Y-63600000D02*
X150150000Y-63600000D01*
D36*
X148250000Y-65500000D02*
X148250000Y-65479046D01*
D35*
X148350000Y-65600000D02*
X148250000Y-65500000D01*
X107242500Y-74092500D02*
X107200000Y-74050000D01*
D34*
X132390000Y-67340000D02*
X132390000Y-67500000D01*
D35*
X109340000Y-73370000D02*
X108620000Y-72650000D01*
D34*
X132040000Y-66990000D02*
X132390000Y-67340000D01*
D35*
X150737500Y-65600000D02*
X148350000Y-65600000D01*
X109340000Y-74092500D02*
X109340000Y-73370000D01*
X135620000Y-67520000D02*
X134090000Y-67520000D01*
X148250000Y-65500000D02*
X146190000Y-65500000D01*
D34*
X132390000Y-67500000D02*
X132390000Y-67341544D01*
X132390000Y-67341544D02*
X132038456Y-66990000D01*
D35*
X134090000Y-67520000D02*
X134070000Y-67500000D01*
%TO.N,VBat+*%
X134730000Y-63457500D02*
X134637500Y-63550000D01*
X135825000Y-63550000D02*
X137275000Y-65000000D01*
X134637500Y-63550000D02*
X136975000Y-63550000D01*
X156715000Y-63590000D02*
X158125000Y-65000000D01*
X134637500Y-63550000D02*
X135825000Y-63550000D01*
X134730000Y-62320000D02*
X134730000Y-63457500D01*
X136975000Y-63550000D02*
X137275000Y-63250000D01*
X155930000Y-63590000D02*
X156715000Y-63590000D01*
%TO.N,Net-(D1-A)*%
X152380000Y-71100000D02*
X151270000Y-71100000D01*
D34*
%TO.N,D+*%
X107425000Y-66665000D02*
X108875000Y-66665000D01*
X106341865Y-67656607D02*
X107416607Y-67656607D01*
X105330000Y-68152590D02*
X105330000Y-68340000D01*
X105200000Y-75360000D02*
X105200000Y-75138260D01*
X107425000Y-67665000D02*
X108010000Y-67665000D01*
X107416607Y-67656607D02*
X107425000Y-67665000D01*
X107425000Y-66665000D02*
X106817590Y-66665000D01*
X110470000Y-68260000D02*
X111000000Y-68260000D01*
X108875000Y-66665000D02*
X110470000Y-68260000D01*
X106817590Y-66665000D02*
X105330000Y-68152590D01*
X105200000Y-75138260D02*
X104799999Y-74738259D01*
%TO.N,D-*%
X108315000Y-67165000D02*
X107425000Y-67165000D01*
D35*
X106746880Y-68165000D02*
X107425000Y-68165000D01*
D34*
X111000000Y-66990000D02*
X110060000Y-66990000D01*
X109070000Y-67920000D02*
X108825000Y-68165000D01*
X109070000Y-67920000D02*
X108315000Y-67165000D01*
D35*
X105625000Y-69530000D02*
X105600000Y-69530000D01*
X105625000Y-70382082D02*
X105625000Y-69530000D01*
D34*
X108825000Y-68165000D02*
X107425000Y-68165000D01*
D35*
X103450000Y-72557082D02*
X105625000Y-70382082D01*
X105625000Y-69286880D02*
X106746880Y-68165000D01*
X103450000Y-74040000D02*
X103450000Y-72557082D01*
X105625000Y-69530000D02*
X105625000Y-69286880D01*
D34*
X110060000Y-66990000D02*
X110054265Y-66995735D01*
%TO.N,Net-(D5-K)*%
X134140000Y-68591544D02*
X133548456Y-68000000D01*
X133548456Y-68000000D02*
X132091544Y-68000000D01*
X134140000Y-68750000D02*
X134140000Y-68591544D01*
X132091544Y-68000000D02*
X131750000Y-67658456D01*
X131750000Y-67658456D02*
X131750000Y-67500000D01*
D35*
%TO.N,CC2*%
X105970000Y-76110000D02*
X105200000Y-76880000D01*
X108061262Y-69165000D02*
X111800000Y-72903738D01*
X107425000Y-69165000D02*
X108061262Y-69165000D01*
X111800000Y-72903738D02*
X111800000Y-74940000D01*
X106010000Y-76110000D02*
X105970000Y-76110000D01*
D34*
%TO.N,Net-(J1-CC1)*%
X101420000Y-67170000D02*
X101420000Y-72016371D01*
D35*
X101960000Y-74130000D02*
X101970000Y-74140000D01*
D34*
X101420000Y-72016371D02*
X101950000Y-72546371D01*
X102425000Y-66165000D02*
X101420000Y-67170000D01*
X107425000Y-66165000D02*
X102425000Y-66165000D01*
D35*
X101950000Y-74130000D02*
X101960000Y-74130000D01*
D34*
X101950000Y-72546371D02*
X101950000Y-74130000D01*
%TO.N,Net-(U3-STAT)*%
X134637500Y-65450000D02*
X134637500Y-66482500D01*
X133450000Y-69420000D02*
X133450000Y-68800000D01*
X134637500Y-66482500D02*
X134390000Y-66730000D01*
X133450000Y-68800000D02*
X133500000Y-68750000D01*
%TO.N,Net-(U3-PROG)*%
X132362500Y-65450000D02*
X132362500Y-66057500D01*
X132100000Y-69560000D02*
X131680000Y-69140000D01*
X131680000Y-69140000D02*
X131680000Y-68750000D01*
X132362500Y-66057500D02*
X132060000Y-66360000D01*
%TO.N,17*%
X131310000Y-55540000D02*
X131290000Y-55560000D01*
D35*
X128790000Y-55850000D02*
X128500000Y-55560000D01*
D34*
X131290000Y-55560000D02*
X128500000Y-55560000D01*
%TO.N,20*%
X111000000Y-64450000D02*
X109530000Y-64450000D01*
X109530000Y-64450000D02*
X109450000Y-64370000D01*
D35*
%TO.N,21*%
X122870000Y-69455000D02*
X122925000Y-69510000D01*
D34*
X122840000Y-69425000D02*
X122925000Y-69510000D01*
X122840000Y-67700000D02*
X122840000Y-69425000D01*
D35*
%TO.N,19*%
X110950000Y-63130000D02*
X111000000Y-63180000D01*
X109510000Y-63130000D02*
X110950000Y-63130000D01*
D34*
%TO.N,18*%
X130860000Y-56720000D02*
X130750000Y-56830000D01*
X130750000Y-56830000D02*
X128500000Y-56830000D01*
D35*
X128670000Y-57000000D02*
X128500000Y-56830000D01*
D34*
%TO.N,Net-(D4-A)*%
X110165000Y-76039744D02*
X110165000Y-73175000D01*
X100970000Y-67054314D02*
X102259314Y-65765000D01*
X105050000Y-73300000D02*
X104200000Y-74150000D01*
X110165000Y-73175000D02*
X108300000Y-71310000D01*
X107999999Y-69815000D02*
X108300000Y-70115001D01*
X100970000Y-75220000D02*
X100970000Y-67054314D01*
X106966371Y-73300000D02*
X105050000Y-73300000D01*
X103700000Y-77950000D02*
X100970000Y-75220000D01*
X107200000Y-77350000D02*
X108854744Y-77350000D01*
X108300000Y-70115001D02*
X108300000Y-71966371D01*
X106100001Y-65765000D02*
X106850001Y-65015000D01*
X104200000Y-77450000D02*
X103700000Y-77950000D01*
X108854744Y-77350000D02*
X110165000Y-76039744D01*
X108300000Y-71966371D02*
X106966371Y-73300000D01*
X102259314Y-65765000D02*
X106100001Y-65765000D01*
X104200000Y-74150000D02*
X104200000Y-77450000D01*
X106850001Y-65015000D02*
X107425000Y-65015000D01*
X107425000Y-69815000D02*
X107999999Y-69815000D01*
%TD*%
%TA.AperFunction,Conductor*%
%TO.N,VCC_5V*%
G36*
X108316177Y-73819685D02*
G01*
X108336819Y-73836319D01*
X108343000Y-73842500D01*
X109440500Y-73842500D01*
X109507539Y-73862185D01*
X109553294Y-73914989D01*
X109564500Y-73966500D01*
X109564500Y-74218500D01*
X109544815Y-74285539D01*
X109492011Y-74331294D01*
X109440500Y-74342500D01*
X108365862Y-74342500D01*
X108298823Y-74322815D01*
X108278181Y-74306181D01*
X108272000Y-74300000D01*
X107074000Y-74300000D01*
X107006961Y-74280315D01*
X106961206Y-74227511D01*
X106950000Y-74176000D01*
X106950000Y-74021219D01*
X106969685Y-73954180D01*
X107022489Y-73908425D01*
X107041906Y-73901444D01*
X107045425Y-73900501D01*
X107045428Y-73900501D01*
X107198156Y-73859577D01*
X107272572Y-73816612D01*
X107334571Y-73800000D01*
X108249138Y-73800000D01*
X108316177Y-73819685D01*
G37*
%TD.AperFunction*%
%TD*%
%TA.AperFunction,Conductor*%
%TO.N,CHIP_UP*%
G36*
X109693039Y-53690185D02*
G01*
X109738794Y-53742989D01*
X109750000Y-53794500D01*
X109750000Y-54040000D01*
X111126000Y-54040000D01*
X111193039Y-54059685D01*
X111238794Y-54112489D01*
X111250000Y-54164000D01*
X111250000Y-54416000D01*
X111230315Y-54483039D01*
X111177511Y-54528794D01*
X111126000Y-54540000D01*
X109750000Y-54540000D01*
X109750000Y-54787844D01*
X109756401Y-54847372D01*
X109756403Y-54847379D01*
X109768925Y-54880952D01*
X109773909Y-54950643D01*
X109768925Y-54967617D01*
X109755909Y-55002514D01*
X109755908Y-55002516D01*
X109749501Y-55062116D01*
X109749500Y-55062135D01*
X109749500Y-56057870D01*
X109749501Y-56057876D01*
X109755908Y-56117481D01*
X109768659Y-56151669D01*
X109773642Y-56221361D01*
X109768659Y-56238331D01*
X109755908Y-56272518D01*
X109749501Y-56332116D01*
X109749500Y-56332135D01*
X109749500Y-57327870D01*
X109749501Y-57327876D01*
X109755908Y-57387481D01*
X109768659Y-57421669D01*
X109773642Y-57491361D01*
X109768659Y-57508331D01*
X109755908Y-57542518D01*
X109749501Y-57602116D01*
X109749500Y-57602135D01*
X109749500Y-58065733D01*
X109729815Y-58132772D01*
X109677011Y-58178527D01*
X109636067Y-58189282D01*
X109439002Y-58206136D01*
X109370529Y-58192236D01*
X109320440Y-58143523D01*
X109304640Y-58075463D01*
X109328143Y-58009665D01*
X109340760Y-57994899D01*
X109342318Y-57993340D01*
X109434356Y-57844124D01*
X109434358Y-57844119D01*
X109489505Y-57677697D01*
X109489506Y-57677690D01*
X109499999Y-57574986D01*
X109500000Y-57574973D01*
X109500000Y-57500000D01*
X108336500Y-57500000D01*
X108269461Y-57480315D01*
X108223706Y-57427511D01*
X108212500Y-57376000D01*
X108212500Y-56519663D01*
X108232185Y-56452624D01*
X108284989Y-56406869D01*
X108289048Y-56405102D01*
X108362841Y-56374536D01*
X108488282Y-56278282D01*
X108547625Y-56200943D01*
X108604052Y-56159742D01*
X108673798Y-56155587D01*
X108734718Y-56189799D01*
X108767471Y-56251516D01*
X108770000Y-56276431D01*
X108770000Y-56384138D01*
X108750315Y-56451177D01*
X108733681Y-56471819D01*
X108712500Y-56493000D01*
X108712500Y-57000000D01*
X109499999Y-57000000D01*
X109499999Y-56925028D01*
X109499998Y-56925013D01*
X109489505Y-56822302D01*
X109434358Y-56655880D01*
X109434356Y-56655875D01*
X109342315Y-56506654D01*
X109218344Y-56382683D01*
X109212677Y-56378202D01*
X109213636Y-56376987D01*
X109172553Y-56331306D01*
X109161335Y-56262343D01*
X109186004Y-56202234D01*
X109224098Y-56152590D01*
X109224099Y-56152587D01*
X109284555Y-56006631D01*
X109292012Y-55950000D01*
X108784500Y-55950000D01*
X108717461Y-55930315D01*
X108671706Y-55877511D01*
X108660500Y-55826001D01*
X108660499Y-55674001D01*
X108680183Y-55606961D01*
X108732987Y-55561206D01*
X108784499Y-55550000D01*
X109292010Y-55550000D01*
X109292011Y-55549998D01*
X109284557Y-55493372D01*
X109284555Y-55493366D01*
X109224100Y-55347414D01*
X109127924Y-55222075D01*
X109002586Y-55125899D01*
X108856631Y-55065444D01*
X108770000Y-55054038D01*
X108770000Y-55223568D01*
X108750315Y-55290607D01*
X108697511Y-55336362D01*
X108628353Y-55346306D01*
X108564797Y-55317281D01*
X108547627Y-55299058D01*
X108488282Y-55221718D01*
X108418512Y-55168181D01*
X108377311Y-55111755D01*
X108370000Y-55069807D01*
X108370000Y-55054038D01*
X108283365Y-55065444D01*
X108283055Y-55065528D01*
X108282733Y-55065527D01*
X108275313Y-55066505D01*
X108275184Y-55065527D01*
X108224884Y-55065526D01*
X108224820Y-55066017D01*
X108221091Y-55065526D01*
X108218891Y-55065526D01*
X108216765Y-55064956D01*
X108099361Y-55049500D01*
X107760643Y-55049500D01*
X107692937Y-55058413D01*
X107623902Y-55047645D01*
X107571648Y-55001264D01*
X107552796Y-54938635D01*
X107550958Y-54866548D01*
X107568928Y-54799032D01*
X107620550Y-54751947D01*
X107689432Y-54740244D01*
X107713916Y-54745684D01*
X107772203Y-54764999D01*
X107874991Y-54775500D01*
X108550008Y-54775499D01*
X108550016Y-54775498D01*
X108550019Y-54775498D01*
X108606302Y-54769748D01*
X108652797Y-54764999D01*
X108819334Y-54709814D01*
X108968656Y-54617712D01*
X109092712Y-54493656D01*
X109184814Y-54344334D01*
X109239999Y-54177797D01*
X109250500Y-54075009D01*
X109250499Y-53794498D01*
X109270183Y-53727461D01*
X109322987Y-53681706D01*
X109374499Y-53670500D01*
X109626000Y-53670500D01*
X109693039Y-53690185D01*
G37*
%TD.AperFunction*%
%TD*%
%TA.AperFunction,Conductor*%
%TO.N,VBat-*%
G36*
X161372930Y-42480365D02*
G01*
X161418702Y-42533154D01*
X161429924Y-42584618D01*
X161459074Y-85385718D01*
X161439435Y-85452770D01*
X161386662Y-85498561D01*
X161335134Y-85509802D01*
X100754560Y-85539196D01*
X100687511Y-85519544D01*
X100641731Y-85466762D01*
X100630500Y-85415196D01*
X100630500Y-76029097D01*
X100650185Y-75962058D01*
X100702989Y-75916303D01*
X100772147Y-75906359D01*
X100835703Y-75935384D01*
X100842181Y-75941416D01*
X102963181Y-78062416D01*
X102996666Y-78123739D01*
X102999500Y-78150096D01*
X102999500Y-78237869D01*
X102999501Y-78237876D01*
X103005908Y-78297483D01*
X103056202Y-78432328D01*
X103056206Y-78432335D01*
X103142452Y-78547544D01*
X103142455Y-78547547D01*
X103257664Y-78633793D01*
X103257671Y-78633797D01*
X103302618Y-78650561D01*
X103392517Y-78684091D01*
X103452127Y-78690500D01*
X103947872Y-78690499D01*
X104007483Y-78684091D01*
X104142331Y-78633796D01*
X104257546Y-78547546D01*
X104343796Y-78432331D01*
X104394091Y-78297483D01*
X104400500Y-78237873D01*
X104400499Y-78150096D01*
X104420183Y-78083059D01*
X104436812Y-78062421D01*
X104680520Y-77818716D01*
X104759577Y-77681784D01*
X104762248Y-77671813D01*
X104798609Y-77612154D01*
X104861454Y-77581622D01*
X104929473Y-77589342D01*
X104943238Y-77595044D01*
X105060639Y-77610500D01*
X105339360Y-77610499D01*
X105339363Y-77610499D01*
X105456753Y-77595046D01*
X105456757Y-77595044D01*
X105456762Y-77595044D01*
X105602841Y-77534536D01*
X105728282Y-77438282D01*
X105824536Y-77312841D01*
X105860939Y-77224955D01*
X105904780Y-77170552D01*
X105971074Y-77148487D01*
X106038773Y-77165766D01*
X106086384Y-77216903D01*
X106099500Y-77272408D01*
X106099500Y-77623337D01*
X106099501Y-77623355D01*
X106109650Y-77722707D01*
X106109651Y-77722710D01*
X106162996Y-77883694D01*
X106163001Y-77883705D01*
X106252029Y-78028040D01*
X106252032Y-78028044D01*
X106371955Y-78147967D01*
X106371959Y-78147970D01*
X106516294Y-78236998D01*
X106516297Y-78236999D01*
X106516303Y-78237003D01*
X106677292Y-78290349D01*
X106776655Y-78300500D01*
X107623344Y-78300499D01*
X107623352Y-78300498D01*
X107623355Y-78300498D01*
X107677760Y-78294940D01*
X107722708Y-78290349D01*
X107883697Y-78237003D01*
X108028044Y-78147968D01*
X108043514Y-78132498D01*
X114001890Y-78132498D01*
X114001890Y-78132501D01*
X114022304Y-78417933D01*
X114083128Y-78697537D01*
X114183135Y-78965666D01*
X114320270Y-79216809D01*
X114320275Y-79216817D01*
X114491754Y-79445887D01*
X114491770Y-79445905D01*
X114694094Y-79648229D01*
X114694112Y-79648245D01*
X114923182Y-79819724D01*
X114923190Y-79819729D01*
X115174333Y-79956864D01*
X115174332Y-79956864D01*
X115174336Y-79956865D01*
X115174339Y-79956867D01*
X115442454Y-80056869D01*
X115442460Y-80056870D01*
X115442462Y-80056871D01*
X115722066Y-80117695D01*
X115722068Y-80117695D01*
X115722072Y-80117696D01*
X115975720Y-80135837D01*
X116007499Y-80138110D01*
X116007500Y-80138110D01*
X116007501Y-80138110D01*
X116036095Y-80136064D01*
X116292928Y-80117696D01*
X116483242Y-80076296D01*
X116572537Y-80056871D01*
X116572537Y-80056870D01*
X116572546Y-80056869D01*
X116840661Y-79956867D01*
X117091815Y-79819726D01*
X117320895Y-79648239D01*
X117523239Y-79445895D01*
X117694726Y-79216815D01*
X117831867Y-78965661D01*
X117931869Y-78697546D01*
X117989563Y-78432331D01*
X117992695Y-78417933D01*
X117992695Y-78417932D01*
X117992696Y-78417928D01*
X118013110Y-78132500D01*
X118013110Y-78132498D01*
X119001890Y-78132498D01*
X119001890Y-78132501D01*
X119022304Y-78417933D01*
X119083128Y-78697537D01*
X119183135Y-78965666D01*
X119320270Y-79216809D01*
X119320275Y-79216817D01*
X119491754Y-79445887D01*
X119491770Y-79445905D01*
X119694094Y-79648229D01*
X119694112Y-79648245D01*
X119923182Y-79819724D01*
X119923190Y-79819729D01*
X120174333Y-79956864D01*
X120174332Y-79956864D01*
X120174336Y-79956865D01*
X120174339Y-79956867D01*
X120442454Y-80056869D01*
X120442460Y-80056870D01*
X120442462Y-80056871D01*
X120722066Y-80117695D01*
X120722068Y-80117695D01*
X120722072Y-80117696D01*
X120975720Y-80135837D01*
X121007499Y-80138110D01*
X121007500Y-80138110D01*
X121007501Y-80138110D01*
X121036095Y-80136064D01*
X121292928Y-80117696D01*
X121483242Y-80076296D01*
X121572537Y-80056871D01*
X121572537Y-80056870D01*
X121572546Y-80056869D01*
X121840661Y-79956867D01*
X122091815Y-79819726D01*
X122320895Y-79648239D01*
X122523239Y-79445895D01*
X122694726Y-79216815D01*
X122831867Y-78965661D01*
X122931869Y-78697546D01*
X122989563Y-78432331D01*
X122992695Y-78417933D01*
X122992695Y-78417932D01*
X122992696Y-78417928D01*
X123013110Y-78132500D01*
X123013110Y-78132498D01*
X124001890Y-78132498D01*
X124001890Y-78132501D01*
X124022304Y-78417933D01*
X124083128Y-78697537D01*
X124183135Y-78965666D01*
X124320270Y-79216809D01*
X124320275Y-79216817D01*
X124491754Y-79445887D01*
X124491770Y-79445905D01*
X124694094Y-79648229D01*
X124694112Y-79648245D01*
X124923182Y-79819724D01*
X124923190Y-79819729D01*
X125174333Y-79956864D01*
X125174332Y-79956864D01*
X125174336Y-79956865D01*
X125174339Y-79956867D01*
X125442454Y-80056869D01*
X125442460Y-80056870D01*
X125442462Y-80056871D01*
X125722066Y-80117695D01*
X125722068Y-80117695D01*
X125722072Y-80117696D01*
X125975720Y-80135837D01*
X126007499Y-80138110D01*
X126007500Y-80138110D01*
X126007501Y-80138110D01*
X126036095Y-80136064D01*
X126292928Y-80117696D01*
X126483242Y-80076296D01*
X126572537Y-80056871D01*
X126572537Y-80056870D01*
X126572546Y-80056869D01*
X126840661Y-79956867D01*
X127091815Y-79819726D01*
X127320895Y-79648239D01*
X127523239Y-79445895D01*
X127694726Y-79216815D01*
X127831867Y-78965661D01*
X127931869Y-78697546D01*
X127989563Y-78432331D01*
X127992695Y-78417933D01*
X127992695Y-78417932D01*
X127992696Y-78417928D01*
X128013110Y-78132500D01*
X128013110Y-78132498D01*
X129001890Y-78132498D01*
X129001890Y-78132501D01*
X129022304Y-78417933D01*
X129083128Y-78697537D01*
X129183135Y-78965666D01*
X129320270Y-79216809D01*
X129320275Y-79216817D01*
X129491754Y-79445887D01*
X129491770Y-79445905D01*
X129694094Y-79648229D01*
X129694112Y-79648245D01*
X129923182Y-79819724D01*
X129923190Y-79819729D01*
X130174333Y-79956864D01*
X130174332Y-79956864D01*
X130174336Y-79956865D01*
X130174339Y-79956867D01*
X130442454Y-80056869D01*
X130442460Y-80056870D01*
X130442462Y-80056871D01*
X130722066Y-80117695D01*
X130722068Y-80117695D01*
X130722072Y-80117696D01*
X130975720Y-80135837D01*
X131007499Y-80138110D01*
X131007500Y-80138110D01*
X131007501Y-80138110D01*
X131036095Y-80136064D01*
X131292928Y-80117696D01*
X131483242Y-80076296D01*
X131572537Y-80056871D01*
X131572537Y-80056870D01*
X131572546Y-80056869D01*
X131840661Y-79956867D01*
X132091815Y-79819726D01*
X132320895Y-79648239D01*
X132523239Y-79445895D01*
X132694726Y-79216815D01*
X132831867Y-78965661D01*
X132931869Y-78697546D01*
X132989563Y-78432331D01*
X132992695Y-78417933D01*
X132992695Y-78417932D01*
X132992696Y-78417928D01*
X133013110Y-78132500D01*
X133012483Y-78123739D01*
X132995315Y-77883694D01*
X132992696Y-77847072D01*
X132989095Y-77830520D01*
X132931871Y-77567462D01*
X132931870Y-77567460D01*
X132931869Y-77567454D01*
X132831867Y-77299339D01*
X132786853Y-77216903D01*
X132694729Y-77048190D01*
X132694724Y-77048182D01*
X132523245Y-76819112D01*
X132523229Y-76819094D01*
X132320905Y-76616770D01*
X132320887Y-76616754D01*
X132277981Y-76584635D01*
X134007000Y-76584635D01*
X134007000Y-79680370D01*
X134007001Y-79680376D01*
X134013408Y-79739983D01*
X134063702Y-79874828D01*
X134063706Y-79874835D01*
X134149952Y-79990044D01*
X134149955Y-79990047D01*
X134265164Y-80076293D01*
X134265171Y-80076297D01*
X134400017Y-80126591D01*
X134400016Y-80126591D01*
X134406944Y-80127335D01*
X134459627Y-80133000D01*
X137555372Y-80132999D01*
X137614983Y-80126591D01*
X137749831Y-80076296D01*
X137865046Y-79990046D01*
X137951296Y-79874831D01*
X138001591Y-79739983D01*
X138008000Y-79680373D01*
X138007999Y-76584628D01*
X138001591Y-76525017D01*
X137971847Y-76445270D01*
X137951297Y-76390171D01*
X137951293Y-76390164D01*
X137865047Y-76274955D01*
X137865044Y-76274952D01*
X137749835Y-76188706D01*
X137749828Y-76188702D01*
X137614982Y-76138408D01*
X137614983Y-76138408D01*
X137555383Y-76132001D01*
X137555381Y-76132000D01*
X137555373Y-76132000D01*
X137555364Y-76132000D01*
X134459629Y-76132000D01*
X134459623Y-76132001D01*
X134400016Y-76138408D01*
X134265171Y-76188702D01*
X134265164Y-76188706D01*
X134149955Y-76274952D01*
X134149952Y-76274955D01*
X134063706Y-76390164D01*
X134063702Y-76390171D01*
X134013408Y-76525017D01*
X134010504Y-76552032D01*
X134007001Y-76584623D01*
X134007000Y-76584635D01*
X132277981Y-76584635D01*
X132091817Y-76445275D01*
X132091809Y-76445270D01*
X131840666Y-76308135D01*
X131840667Y-76308135D01*
X131715944Y-76261616D01*
X131572546Y-76208131D01*
X131572543Y-76208130D01*
X131572537Y-76208128D01*
X131292933Y-76147304D01*
X131007501Y-76126890D01*
X131007499Y-76126890D01*
X130722066Y-76147304D01*
X130442462Y-76208128D01*
X130174333Y-76308135D01*
X129923190Y-76445270D01*
X129923182Y-76445275D01*
X129694112Y-76616754D01*
X129694094Y-76616770D01*
X129491770Y-76819094D01*
X129491754Y-76819112D01*
X129320275Y-77048182D01*
X129320270Y-77048190D01*
X129183135Y-77299333D01*
X129083128Y-77567462D01*
X129022304Y-77847066D01*
X129001890Y-78132498D01*
X128013110Y-78132498D01*
X128012483Y-78123739D01*
X127995315Y-77883694D01*
X127992696Y-77847072D01*
X127989095Y-77830520D01*
X127931871Y-77567462D01*
X127931870Y-77567460D01*
X127931869Y-77567454D01*
X127831867Y-77299339D01*
X127786853Y-77216903D01*
X127694729Y-77048190D01*
X127694724Y-77048182D01*
X127523245Y-76819112D01*
X127523229Y-76819094D01*
X127320905Y-76616770D01*
X127320887Y-76616754D01*
X127091817Y-76445275D01*
X127091809Y-76445270D01*
X126840666Y-76308135D01*
X126840667Y-76308135D01*
X126715944Y-76261616D01*
X126572546Y-76208131D01*
X126572543Y-76208130D01*
X126572537Y-76208128D01*
X126292933Y-76147304D01*
X126007501Y-76126890D01*
X126007499Y-76126890D01*
X125722066Y-76147304D01*
X125442462Y-76208128D01*
X125174333Y-76308135D01*
X124923190Y-76445270D01*
X124923182Y-76445275D01*
X124694112Y-76616754D01*
X124694094Y-76616770D01*
X124491770Y-76819094D01*
X124491754Y-76819112D01*
X124320275Y-77048182D01*
X124320270Y-77048190D01*
X124183135Y-77299333D01*
X124083128Y-77567462D01*
X124022304Y-77847066D01*
X124001890Y-78132498D01*
X123013110Y-78132498D01*
X123012483Y-78123739D01*
X122995315Y-77883694D01*
X122992696Y-77847072D01*
X122989095Y-77830520D01*
X122931871Y-77567462D01*
X122931870Y-77567460D01*
X122931869Y-77567454D01*
X122831867Y-77299339D01*
X122786853Y-77216903D01*
X122694729Y-77048190D01*
X122694724Y-77048182D01*
X122523245Y-76819112D01*
X122523229Y-76819094D01*
X122320905Y-76616770D01*
X122320887Y-76616754D01*
X122091817Y-76445275D01*
X122091809Y-76445270D01*
X121840666Y-76308135D01*
X121840667Y-76308135D01*
X121715944Y-76261616D01*
X121572546Y-76208131D01*
X121572543Y-76208130D01*
X121572537Y-76208128D01*
X121292933Y-76147304D01*
X121007501Y-76126890D01*
X121007499Y-76126890D01*
X120722066Y-76147304D01*
X120442462Y-76208128D01*
X120174333Y-76308135D01*
X119923190Y-76445270D01*
X119923182Y-76445275D01*
X119694112Y-76616754D01*
X119694094Y-76616770D01*
X119491770Y-76819094D01*
X119491754Y-76819112D01*
X119320275Y-77048182D01*
X119320270Y-77048190D01*
X119183135Y-77299333D01*
X119083128Y-77567462D01*
X119022304Y-77847066D01*
X119001890Y-78132498D01*
X118013110Y-78132498D01*
X118012483Y-78123739D01*
X117995315Y-77883694D01*
X117992696Y-77847072D01*
X117989095Y-77830520D01*
X117931871Y-77567462D01*
X117931870Y-77567460D01*
X117931869Y-77567454D01*
X117831867Y-77299339D01*
X117786853Y-77216903D01*
X117694729Y-77048190D01*
X117694724Y-77048182D01*
X117523245Y-76819112D01*
X117523229Y-76819094D01*
X117320905Y-76616770D01*
X117320887Y-76616754D01*
X117091817Y-76445275D01*
X117091809Y-76445270D01*
X116840666Y-76308135D01*
X116840667Y-76308135D01*
X116715944Y-76261616D01*
X116572546Y-76208131D01*
X116572543Y-76208130D01*
X116572537Y-76208128D01*
X116292933Y-76147304D01*
X116007501Y-76126890D01*
X116007499Y-76126890D01*
X115722066Y-76147304D01*
X115442462Y-76208128D01*
X115174333Y-76308135D01*
X114923190Y-76445270D01*
X114923182Y-76445275D01*
X114694112Y-76616754D01*
X114694094Y-76616770D01*
X114491770Y-76819094D01*
X114491754Y-76819112D01*
X114320275Y-77048182D01*
X114320270Y-77048190D01*
X114183135Y-77299333D01*
X114083128Y-77567462D01*
X114022304Y-77847066D01*
X114001890Y-78132498D01*
X108043514Y-78132498D01*
X108147968Y-78028044D01*
X108159465Y-78009403D01*
X108211412Y-77962679D01*
X108265004Y-77950500D01*
X108768075Y-77950500D01*
X108768091Y-77950501D01*
X108775687Y-77950501D01*
X108933798Y-77950501D01*
X108933801Y-77950501D01*
X109086529Y-77909577D01*
X109136648Y-77880639D01*
X109223460Y-77830520D01*
X109335264Y-77718716D01*
X109335264Y-77718714D01*
X109345472Y-77708507D01*
X109345473Y-77708504D01*
X110645520Y-76408460D01*
X110724577Y-76271529D01*
X110765501Y-76118801D01*
X110765501Y-75960686D01*
X110765501Y-75953091D01*
X110765500Y-75953073D01*
X110765500Y-75116174D01*
X110785185Y-75049135D01*
X110837989Y-75003380D01*
X110907147Y-74993436D01*
X110970703Y-75022461D01*
X111008477Y-75081239D01*
X111012720Y-75102291D01*
X111014630Y-75119249D01*
X111014631Y-75119254D01*
X111074211Y-75289523D01*
X111096271Y-75324631D01*
X111170184Y-75442262D01*
X111297738Y-75569816D01*
X111450478Y-75665789D01*
X111620745Y-75725368D01*
X111620750Y-75725369D01*
X111799996Y-75745565D01*
X111800000Y-75745565D01*
X111800004Y-75745565D01*
X111979249Y-75725369D01*
X111979252Y-75725368D01*
X111979255Y-75725368D01*
X112149522Y-75665789D01*
X112302262Y-75569816D01*
X112429816Y-75442262D01*
X112525789Y-75289522D01*
X112585368Y-75119255D01*
X112585715Y-75116174D01*
X112605565Y-74940003D01*
X112605565Y-74939996D01*
X112585369Y-74760750D01*
X112585366Y-74760737D01*
X112525790Y-74590481D01*
X112525789Y-74590478D01*
X112504008Y-74555814D01*
X112469506Y-74500903D01*
X112450500Y-74434931D01*
X112450500Y-72839666D01*
X112425502Y-72713999D01*
X112425501Y-72713998D01*
X112425501Y-72713994D01*
X112376465Y-72595611D01*
X112329918Y-72525948D01*
X112305277Y-72489069D01*
X108793390Y-68977182D01*
X108759905Y-68915859D01*
X108764889Y-68846167D01*
X108806761Y-68790234D01*
X108872225Y-68765817D01*
X108881071Y-68765501D01*
X108904054Y-68765501D01*
X108904057Y-68765501D01*
X109037332Y-68729789D01*
X109063085Y-68726399D01*
X109063079Y-68726345D01*
X109065978Y-68726018D01*
X109069422Y-68725565D01*
X109070002Y-68725565D01*
X109249249Y-68705369D01*
X109249252Y-68705368D01*
X109249255Y-68705368D01*
X109419522Y-68645789D01*
X109559529Y-68557816D01*
X109626764Y-68538816D01*
X109693599Y-68559183D01*
X109738813Y-68612451D01*
X109749500Y-68662809D01*
X109749500Y-68757869D01*
X109749501Y-68757876D01*
X109755908Y-68817483D01*
X109806202Y-68952328D01*
X109806206Y-68952335D01*
X109892452Y-69067544D01*
X109892455Y-69067547D01*
X110007664Y-69153793D01*
X110007671Y-69153797D01*
X110142517Y-69204091D01*
X110142516Y-69204091D01*
X110149444Y-69204835D01*
X110202127Y-69210500D01*
X111690500Y-69210499D01*
X111757539Y-69230184D01*
X111803294Y-69282987D01*
X111814500Y-69334499D01*
X111814500Y-70307870D01*
X111814501Y-70307876D01*
X111820908Y-70367483D01*
X111871202Y-70502328D01*
X111871206Y-70502335D01*
X111957452Y-70617544D01*
X111957455Y-70617547D01*
X112072664Y-70703793D01*
X112072671Y-70703797D01*
X112207517Y-70754091D01*
X112207516Y-70754091D01*
X112214444Y-70754835D01*
X112267127Y-70760500D01*
X113262872Y-70760499D01*
X113322483Y-70754091D01*
X113356667Y-70741340D01*
X113426358Y-70736357D01*
X113443327Y-70741338D01*
X113477517Y-70754091D01*
X113537127Y-70760500D01*
X114532872Y-70760499D01*
X114592483Y-70754091D01*
X114626667Y-70741340D01*
X114696358Y-70736357D01*
X114713327Y-70741338D01*
X114747517Y-70754091D01*
X114807127Y-70760500D01*
X115802872Y-70760499D01*
X115862483Y-70754091D01*
X115896667Y-70741340D01*
X115966358Y-70736357D01*
X115983327Y-70741338D01*
X116017517Y-70754091D01*
X116077127Y-70760500D01*
X117072872Y-70760499D01*
X117132483Y-70754091D01*
X117166667Y-70741340D01*
X117236358Y-70736357D01*
X117253327Y-70741338D01*
X117287517Y-70754091D01*
X117347127Y-70760500D01*
X118342872Y-70760499D01*
X118402483Y-70754091D01*
X118436667Y-70741340D01*
X118506358Y-70736357D01*
X118523327Y-70741338D01*
X118557517Y-70754091D01*
X118617127Y-70760500D01*
X119612872Y-70760499D01*
X119672483Y-70754091D01*
X119706667Y-70741340D01*
X119776358Y-70736357D01*
X119793327Y-70741338D01*
X119827517Y-70754091D01*
X119887127Y-70760500D01*
X120882872Y-70760499D01*
X120942483Y-70754091D01*
X120976667Y-70741340D01*
X121046358Y-70736357D01*
X121063327Y-70741338D01*
X121097517Y-70754091D01*
X121157127Y-70760500D01*
X122152872Y-70760499D01*
X122212483Y-70754091D01*
X122246667Y-70741340D01*
X122316358Y-70736357D01*
X122333327Y-70741338D01*
X122367517Y-70754091D01*
X122427127Y-70760500D01*
X123422872Y-70760499D01*
X123482483Y-70754091D01*
X123516667Y-70741340D01*
X123586358Y-70736357D01*
X123603327Y-70741338D01*
X123637517Y-70754091D01*
X123697127Y-70760500D01*
X124692872Y-70760499D01*
X124752483Y-70754091D01*
X124786667Y-70741340D01*
X124856358Y-70736357D01*
X124873327Y-70741338D01*
X124907517Y-70754091D01*
X124967127Y-70760500D01*
X125962872Y-70760499D01*
X126022483Y-70754091D01*
X126056667Y-70741340D01*
X126126358Y-70736357D01*
X126143327Y-70741338D01*
X126177517Y-70754091D01*
X126237127Y-70760500D01*
X127232872Y-70760499D01*
X127292483Y-70754091D01*
X127427331Y-70703796D01*
X127542546Y-70617546D01*
X127628796Y-70502331D01*
X127679091Y-70367483D01*
X127685500Y-70307873D01*
X127685499Y-69334498D01*
X127705183Y-69267460D01*
X127757987Y-69221705D01*
X127809494Y-69210499D01*
X129297872Y-69210499D01*
X129357483Y-69204091D01*
X129492331Y-69153796D01*
X129607546Y-69067546D01*
X129693796Y-68952331D01*
X129744091Y-68817483D01*
X129750500Y-68757873D01*
X129750499Y-68610807D01*
X129770183Y-68543768D01*
X129786809Y-68523135D01*
X130105276Y-68204670D01*
X130150648Y-68136766D01*
X130176464Y-68098129D01*
X130186771Y-68073245D01*
X130225501Y-67979744D01*
X130229204Y-67961130D01*
X130232410Y-67945016D01*
X130243087Y-67891336D01*
X130275471Y-67829425D01*
X130336187Y-67794851D01*
X130378586Y-67792307D01*
X130407500Y-67795565D01*
X130407500Y-67795564D01*
X130407501Y-67795565D01*
X130407504Y-67795565D01*
X130586749Y-67775369D01*
X130586752Y-67775368D01*
X130586755Y-67775368D01*
X130757022Y-67715789D01*
X130765943Y-67710184D01*
X130845058Y-67660472D01*
X130912295Y-67641471D01*
X130979130Y-67661838D01*
X131024345Y-67715106D01*
X131033970Y-67749278D01*
X131034954Y-67756755D01*
X131034956Y-67756762D01*
X131095464Y-67902841D01*
X131183714Y-68017851D01*
X131208907Y-68083017D01*
X131194869Y-68151462D01*
X131160825Y-68191710D01*
X131143937Y-68204669D01*
X131121718Y-68221718D01*
X131103248Y-68245789D01*
X131025463Y-68347160D01*
X130964956Y-68493237D01*
X130964955Y-68493239D01*
X130949500Y-68610638D01*
X130949500Y-68889363D01*
X130964953Y-69006753D01*
X130964956Y-69006762D01*
X131025464Y-69152842D01*
X131066213Y-69205947D01*
X131087611Y-69249338D01*
X131120421Y-69371781D01*
X131120425Y-69371790D01*
X131138549Y-69403181D01*
X131138550Y-69403182D01*
X131174776Y-69465928D01*
X131199481Y-69508717D01*
X131269298Y-69578534D01*
X131302783Y-69639857D01*
X131304837Y-69652331D01*
X131314630Y-69739249D01*
X131374210Y-69909521D01*
X131408653Y-69964336D01*
X131470184Y-70062262D01*
X131597738Y-70189816D01*
X131750478Y-70285789D01*
X131876294Y-70329814D01*
X131920745Y-70345368D01*
X131920750Y-70345369D01*
X132099996Y-70365565D01*
X132100000Y-70365565D01*
X132100004Y-70365565D01*
X132279249Y-70345369D01*
X132279252Y-70345368D01*
X132279255Y-70345368D01*
X132449522Y-70285789D01*
X132602262Y-70189816D01*
X132729816Y-70062262D01*
X132735982Y-70052447D01*
X132788312Y-70006157D01*
X132857365Y-69995505D01*
X132921215Y-70023877D01*
X132928658Y-70030736D01*
X132947738Y-70049816D01*
X133038080Y-70106582D01*
X133081572Y-70133910D01*
X133100478Y-70145789D01*
X133226297Y-70189815D01*
X133270745Y-70205368D01*
X133270750Y-70205369D01*
X133449996Y-70225565D01*
X133450000Y-70225565D01*
X133450004Y-70225565D01*
X133629249Y-70205369D01*
X133629252Y-70205368D01*
X133629255Y-70205368D01*
X133799522Y-70145789D01*
X133952262Y-70049816D01*
X134079816Y-69922262D01*
X134175789Y-69769522D01*
X134235368Y-69599255D01*
X134235952Y-69594071D01*
X134240406Y-69554543D01*
X134267472Y-69490129D01*
X134325066Y-69450573D01*
X134347443Y-69445486D01*
X134397207Y-69438934D01*
X134426762Y-69435044D01*
X134572841Y-69374536D01*
X134698282Y-69278282D01*
X134794536Y-69152841D01*
X134855044Y-69006762D01*
X134870500Y-68889361D01*
X134870499Y-68610640D01*
X134870499Y-68610638D01*
X134870499Y-68610636D01*
X134855046Y-68493246D01*
X134855044Y-68493239D01*
X134855044Y-68493238D01*
X134801370Y-68363657D01*
X134792380Y-68341952D01*
X134784911Y-68272483D01*
X134816186Y-68210004D01*
X134876275Y-68174352D01*
X134906941Y-68170500D01*
X135114932Y-68170500D01*
X135180904Y-68189506D01*
X135270477Y-68245789D01*
X135270481Y-68245790D01*
X135440737Y-68305366D01*
X135440743Y-68305367D01*
X135440745Y-68305368D01*
X135440746Y-68305368D01*
X135440750Y-68305369D01*
X135619996Y-68325565D01*
X135620000Y-68325565D01*
X135620004Y-68325565D01*
X135799249Y-68305369D01*
X135799252Y-68305368D01*
X135799255Y-68305368D01*
X135969522Y-68245789D01*
X136122262Y-68149816D01*
X136249816Y-68022262D01*
X136345789Y-67869522D01*
X136405368Y-67699255D01*
X136408852Y-67668334D01*
X136425565Y-67520003D01*
X136425565Y-67519996D01*
X136405369Y-67340750D01*
X136405368Y-67340745D01*
X136389354Y-67294980D01*
X136345789Y-67170478D01*
X136249816Y-67017738D01*
X136122262Y-66890184D01*
X136044658Y-66841422D01*
X135969523Y-66794211D01*
X135799254Y-66734631D01*
X135799249Y-66734630D01*
X135620004Y-66714435D01*
X135619996Y-66714435D01*
X135440750Y-66734630D01*
X135440742Y-66734632D01*
X135387304Y-66753331D01*
X135317525Y-66756892D01*
X135256898Y-66722163D01*
X135224671Y-66660169D01*
X135226576Y-66604194D01*
X135238000Y-66561559D01*
X135238001Y-66561557D01*
X135238001Y-66403443D01*
X135238001Y-66395848D01*
X135238000Y-66395830D01*
X135238000Y-66344932D01*
X135257685Y-66277893D01*
X135310489Y-66232138D01*
X135327393Y-66225859D01*
X135410398Y-66201744D01*
X135551865Y-66118081D01*
X135668081Y-66001865D01*
X135751744Y-65860398D01*
X135797598Y-65702569D01*
X135800500Y-65665694D01*
X135800500Y-65234306D01*
X135797598Y-65197431D01*
X135797484Y-65197040D01*
X135753503Y-65045656D01*
X135751744Y-65039602D01*
X135668081Y-64898135D01*
X135668079Y-64898133D01*
X135668076Y-64898129D01*
X135551870Y-64781923D01*
X135551862Y-64781917D01*
X135410396Y-64698255D01*
X135410393Y-64698254D01*
X135252573Y-64652402D01*
X135252567Y-64652401D01*
X135215701Y-64649500D01*
X135215694Y-64649500D01*
X134059306Y-64649500D01*
X134059298Y-64649500D01*
X134022432Y-64652401D01*
X134022426Y-64652402D01*
X133864606Y-64698254D01*
X133864603Y-64698255D01*
X133723137Y-64781917D01*
X133723129Y-64781923D01*
X133606923Y-64898129D01*
X133606914Y-64898140D01*
X133606729Y-64898455D01*
X133606519Y-64898650D01*
X133602139Y-64904298D01*
X133601227Y-64903591D01*
X133555657Y-64946136D01*
X133486915Y-64958637D01*
X133422327Y-64931988D01*
X133398143Y-64904078D01*
X133397861Y-64904298D01*
X133393823Y-64899092D01*
X133393271Y-64898455D01*
X133393085Y-64898140D01*
X133393076Y-64898129D01*
X133276870Y-64781923D01*
X133276862Y-64781917D01*
X133135396Y-64698255D01*
X133135393Y-64698254D01*
X132977573Y-64652402D01*
X132977567Y-64652401D01*
X132940701Y-64649500D01*
X132940694Y-64649500D01*
X132411598Y-64649500D01*
X132344559Y-64629815D01*
X132298804Y-64577011D01*
X132288860Y-64507853D01*
X132317885Y-64444297D01*
X132323917Y-64437819D01*
X132374917Y-64386819D01*
X132436240Y-64353334D01*
X132462598Y-64350500D01*
X132940686Y-64350500D01*
X132940694Y-64350500D01*
X132977569Y-64347598D01*
X132977571Y-64347597D01*
X132977573Y-64347597D01*
X133019191Y-64335505D01*
X133135398Y-64301744D01*
X133276865Y-64218081D01*
X133393081Y-64101865D01*
X133393267Y-64101549D01*
X133393477Y-64101353D01*
X133397861Y-64095702D01*
X133398772Y-64096409D01*
X133444336Y-64053866D01*
X133513077Y-64041362D01*
X133577667Y-64068006D01*
X133601855Y-64095921D01*
X133602139Y-64095702D01*
X133606179Y-64100911D01*
X133606732Y-64101548D01*
X133606919Y-64101865D01*
X133606921Y-64101867D01*
X133606923Y-64101870D01*
X133723129Y-64218076D01*
X133723133Y-64218079D01*
X133723135Y-64218081D01*
X133864602Y-64301744D01*
X133906224Y-64313836D01*
X134022426Y-64347597D01*
X134022429Y-64347597D01*
X134022431Y-64347598D01*
X134059306Y-64350500D01*
X134059314Y-64350500D01*
X135215686Y-64350500D01*
X135215694Y-64350500D01*
X135252569Y-64347598D01*
X135252571Y-64347597D01*
X135252573Y-64347597D01*
X135294191Y-64335505D01*
X135410398Y-64301744D01*
X135482441Y-64259137D01*
X135550165Y-64241955D01*
X135616428Y-64264115D01*
X135633243Y-64278189D01*
X136522329Y-65167275D01*
X136555814Y-65228598D01*
X136557587Y-65238772D01*
X136559954Y-65256753D01*
X136559956Y-65256762D01*
X136615461Y-65390764D01*
X136620464Y-65402841D01*
X136716718Y-65528282D01*
X136842159Y-65624536D01*
X136988238Y-65685044D01*
X137105639Y-65700500D01*
X137444360Y-65700499D01*
X137444363Y-65700499D01*
X137561753Y-65685046D01*
X137561757Y-65685044D01*
X137561762Y-65685044D01*
X137707841Y-65624536D01*
X137833282Y-65528282D01*
X137929536Y-65402841D01*
X137990044Y-65256762D01*
X138005500Y-65139361D01*
X138005499Y-64860640D01*
X138005499Y-64860636D01*
X137990046Y-64743246D01*
X137990044Y-64743241D01*
X137990044Y-64743238D01*
X137929536Y-64597159D01*
X137833282Y-64471718D01*
X137707841Y-64375464D01*
X137707609Y-64375368D01*
X137665054Y-64357741D01*
X137561762Y-64314956D01*
X137550613Y-64313488D01*
X137543769Y-64312587D01*
X137479873Y-64284319D01*
X137472275Y-64277329D01*
X137407627Y-64212681D01*
X137374142Y-64151358D01*
X137379126Y-64081666D01*
X137407624Y-64037321D01*
X137472276Y-63972668D01*
X137533597Y-63939185D01*
X137543765Y-63937412D01*
X137561762Y-63935044D01*
X137707841Y-63874536D01*
X137833282Y-63778282D01*
X137929536Y-63652841D01*
X137990044Y-63506762D01*
X138005500Y-63389361D01*
X138005499Y-63110640D01*
X138005499Y-63110636D01*
X137990046Y-62993246D01*
X137990044Y-62993241D01*
X137990044Y-62993238D01*
X137929536Y-62847159D01*
X137833282Y-62721718D01*
X137707841Y-62625464D01*
X137700726Y-62622517D01*
X137561762Y-62564956D01*
X137561760Y-62564955D01*
X137444361Y-62549500D01*
X137105636Y-62549500D01*
X136988246Y-62564953D01*
X136988237Y-62564956D01*
X136842160Y-62625463D01*
X136768304Y-62682135D01*
X136716718Y-62721718D01*
X136657989Y-62798256D01*
X136617527Y-62850987D01*
X136561099Y-62892189D01*
X136519151Y-62899500D01*
X135615516Y-62899500D01*
X135552395Y-62882232D01*
X135494163Y-62847794D01*
X135446480Y-62796725D01*
X135433976Y-62727984D01*
X135452292Y-62675086D01*
X135455789Y-62669522D01*
X135515368Y-62499255D01*
X135518948Y-62467481D01*
X135535565Y-62320003D01*
X135535565Y-62319996D01*
X135515369Y-62140750D01*
X135515368Y-62140745D01*
X135455788Y-61970476D01*
X135359815Y-61817737D01*
X135232262Y-61690184D01*
X135079523Y-61594211D01*
X134909254Y-61534631D01*
X134909249Y-61534630D01*
X134730004Y-61514435D01*
X134729996Y-61514435D01*
X134550750Y-61534630D01*
X134550745Y-61534631D01*
X134380476Y-61594211D01*
X134227737Y-61690184D01*
X134100184Y-61817737D01*
X134004211Y-61970476D01*
X133944631Y-62140745D01*
X133944630Y-62140750D01*
X133924435Y-62319996D01*
X133924435Y-62320003D01*
X133944630Y-62499249D01*
X133944631Y-62499254D01*
X133988995Y-62626037D01*
X133992556Y-62695816D01*
X133957827Y-62756444D01*
X133906550Y-62786068D01*
X133864603Y-62798255D01*
X133723137Y-62881917D01*
X133723129Y-62881923D01*
X133606923Y-62998129D01*
X133606914Y-62998140D01*
X133606729Y-62998455D01*
X133606519Y-62998650D01*
X133602139Y-63004298D01*
X133601227Y-63003591D01*
X133555657Y-63046136D01*
X133486915Y-63058637D01*
X133422327Y-63031988D01*
X133398143Y-63004078D01*
X133397861Y-63004298D01*
X133393823Y-62999092D01*
X133393271Y-62998455D01*
X133393085Y-62998140D01*
X133393076Y-62998129D01*
X133276870Y-62881923D01*
X133276862Y-62881917D01*
X133146179Y-62804632D01*
X133135398Y-62798256D01*
X133135397Y-62798255D01*
X133135396Y-62798255D01*
X133135393Y-62798254D01*
X132977573Y-62752402D01*
X132977567Y-62752401D01*
X132940701Y-62749500D01*
X132940694Y-62749500D01*
X131784306Y-62749500D01*
X131784298Y-62749500D01*
X131747432Y-62752401D01*
X131747426Y-62752402D01*
X131589606Y-62798254D01*
X131589603Y-62798255D01*
X131448137Y-62881917D01*
X131448129Y-62881923D01*
X131331923Y-62998129D01*
X131331917Y-62998137D01*
X131248255Y-63139603D01*
X131248254Y-63139606D01*
X131202402Y-63297426D01*
X131202401Y-63297432D01*
X131199500Y-63334298D01*
X131199500Y-63765709D01*
X131202169Y-63799625D01*
X131187803Y-63868002D01*
X131166233Y-63897031D01*
X131031286Y-64031978D01*
X130919481Y-64143782D01*
X130919479Y-64143785D01*
X130878076Y-64215499D01*
X130878075Y-64215500D01*
X130840423Y-64280714D01*
X130840423Y-64280715D01*
X130799499Y-64433443D01*
X130799499Y-64433445D01*
X130799499Y-64601546D01*
X130799500Y-64601559D01*
X130799500Y-66104312D01*
X130779815Y-66171351D01*
X130727011Y-66217106D01*
X130657853Y-66227050D01*
X130634546Y-66221354D01*
X130586757Y-66204632D01*
X130586749Y-66204630D01*
X130407504Y-66184435D01*
X130407502Y-66184435D01*
X130407500Y-66184435D01*
X130397981Y-66185507D01*
X130388380Y-66186589D01*
X130319559Y-66174532D01*
X130268181Y-66127182D01*
X130250500Y-66063368D01*
X130250500Y-63720807D01*
X130270185Y-63653768D01*
X130286814Y-63633131D01*
X132949091Y-60970853D01*
X133010412Y-60937370D01*
X133077032Y-60941254D01*
X133101520Y-60949661D01*
X133130385Y-60959571D01*
X133375665Y-61000500D01*
X133624335Y-61000500D01*
X133869614Y-60959571D01*
X134104810Y-60878828D01*
X134323509Y-60760474D01*
X134519744Y-60607738D01*
X134688164Y-60424785D01*
X134824173Y-60216607D01*
X134824175Y-60216601D01*
X134824786Y-60215475D01*
X134825157Y-60215101D01*
X134826978Y-60212314D01*
X134827551Y-60212688D01*
X134874009Y-60165888D01*
X134933837Y-60150500D01*
X138566163Y-60150500D01*
X138633202Y-60170185D01*
X138672561Y-60212615D01*
X138673022Y-60212314D01*
X138674785Y-60215012D01*
X138675214Y-60215475D01*
X138675826Y-60216606D01*
X138811833Y-60424782D01*
X138811836Y-60424785D01*
X138980256Y-60607738D01*
X139176491Y-60760474D01*
X139395190Y-60878828D01*
X139614141Y-60953994D01*
X139623412Y-60957177D01*
X139630386Y-60959571D01*
X139875665Y-61000500D01*
X140124335Y-61000500D01*
X140369614Y-60959571D01*
X140604810Y-60878828D01*
X140823509Y-60760474D01*
X141019744Y-60607738D01*
X141188164Y-60424785D01*
X141324173Y-60216607D01*
X141424063Y-59988881D01*
X141485108Y-59747821D01*
X141488520Y-59706645D01*
X141505643Y-59500005D01*
X141505643Y-59499994D01*
X141485109Y-59252187D01*
X141485108Y-59252183D01*
X141485108Y-59252179D01*
X141484557Y-59250005D01*
X141451460Y-59119306D01*
X141438280Y-59067260D01*
X141440904Y-58997442D01*
X141470802Y-58949142D01*
X143619732Y-56800212D01*
X143681053Y-56766729D01*
X143685570Y-56766010D01*
X143690288Y-56764999D01*
X143690297Y-56764999D01*
X143856834Y-56709814D01*
X144006156Y-56617712D01*
X144130212Y-56493656D01*
X144222314Y-56344334D01*
X144277499Y-56177797D01*
X144288000Y-56075009D01*
X144287999Y-55424992D01*
X144287984Y-55424849D01*
X144277499Y-55322203D01*
X144277498Y-55322200D01*
X144261619Y-55274281D01*
X144222314Y-55155666D01*
X144181561Y-55089595D01*
X144163122Y-55022204D01*
X144184045Y-54955541D01*
X144237687Y-54910771D01*
X144287101Y-54900500D01*
X144359192Y-54900500D01*
X144426231Y-54920185D01*
X144446873Y-54936819D01*
X147002778Y-57492724D01*
X147036263Y-57554047D01*
X147031279Y-57623739D01*
X147002778Y-57668086D01*
X141444724Y-63226140D01*
X141435144Y-63240478D01*
X141400804Y-63291873D01*
X141389190Y-63309255D01*
X141373535Y-63332683D01*
X141373533Y-63332686D01*
X141324499Y-63451066D01*
X141324497Y-63451072D01*
X141299500Y-63576739D01*
X141299500Y-65308916D01*
X141279815Y-65375955D01*
X141227011Y-65421710D01*
X141209612Y-65428132D01*
X141076953Y-65466090D01*
X141076951Y-65466090D01*
X141076951Y-65466091D01*
X140896593Y-65560302D01*
X140896591Y-65560303D01*
X140896590Y-65560304D01*
X140738890Y-65688890D01*
X140610304Y-65846590D01*
X140610302Y-65846593D01*
X140583295Y-65898295D01*
X140516089Y-66026954D01*
X140472672Y-66178693D01*
X140460466Y-66221354D01*
X140460114Y-66222583D01*
X140460113Y-66222586D01*
X140454040Y-66290901D01*
X140450685Y-66328642D01*
X140449500Y-66341966D01*
X140449500Y-69258028D01*
X140449501Y-69258034D01*
X140460113Y-69377415D01*
X140516089Y-69573045D01*
X140516090Y-69573048D01*
X140516091Y-69573049D01*
X140610302Y-69753407D01*
X140610304Y-69753409D01*
X140738890Y-69911109D01*
X140832803Y-69987684D01*
X140896593Y-70039698D01*
X141076951Y-70133909D01*
X141272582Y-70189886D01*
X141391963Y-70200500D01*
X142508036Y-70200499D01*
X142627418Y-70189886D01*
X142823049Y-70133909D01*
X143003407Y-70039698D01*
X143161109Y-69911109D01*
X143289698Y-69753407D01*
X143383909Y-69573049D01*
X143439886Y-69377418D01*
X143450500Y-69258037D01*
X143450500Y-68574500D01*
X143470185Y-68507461D01*
X143522989Y-68461706D01*
X143574500Y-68450500D01*
X146707463Y-68450500D01*
X146774502Y-68470185D01*
X146818549Y-68519402D01*
X146882970Y-68649296D01*
X146882971Y-68649297D01*
X147002277Y-68797721D01*
X147002278Y-68797722D01*
X147150704Y-68917030D01*
X147150707Y-68917032D01*
X147321302Y-69001639D01*
X147321303Y-69001639D01*
X147321307Y-69001641D01*
X147506111Y-69047600D01*
X147548877Y-69050500D01*
X148529190Y-69050499D01*
X148596229Y-69070183D01*
X148616871Y-69086818D01*
X149943181Y-70413127D01*
X149976666Y-70474450D01*
X149979500Y-70500808D01*
X149979500Y-70662750D01*
X149970061Y-70710203D01*
X149914956Y-70843237D01*
X149914955Y-70843239D01*
X149899500Y-70960638D01*
X149899500Y-71239363D01*
X149914953Y-71356753D01*
X149914956Y-71356762D01*
X149975464Y-71502841D01*
X150071718Y-71628282D01*
X150197159Y-71724536D01*
X150343238Y-71785044D01*
X150460639Y-71800500D01*
X150799360Y-71800499D01*
X150799363Y-71800499D01*
X150916755Y-71785045D01*
X150916755Y-71785044D01*
X150916762Y-71785044D01*
X150916767Y-71785041D01*
X150917900Y-71784739D01*
X150919085Y-71784738D01*
X150924821Y-71783984D01*
X150924920Y-71784738D01*
X150975080Y-71784737D01*
X150975180Y-71783983D01*
X150980907Y-71784737D01*
X150982091Y-71784737D01*
X150983234Y-71785043D01*
X150983236Y-71785043D01*
X150983238Y-71785044D01*
X151100639Y-71800500D01*
X151439360Y-71800499D01*
X151439363Y-71800499D01*
X151556753Y-71785046D01*
X151556757Y-71785044D01*
X151556762Y-71785044D01*
X151617370Y-71759938D01*
X151664823Y-71750500D01*
X151985177Y-71750500D01*
X152032629Y-71759938D01*
X152093238Y-71785044D01*
X152210639Y-71800500D01*
X152549360Y-71800499D01*
X152549363Y-71800499D01*
X152666753Y-71785046D01*
X152666757Y-71785044D01*
X152666762Y-71785044D01*
X152812841Y-71724536D01*
X152938282Y-71628282D01*
X153034536Y-71502841D01*
X153095044Y-71356762D01*
X153110500Y-71239361D01*
X153110499Y-70960640D01*
X153110499Y-70960638D01*
X153110499Y-70960636D01*
X153095046Y-70843246D01*
X153095044Y-70843239D01*
X153095044Y-70843238D01*
X153034536Y-70697159D01*
X152938282Y-70571718D01*
X152812841Y-70475464D01*
X152750158Y-70449500D01*
X152666762Y-70414956D01*
X152666760Y-70414955D01*
X152549361Y-70399500D01*
X152210636Y-70399500D01*
X152093246Y-70414953D01*
X152093237Y-70414956D01*
X152032630Y-70440061D01*
X151985177Y-70449500D01*
X151793730Y-70449500D01*
X151726691Y-70429815D01*
X151680936Y-70377011D01*
X151670992Y-70307853D01*
X151700017Y-70244297D01*
X151706049Y-70237819D01*
X151754053Y-70189815D01*
X151830212Y-70113656D01*
X151922314Y-69964334D01*
X151977499Y-69797797D01*
X151988000Y-69695009D01*
X151987999Y-69044992D01*
X151986923Y-69034463D01*
X151977499Y-68942203D01*
X151977498Y-68942200D01*
X151968769Y-68915859D01*
X151922314Y-68775666D01*
X151830212Y-68626344D01*
X151824049Y-68620181D01*
X151790564Y-68558858D01*
X151795548Y-68489166D01*
X151824049Y-68444819D01*
X151846606Y-68422262D01*
X151905212Y-68363656D01*
X151997314Y-68214334D01*
X152052499Y-68047797D01*
X152063000Y-67945009D01*
X152062999Y-67294992D01*
X152052499Y-67192203D01*
X151997314Y-67025666D01*
X151905212Y-66876344D01*
X151781156Y-66752288D01*
X151631834Y-66660186D01*
X151631833Y-66660185D01*
X151631829Y-66660183D01*
X151626214Y-66657565D01*
X151573776Y-66611392D01*
X151554625Y-66544198D01*
X151574842Y-66477317D01*
X151590936Y-66457507D01*
X151625981Y-66422463D01*
X151742786Y-66261694D01*
X151833005Y-66084632D01*
X151894413Y-65895636D01*
X151917479Y-65750003D01*
X151925500Y-65699365D01*
X151925500Y-65500633D01*
X151894413Y-65304362D01*
X151870474Y-65230686D01*
X151833005Y-65115368D01*
X151742786Y-64938305D01*
X151699237Y-64878364D01*
X151625986Y-64777542D01*
X151625982Y-64777537D01*
X151590137Y-64741692D01*
X151556652Y-64680369D01*
X151561636Y-64610677D01*
X151603508Y-64554744D01*
X151612722Y-64548472D01*
X151637602Y-64533126D01*
X151743656Y-64467712D01*
X151867712Y-64343656D01*
X151959814Y-64194334D01*
X152014999Y-64027797D01*
X152025500Y-63925009D01*
X152025499Y-63589996D01*
X155124435Y-63589996D01*
X155124435Y-63590003D01*
X155144630Y-63769249D01*
X155144631Y-63769254D01*
X155204211Y-63939523D01*
X155284943Y-64068006D01*
X155300184Y-64092262D01*
X155427738Y-64219816D01*
X155516008Y-64275280D01*
X155580471Y-64315785D01*
X155580478Y-64315789D01*
X155735393Y-64369996D01*
X155750745Y-64375368D01*
X155750750Y-64375369D01*
X155929996Y-64395565D01*
X155930000Y-64395565D01*
X155930004Y-64395565D01*
X156109249Y-64375369D01*
X156109251Y-64375368D01*
X156109255Y-64375368D01*
X156109258Y-64375366D01*
X156109262Y-64375366D01*
X156199883Y-64343656D01*
X156279522Y-64315789D01*
X156279526Y-64315786D01*
X156279529Y-64315785D01*
X156343993Y-64275280D01*
X156411229Y-64256279D01*
X156478064Y-64276646D01*
X156497646Y-64292592D01*
X156738181Y-64533126D01*
X156771666Y-64594449D01*
X156774500Y-64620807D01*
X156774500Y-65897870D01*
X156774501Y-65897876D01*
X156780908Y-65957483D01*
X156831202Y-66092328D01*
X156831206Y-66092335D01*
X156917452Y-66207544D01*
X156917455Y-66207547D01*
X157032664Y-66293793D01*
X157032671Y-66293797D01*
X157167517Y-66344091D01*
X157167516Y-66344091D01*
X157174444Y-66344835D01*
X157227127Y-66350500D01*
X159022872Y-66350499D01*
X159082483Y-66344091D01*
X159217331Y-66293796D01*
X159332546Y-66207546D01*
X159418796Y-66092331D01*
X159469091Y-65957483D01*
X159475500Y-65897873D01*
X159475499Y-64102128D01*
X159469091Y-64042517D01*
X159468660Y-64041362D01*
X159418797Y-63907671D01*
X159418793Y-63907664D01*
X159332547Y-63792455D01*
X159332544Y-63792452D01*
X159217335Y-63706206D01*
X159217328Y-63706202D01*
X159082482Y-63655908D01*
X159082483Y-63655908D01*
X159022883Y-63649501D01*
X159022881Y-63649500D01*
X159022873Y-63649500D01*
X159022865Y-63649500D01*
X157745808Y-63649500D01*
X157678769Y-63629815D01*
X157658127Y-63613181D01*
X157129674Y-63084727D01*
X157129673Y-63084726D01*
X157129669Y-63084723D01*
X157023127Y-63013535D01*
X157004134Y-63005668D01*
X156904744Y-62964499D01*
X156904738Y-62964497D01*
X156779071Y-62939500D01*
X156779069Y-62939500D01*
X156435068Y-62939500D01*
X156369096Y-62920494D01*
X156279522Y-62864210D01*
X156279518Y-62864209D01*
X156109262Y-62804633D01*
X156109249Y-62804630D01*
X155930004Y-62784435D01*
X155929996Y-62784435D01*
X155750750Y-62804630D01*
X155750745Y-62804631D01*
X155580476Y-62864211D01*
X155427737Y-62960184D01*
X155300184Y-63087737D01*
X155204211Y-63240476D01*
X155144631Y-63410745D01*
X155144630Y-63410750D01*
X155124435Y-63589996D01*
X152025499Y-63589996D01*
X152025499Y-63274992D01*
X152021973Y-63240478D01*
X152014999Y-63172203D01*
X152014998Y-63172200D01*
X151994599Y-63110640D01*
X151959814Y-63005666D01*
X151867712Y-62856344D01*
X151743656Y-62732288D01*
X151594334Y-62640186D01*
X151427797Y-62585001D01*
X151427795Y-62585000D01*
X151325010Y-62574500D01*
X150649998Y-62574500D01*
X150649980Y-62574501D01*
X150547203Y-62585000D01*
X150547200Y-62585001D01*
X150380668Y-62640185D01*
X150380663Y-62640187D01*
X150231342Y-62732289D01*
X150107287Y-62856344D01*
X150073140Y-62911705D01*
X150021191Y-62958429D01*
X149991797Y-62968224D01*
X149960257Y-62974498D01*
X149866015Y-63013535D01*
X149866014Y-63013535D01*
X149841876Y-63023532D01*
X149735326Y-63094726D01*
X148622066Y-64207986D01*
X148560743Y-64241471D01*
X148514988Y-64242778D01*
X148349361Y-64216546D01*
X148150639Y-64216546D01*
X148104824Y-64223802D01*
X147952214Y-64247973D01*
X147932816Y-64249500D01*
X147548878Y-64249500D01*
X147548874Y-64249501D01*
X147506113Y-64252399D01*
X147506112Y-64252399D01*
X147321303Y-64298360D01*
X147150707Y-64382967D01*
X147150704Y-64382969D01*
X147002278Y-64502277D01*
X147002277Y-64502278D01*
X146882971Y-64650702D01*
X146882970Y-64650703D01*
X146882970Y-64650704D01*
X146818549Y-64780596D01*
X146771131Y-64831907D01*
X146707463Y-64849500D01*
X146125929Y-64849500D01*
X146011512Y-64872260D01*
X146011502Y-64872262D01*
X146000256Y-64874499D01*
X146000255Y-64874499D01*
X145881873Y-64923535D01*
X145857512Y-64939811D01*
X145802514Y-64959925D01*
X145760745Y-64964632D01*
X145590478Y-65024210D01*
X145437737Y-65120184D01*
X145310184Y-65247737D01*
X145214211Y-65400476D01*
X145154631Y-65570745D01*
X145154630Y-65570750D01*
X145134435Y-65749996D01*
X145134435Y-65750003D01*
X145154630Y-65929249D01*
X145154631Y-65929254D01*
X145214211Y-66099523D01*
X145297539Y-66232138D01*
X145310184Y-66252262D01*
X145437738Y-66379816D01*
X145505610Y-66422463D01*
X145551949Y-66451580D01*
X145590478Y-66475789D01*
X145653159Y-66497722D01*
X145760745Y-66535368D01*
X145760750Y-66535369D01*
X145939996Y-66555565D01*
X145940000Y-66555565D01*
X145940004Y-66555565D01*
X146119249Y-66535369D01*
X146119252Y-66535368D01*
X146119255Y-66535368D01*
X146289522Y-66475789D01*
X146442262Y-66379816D01*
X146569816Y-66252262D01*
X146582461Y-66232138D01*
X146597297Y-66208527D01*
X146649631Y-66162237D01*
X146702290Y-66150500D01*
X146707463Y-66150500D01*
X146774502Y-66170185D01*
X146818549Y-66219402D01*
X146882970Y-66349296D01*
X146922385Y-66398331D01*
X147002277Y-66497721D01*
X147002278Y-66497722D01*
X147071486Y-66553353D01*
X147111405Y-66610696D01*
X147113985Y-66680518D01*
X147078406Y-66740651D01*
X147071486Y-66746647D01*
X147002278Y-66802277D01*
X147002277Y-66802278D01*
X146882971Y-66950702D01*
X146882970Y-66950703D01*
X146882970Y-66950704D01*
X146818549Y-67080596D01*
X146771131Y-67131907D01*
X146707463Y-67149500D01*
X143574499Y-67149500D01*
X143507460Y-67129815D01*
X143461705Y-67077011D01*
X143450499Y-67025500D01*
X143450499Y-66341971D01*
X143450499Y-66341964D01*
X143439886Y-66222582D01*
X143383909Y-66026951D01*
X143289698Y-65846593D01*
X143233547Y-65777729D01*
X143161109Y-65688890D01*
X143003409Y-65560304D01*
X143003410Y-65560304D01*
X143003407Y-65560302D01*
X142823049Y-65466091D01*
X142690387Y-65428131D01*
X142631350Y-65390764D01*
X142601887Y-65327411D01*
X142600500Y-65308916D01*
X142600500Y-63961619D01*
X142620185Y-63894580D01*
X142636819Y-63873938D01*
X144053224Y-62457533D01*
X145514910Y-60995846D01*
X145576231Y-60962363D01*
X145645923Y-60967347D01*
X145701856Y-61009219D01*
X145713442Y-61028299D01*
X145782294Y-61137876D01*
X145810184Y-61182262D01*
X145937738Y-61309816D01*
X146090478Y-61405789D01*
X146260745Y-61465368D01*
X146260750Y-61465369D01*
X146439996Y-61485565D01*
X146440000Y-61485565D01*
X146440004Y-61485565D01*
X146619249Y-61465369D01*
X146619252Y-61465368D01*
X146619255Y-61465368D01*
X146789522Y-61405789D01*
X146942262Y-61309816D01*
X146974627Y-61277450D01*
X147030215Y-61245356D01*
X147051785Y-61239577D01*
X147101904Y-61210639D01*
X147188716Y-61160520D01*
X147300520Y-61048716D01*
X147300520Y-61048714D01*
X147310728Y-61038507D01*
X147310730Y-61038504D01*
X147646452Y-60702781D01*
X147707773Y-60669298D01*
X147774392Y-60673182D01*
X147832097Y-60692993D01*
X147880385Y-60709571D01*
X148125665Y-60750500D01*
X148374335Y-60750500D01*
X148619614Y-60709571D01*
X148854810Y-60628828D01*
X149073509Y-60510474D01*
X149269744Y-60357738D01*
X149438164Y-60174785D01*
X149574173Y-59966607D01*
X149574175Y-59966601D01*
X149574786Y-59965475D01*
X149575157Y-59965101D01*
X149576978Y-59962314D01*
X149577551Y-59962688D01*
X149624009Y-59915888D01*
X149683837Y-59900500D01*
X153316163Y-59900500D01*
X153383202Y-59920185D01*
X153422561Y-59962615D01*
X153423022Y-59962314D01*
X153424785Y-59965012D01*
X153425214Y-59965475D01*
X153425826Y-59966606D01*
X153561833Y-60174782D01*
X153561836Y-60174785D01*
X153730256Y-60357738D01*
X153926491Y-60510474D01*
X153942809Y-60519305D01*
X154072174Y-60589314D01*
X154145190Y-60628828D01*
X154380386Y-60709571D01*
X154625665Y-60750500D01*
X154874335Y-60750500D01*
X155119614Y-60709571D01*
X155354810Y-60628828D01*
X155573509Y-60510474D01*
X155769744Y-60357738D01*
X155938164Y-60174785D01*
X155985615Y-60102155D01*
X156775000Y-60102155D01*
X156775000Y-60750000D01*
X157691988Y-60750000D01*
X157659075Y-60807007D01*
X157625000Y-60934174D01*
X157625000Y-61065826D01*
X157659075Y-61192993D01*
X157691988Y-61250000D01*
X156775000Y-61250000D01*
X156775000Y-61897844D01*
X156781401Y-61957372D01*
X156781403Y-61957379D01*
X156831645Y-62092086D01*
X156831649Y-62092093D01*
X156917809Y-62207187D01*
X156917812Y-62207190D01*
X157032906Y-62293350D01*
X157032913Y-62293354D01*
X157167620Y-62343596D01*
X157167627Y-62343598D01*
X157227155Y-62349999D01*
X157227172Y-62350000D01*
X157875000Y-62350000D01*
X157875000Y-61433012D01*
X157932007Y-61465925D01*
X158059174Y-61500000D01*
X158190826Y-61500000D01*
X158317993Y-61465925D01*
X158375000Y-61433012D01*
X158375000Y-62350000D01*
X159022828Y-62350000D01*
X159022844Y-62349999D01*
X159082372Y-62343598D01*
X159082379Y-62343596D01*
X159217086Y-62293354D01*
X159217093Y-62293350D01*
X159332187Y-62207190D01*
X159332190Y-62207187D01*
X159418350Y-62092093D01*
X159418354Y-62092086D01*
X159468596Y-61957379D01*
X159468598Y-61957372D01*
X159474999Y-61897844D01*
X159475000Y-61897827D01*
X159475000Y-61250000D01*
X158558012Y-61250000D01*
X158590925Y-61192993D01*
X158625000Y-61065826D01*
X158625000Y-60934174D01*
X158590925Y-60807007D01*
X158558012Y-60750000D01*
X159475000Y-60750000D01*
X159475000Y-60102172D01*
X159474999Y-60102155D01*
X159468598Y-60042627D01*
X159468596Y-60042620D01*
X159418354Y-59907913D01*
X159418350Y-59907906D01*
X159332190Y-59792812D01*
X159332187Y-59792809D01*
X159217093Y-59706649D01*
X159217086Y-59706645D01*
X159082379Y-59656403D01*
X159082372Y-59656401D01*
X159022844Y-59650000D01*
X158375000Y-59650000D01*
X158375000Y-60566988D01*
X158317993Y-60534075D01*
X158190826Y-60500000D01*
X158059174Y-60500000D01*
X157932007Y-60534075D01*
X157875000Y-60566988D01*
X157875000Y-59650000D01*
X157227155Y-59650000D01*
X157167627Y-59656401D01*
X157167620Y-59656403D01*
X157032913Y-59706645D01*
X157032906Y-59706649D01*
X156917812Y-59792809D01*
X156917809Y-59792812D01*
X156831649Y-59907906D01*
X156831645Y-59907913D01*
X156781403Y-60042620D01*
X156781401Y-60042627D01*
X156775000Y-60102155D01*
X155985615Y-60102155D01*
X156074173Y-59966607D01*
X156174063Y-59738881D01*
X156235108Y-59497821D01*
X156235765Y-59489891D01*
X156255643Y-59250005D01*
X156255643Y-59249994D01*
X156235109Y-59002187D01*
X156235108Y-59002183D01*
X156235108Y-59002179D01*
X156233908Y-58997442D01*
X156202175Y-58872132D01*
X156188280Y-58817260D01*
X156190904Y-58747442D01*
X156220802Y-58699142D01*
X157358127Y-57561818D01*
X157419450Y-57528333D01*
X157445808Y-57525499D01*
X157662502Y-57525499D01*
X157662508Y-57525499D01*
X157765297Y-57514999D01*
X157931834Y-57459814D01*
X158081156Y-57367712D01*
X158205212Y-57243656D01*
X158297314Y-57094334D01*
X158352499Y-56927797D01*
X158363000Y-56825009D01*
X158362999Y-56174992D01*
X158362350Y-56168642D01*
X158352499Y-56072203D01*
X158352498Y-56072200D01*
X158347750Y-56057872D01*
X158297314Y-55905666D01*
X158205212Y-55756344D01*
X158081156Y-55632288D01*
X157931834Y-55540186D01*
X157765297Y-55485001D01*
X157765295Y-55485000D01*
X157662516Y-55474500D01*
X157662509Y-55474500D01*
X157654500Y-55474500D01*
X157587461Y-55454815D01*
X157541706Y-55402011D01*
X157530500Y-55350500D01*
X157530500Y-54574499D01*
X157550185Y-54507460D01*
X157602989Y-54461705D01*
X157654500Y-54450499D01*
X157739363Y-54450499D01*
X157856753Y-54435046D01*
X157856757Y-54435044D01*
X157856762Y-54435044D01*
X158002841Y-54374536D01*
X158128282Y-54278282D01*
X158224536Y-54152841D01*
X158285044Y-54006762D01*
X158300500Y-53889361D01*
X158300499Y-53610640D01*
X158300499Y-53610636D01*
X158285046Y-53493246D01*
X158285044Y-53493241D01*
X158285044Y-53493238D01*
X158224536Y-53347159D01*
X158224535Y-53347158D01*
X158224535Y-53347157D01*
X158186594Y-53297711D01*
X158170409Y-53269678D01*
X158146465Y-53211873D01*
X158145753Y-53210808D01*
X158104789Y-53149500D01*
X158087167Y-53123127D01*
X158075274Y-53105327D01*
X157664673Y-52694726D01*
X157654878Y-52688181D01*
X157558127Y-52623535D01*
X157439744Y-52574499D01*
X157439738Y-52574497D01*
X157314071Y-52549500D01*
X157314069Y-52549500D01*
X152326742Y-52549500D01*
X152326740Y-52549500D01*
X152201072Y-52574497D01*
X152201066Y-52574499D01*
X152082685Y-52623534D01*
X151976137Y-52694726D01*
X149956988Y-54713875D01*
X149895665Y-54747360D01*
X149825973Y-54742376D01*
X149770040Y-54700504D01*
X149745730Y-54636434D01*
X149734612Y-54502259D01*
X149673587Y-54261282D01*
X149573731Y-54033630D01*
X149473434Y-53880116D01*
X148773786Y-54579763D01*
X148762518Y-54537708D01*
X148690110Y-54412292D01*
X148587708Y-54309890D01*
X148462292Y-54237482D01*
X148420235Y-54226212D01*
X149120057Y-53526390D01*
X149120056Y-53526389D01*
X149073229Y-53489943D01*
X148854614Y-53371635D01*
X148854603Y-53371630D01*
X148619493Y-53290916D01*
X148374293Y-53250000D01*
X148125707Y-53250000D01*
X147880506Y-53290916D01*
X147645396Y-53371630D01*
X147645390Y-53371632D01*
X147426761Y-53489949D01*
X147379942Y-53526388D01*
X147379942Y-53526390D01*
X148079765Y-54226212D01*
X148037708Y-54237482D01*
X147912292Y-54309890D01*
X147809890Y-54412292D01*
X147737482Y-54537708D01*
X147726212Y-54579765D01*
X147026564Y-53880116D01*
X146926267Y-54033632D01*
X146826412Y-54261282D01*
X146765387Y-54502261D01*
X146765385Y-54502270D01*
X146744859Y-54749994D01*
X146744859Y-54750005D01*
X146765385Y-54997729D01*
X146765387Y-54997742D01*
X146796481Y-55120527D01*
X146793856Y-55190347D01*
X146753899Y-55247665D01*
X146689298Y-55274281D01*
X146620562Y-55261746D01*
X146588594Y-55238648D01*
X145094674Y-53744727D01*
X145094673Y-53744726D01*
X145087515Y-53739943D01*
X144988127Y-53673535D01*
X144979146Y-53669815D01*
X144869744Y-53624499D01*
X144869738Y-53624497D01*
X144744071Y-53599500D01*
X144744069Y-53599500D01*
X144164500Y-53599500D01*
X144097461Y-53579815D01*
X144051706Y-53527011D01*
X144040500Y-53475500D01*
X144040500Y-52825928D01*
X144015502Y-52700261D01*
X144015501Y-52700260D01*
X144015501Y-52700256D01*
X143966465Y-52581873D01*
X143926545Y-52522128D01*
X143922028Y-52515368D01*
X143895277Y-52475331D01*
X143051722Y-51631776D01*
X143018237Y-51570453D01*
X143016182Y-51557973D01*
X143015368Y-51550745D01*
X142955789Y-51380478D01*
X142859816Y-51227738D01*
X142732262Y-51100184D01*
X142579523Y-51004211D01*
X142409254Y-50944631D01*
X142409249Y-50944630D01*
X142230004Y-50924435D01*
X142229996Y-50924435D01*
X142050750Y-50944630D01*
X142050745Y-50944631D01*
X141880476Y-51004211D01*
X141727737Y-51100184D01*
X141600184Y-51227737D01*
X141504211Y-51380476D01*
X141444631Y-51550745D01*
X141444630Y-51550750D01*
X141424435Y-51729996D01*
X141424435Y-51730003D01*
X141444630Y-51909249D01*
X141444631Y-51909254D01*
X141504211Y-52079523D01*
X141587738Y-52212454D01*
X141600184Y-52232262D01*
X141727738Y-52359816D01*
X141880478Y-52455789D01*
X142050745Y-52515368D01*
X142057974Y-52516182D01*
X142122388Y-52543246D01*
X142131776Y-52551722D01*
X142703181Y-53123127D01*
X142736666Y-53184450D01*
X142739500Y-53210808D01*
X142739500Y-53425500D01*
X142719815Y-53492539D01*
X142667011Y-53538294D01*
X142615503Y-53549500D01*
X142580637Y-53549500D01*
X142463246Y-53564953D01*
X142463237Y-53564956D01*
X142317160Y-53625463D01*
X142191718Y-53721718D01*
X142095463Y-53847160D01*
X142034956Y-53993237D01*
X142034955Y-53993239D01*
X142019500Y-54110638D01*
X142019500Y-54389363D01*
X142034953Y-54506753D01*
X142034956Y-54506762D01*
X142090061Y-54639797D01*
X142099500Y-54687250D01*
X142099500Y-55314070D01*
X142110677Y-55370256D01*
X142110677Y-55370258D01*
X142124497Y-55439736D01*
X142124499Y-55439744D01*
X142173534Y-55558126D01*
X142191102Y-55584418D01*
X142211980Y-55651096D01*
X142212000Y-55653309D01*
X142212000Y-56075001D01*
X142212001Y-56075019D01*
X142222500Y-56177796D01*
X142222502Y-56177802D01*
X142243182Y-56240211D01*
X142245584Y-56310039D01*
X142213157Y-56366895D01*
X140550909Y-58029143D01*
X140489586Y-58062628D01*
X140422967Y-58058744D01*
X140369613Y-58040428D01*
X140124335Y-57999500D01*
X139875665Y-57999500D01*
X139630383Y-58040429D01*
X139395197Y-58121169D01*
X139395188Y-58121172D01*
X139176493Y-58239524D01*
X138980257Y-58392261D01*
X138811833Y-58575217D01*
X138675826Y-58783393D01*
X138675214Y-58784525D01*
X138674842Y-58784898D01*
X138673022Y-58787686D01*
X138672448Y-58787311D01*
X138625991Y-58834112D01*
X138566163Y-58849500D01*
X134933837Y-58849500D01*
X134866798Y-58829815D01*
X134827438Y-58787384D01*
X134826978Y-58787686D01*
X134825214Y-58784987D01*
X134824786Y-58784525D01*
X134824173Y-58783393D01*
X134688166Y-58575217D01*
X134653271Y-58537311D01*
X134519744Y-58392262D01*
X134323509Y-58239526D01*
X134323507Y-58239525D01*
X134323506Y-58239524D01*
X134104811Y-58121172D01*
X134104802Y-58121169D01*
X133869616Y-58040429D01*
X133624335Y-57999500D01*
X133375665Y-57999500D01*
X133130383Y-58040429D01*
X132895197Y-58121169D01*
X132895188Y-58121172D01*
X132676493Y-58239524D01*
X132480257Y-58392261D01*
X132311833Y-58575217D01*
X132175826Y-58783393D01*
X132075936Y-59011118D01*
X132014892Y-59252175D01*
X132014890Y-59252187D01*
X131994357Y-59499994D01*
X131994357Y-59500005D01*
X132014890Y-59747812D01*
X132014892Y-59747824D01*
X132061719Y-59932737D01*
X132059094Y-60002557D01*
X132029194Y-60050858D01*
X129962180Y-62117873D01*
X129900857Y-62151358D01*
X129831165Y-62146374D01*
X129775232Y-62104502D01*
X129750815Y-62039038D01*
X129750499Y-62030192D01*
X129750499Y-61412129D01*
X129750498Y-61412123D01*
X129750497Y-61412116D01*
X129744091Y-61352517D01*
X129731340Y-61318332D01*
X129726357Y-61248642D01*
X129731340Y-61231669D01*
X129744091Y-61197483D01*
X129750500Y-61137873D01*
X129750499Y-60142128D01*
X129744091Y-60082517D01*
X129731340Y-60048332D01*
X129726357Y-59978642D01*
X129731340Y-59961669D01*
X129744091Y-59927483D01*
X129750500Y-59867873D01*
X129750499Y-58872128D01*
X129744091Y-58812517D01*
X129731340Y-58778332D01*
X129726357Y-58708642D01*
X129731340Y-58691669D01*
X129744091Y-58657483D01*
X129750500Y-58597873D01*
X129750499Y-57602128D01*
X129747583Y-57575001D01*
X129746804Y-57567753D01*
X129759211Y-57498994D01*
X129806822Y-57447857D01*
X129870094Y-57430500D01*
X130450429Y-57430500D01*
X130504239Y-57442784D01*
X130510477Y-57445788D01*
X130510478Y-57445789D01*
X130565380Y-57465000D01*
X130680745Y-57505368D01*
X130680750Y-57505369D01*
X130859996Y-57525565D01*
X130860000Y-57525565D01*
X130860004Y-57525565D01*
X131039249Y-57505369D01*
X131039252Y-57505368D01*
X131039255Y-57505368D01*
X131209522Y-57445789D01*
X131362262Y-57349816D01*
X131489816Y-57222262D01*
X131585789Y-57069522D01*
X131645368Y-56899255D01*
X131653733Y-56825016D01*
X131665565Y-56720003D01*
X131665565Y-56719996D01*
X131645369Y-56540750D01*
X131645366Y-56540737D01*
X131601672Y-56415868D01*
X131598110Y-56346089D01*
X131632838Y-56285462D01*
X131654304Y-56270574D01*
X131653626Y-56269494D01*
X131714180Y-56231445D01*
X131812262Y-56169816D01*
X131939816Y-56042262D01*
X132035789Y-55889522D01*
X132041091Y-55874369D01*
X132081811Y-55817594D01*
X132146763Y-55791845D01*
X132215325Y-55805300D01*
X132261942Y-55847501D01*
X132276564Y-55869882D01*
X132976212Y-55170234D01*
X132987482Y-55212292D01*
X133059890Y-55337708D01*
X133162292Y-55440110D01*
X133287708Y-55512518D01*
X133329765Y-55523787D01*
X132629942Y-56223609D01*
X132676768Y-56260055D01*
X132676770Y-56260056D01*
X132895385Y-56378364D01*
X132895396Y-56378369D01*
X133130506Y-56459083D01*
X133375707Y-56500000D01*
X133624293Y-56500000D01*
X133869493Y-56459083D01*
X134104603Y-56378369D01*
X134104614Y-56378364D01*
X134323228Y-56260057D01*
X134323231Y-56260055D01*
X134370056Y-56223609D01*
X133670234Y-55523787D01*
X133712292Y-55512518D01*
X133837708Y-55440110D01*
X133940110Y-55337708D01*
X134012518Y-55212292D01*
X134023787Y-55170234D01*
X134723434Y-55869882D01*
X134823731Y-55716369D01*
X134923587Y-55488717D01*
X134984612Y-55247738D01*
X134984614Y-55247729D01*
X135005141Y-55000005D01*
X135005141Y-54999994D01*
X138494859Y-54999994D01*
X138494859Y-55000005D01*
X138515385Y-55247729D01*
X138515387Y-55247738D01*
X138576412Y-55488717D01*
X138676266Y-55716364D01*
X138776564Y-55869882D01*
X139476212Y-55170234D01*
X139487482Y-55212292D01*
X139559890Y-55337708D01*
X139662292Y-55440110D01*
X139787708Y-55512518D01*
X139829765Y-55523787D01*
X139129942Y-56223609D01*
X139176768Y-56260055D01*
X139176770Y-56260056D01*
X139395385Y-56378364D01*
X139395396Y-56378369D01*
X139630506Y-56459083D01*
X139875707Y-56500000D01*
X140124293Y-56500000D01*
X140369493Y-56459083D01*
X140604603Y-56378369D01*
X140604614Y-56378364D01*
X140823228Y-56260057D01*
X140823231Y-56260055D01*
X140870056Y-56223609D01*
X140170234Y-55523787D01*
X140212292Y-55512518D01*
X140337708Y-55440110D01*
X140440110Y-55337708D01*
X140512518Y-55212292D01*
X140523787Y-55170235D01*
X141223434Y-55869882D01*
X141323731Y-55716369D01*
X141423587Y-55488717D01*
X141484612Y-55247738D01*
X141484614Y-55247729D01*
X141505141Y-55000005D01*
X141505141Y-54999994D01*
X141484614Y-54752270D01*
X141484612Y-54752261D01*
X141423587Y-54511282D01*
X141323731Y-54283630D01*
X141223434Y-54130116D01*
X140523787Y-54829764D01*
X140512518Y-54787708D01*
X140440110Y-54662292D01*
X140337708Y-54559890D01*
X140212292Y-54487482D01*
X140170235Y-54476212D01*
X140870057Y-53776390D01*
X140870056Y-53776389D01*
X140823229Y-53739943D01*
X140604614Y-53621635D01*
X140604603Y-53621630D01*
X140369493Y-53540916D01*
X140124293Y-53500000D01*
X139875707Y-53500000D01*
X139630506Y-53540916D01*
X139395396Y-53621630D01*
X139395390Y-53621632D01*
X139176761Y-53739949D01*
X139129942Y-53776388D01*
X139129942Y-53776390D01*
X139829765Y-54476212D01*
X139787708Y-54487482D01*
X139662292Y-54559890D01*
X139559890Y-54662292D01*
X139487482Y-54787708D01*
X139476212Y-54829764D01*
X138776564Y-54130116D01*
X138676267Y-54283632D01*
X138576412Y-54511282D01*
X138515387Y-54752261D01*
X138515385Y-54752270D01*
X138494859Y-54999994D01*
X135005141Y-54999994D01*
X134984614Y-54752270D01*
X134984612Y-54752261D01*
X134923587Y-54511282D01*
X134823731Y-54283630D01*
X134723434Y-54130116D01*
X134023787Y-54829764D01*
X134012518Y-54787708D01*
X133940110Y-54662292D01*
X133837708Y-54559890D01*
X133712292Y-54487482D01*
X133670235Y-54476212D01*
X134370057Y-53776390D01*
X134370056Y-53776389D01*
X134323229Y-53739943D01*
X134104614Y-53621635D01*
X134104603Y-53621630D01*
X133869493Y-53540916D01*
X133624293Y-53500000D01*
X133375707Y-53500000D01*
X133130506Y-53540916D01*
X132895396Y-53621630D01*
X132895390Y-53621632D01*
X132676761Y-53739949D01*
X132629942Y-53776388D01*
X132629942Y-53776390D01*
X133329765Y-54476212D01*
X133287708Y-54487482D01*
X133162292Y-54559890D01*
X133059890Y-54662292D01*
X132987482Y-54787708D01*
X132976212Y-54829764D01*
X132276564Y-54130116D01*
X132176267Y-54283632D01*
X132076412Y-54511282D01*
X132015387Y-54752261D01*
X132015385Y-54752269D01*
X132009712Y-54820736D01*
X131984558Y-54885921D01*
X131928156Y-54927158D01*
X131858413Y-54931356D01*
X131819096Y-54912394D01*
X131818158Y-54913889D01*
X131808558Y-54907857D01*
X131763322Y-54879433D01*
X131659523Y-54814211D01*
X131489254Y-54754631D01*
X131489249Y-54754630D01*
X131310004Y-54734435D01*
X131309996Y-54734435D01*
X131130750Y-54754630D01*
X131130745Y-54754631D01*
X130960476Y-54814211D01*
X130807737Y-54910184D01*
X130794741Y-54923181D01*
X130733418Y-54956666D01*
X130707060Y-54959500D01*
X129870094Y-54959500D01*
X129803055Y-54939815D01*
X129757300Y-54887011D01*
X129746804Y-54822246D01*
X129750500Y-54787873D01*
X129750499Y-53792128D01*
X129744091Y-53732517D01*
X129731340Y-53698332D01*
X129726357Y-53628642D01*
X129731340Y-53611669D01*
X129744091Y-53577483D01*
X129750500Y-53517873D01*
X129750499Y-52522128D01*
X129744091Y-52462517D01*
X129741581Y-52455788D01*
X129693797Y-52327671D01*
X129693793Y-52327664D01*
X129607547Y-52212455D01*
X129607544Y-52212452D01*
X129492335Y-52126206D01*
X129492328Y-52126202D01*
X129357482Y-52075908D01*
X129357483Y-52075908D01*
X129297883Y-52069501D01*
X129297881Y-52069500D01*
X129297873Y-52069500D01*
X129297864Y-52069500D01*
X127702129Y-52069500D01*
X127702123Y-52069501D01*
X127642516Y-52075908D01*
X127507671Y-52126202D01*
X127507664Y-52126206D01*
X127392455Y-52212452D01*
X127392452Y-52212455D01*
X127306206Y-52327664D01*
X127306202Y-52327671D01*
X127255908Y-52462517D01*
X127249501Y-52522116D01*
X127249500Y-52522129D01*
X127249500Y-53517870D01*
X127249501Y-53517876D01*
X127255908Y-53577481D01*
X127268659Y-53611669D01*
X127273642Y-53681361D01*
X127268659Y-53698331D01*
X127255908Y-53732518D01*
X127251192Y-53776388D01*
X127249501Y-53792123D01*
X127249500Y-53792135D01*
X127249500Y-54787870D01*
X127249501Y-54787876D01*
X127255908Y-54847481D01*
X127268659Y-54881669D01*
X127273642Y-54951361D01*
X127268659Y-54968331D01*
X127255908Y-55002518D01*
X127252122Y-55037738D01*
X127249501Y-55062123D01*
X127249500Y-55062135D01*
X127249500Y-56057870D01*
X127249501Y-56057876D01*
X127255908Y-56117481D01*
X127268659Y-56151669D01*
X127273642Y-56221361D01*
X127268659Y-56238331D01*
X127255908Y-56272518D01*
X127250536Y-56322489D01*
X127249501Y-56332123D01*
X127249500Y-56332135D01*
X127249500Y-57327870D01*
X127249501Y-57327876D01*
X127255908Y-57387481D01*
X127268659Y-57421669D01*
X127273642Y-57491361D01*
X127268659Y-57508331D01*
X127255908Y-57542518D01*
X127251835Y-57580405D01*
X127249501Y-57602123D01*
X127249500Y-57602135D01*
X127249500Y-58597870D01*
X127249501Y-58597876D01*
X127255908Y-58657481D01*
X127268659Y-58691669D01*
X127273642Y-58761361D01*
X127268659Y-58778331D01*
X127255908Y-58812518D01*
X127249501Y-58872116D01*
X127249501Y-58872123D01*
X127249500Y-58872135D01*
X127249500Y-59867870D01*
X127249501Y-59867871D01*
X127255908Y-59927481D01*
X127268659Y-59961669D01*
X127273642Y-60031361D01*
X127268659Y-60048331D01*
X127255908Y-60082518D01*
X127252593Y-60113355D01*
X127249501Y-60142123D01*
X127249500Y-60142135D01*
X127249500Y-61137870D01*
X127249501Y-61137876D01*
X127255908Y-61197481D01*
X127268659Y-61231669D01*
X127273642Y-61301361D01*
X127268659Y-61318331D01*
X127255908Y-61352518D01*
X127250181Y-61405789D01*
X127249501Y-61412123D01*
X127249500Y-61412135D01*
X127249500Y-62407870D01*
X127249501Y-62407876D01*
X127255908Y-62467481D01*
X127268659Y-62501669D01*
X127273642Y-62571361D01*
X127268659Y-62588331D01*
X127255908Y-62622518D01*
X127254009Y-62640185D01*
X127249501Y-62682123D01*
X127249500Y-62682135D01*
X127249500Y-63677870D01*
X127249501Y-63677876D01*
X127255908Y-63737481D01*
X127268659Y-63771669D01*
X127273642Y-63841361D01*
X127268659Y-63858331D01*
X127255908Y-63892518D01*
X127249782Y-63949500D01*
X127249501Y-63952123D01*
X127249500Y-63952135D01*
X127249500Y-64947870D01*
X127249501Y-64947876D01*
X127255908Y-65007481D01*
X127268659Y-65041669D01*
X127273642Y-65111361D01*
X127268659Y-65128331D01*
X127255908Y-65162518D01*
X127250077Y-65216760D01*
X127249501Y-65222123D01*
X127249500Y-65222135D01*
X127249500Y-66217870D01*
X127249501Y-66217876D01*
X127255908Y-66277481D01*
X127268659Y-66311669D01*
X127273642Y-66381361D01*
X127268659Y-66398331D01*
X127255908Y-66432518D01*
X127251092Y-66477317D01*
X127249501Y-66492123D01*
X127249500Y-66492135D01*
X127249500Y-67487870D01*
X127249501Y-67487876D01*
X127255908Y-67547481D01*
X127268659Y-67581669D01*
X127273642Y-67651361D01*
X127268659Y-67668331D01*
X127255908Y-67702518D01*
X127250077Y-67756762D01*
X127249501Y-67762123D01*
X127249500Y-67762135D01*
X127249500Y-68135500D01*
X127229815Y-68202539D01*
X127177011Y-68248294D01*
X127125500Y-68259500D01*
X126237129Y-68259500D01*
X126237123Y-68259501D01*
X126177518Y-68265908D01*
X126143331Y-68278659D01*
X126073639Y-68283642D01*
X126056669Y-68278659D01*
X126039140Y-68272121D01*
X126022483Y-68265909D01*
X126022482Y-68265908D01*
X125962883Y-68259501D01*
X125962881Y-68259500D01*
X125962873Y-68259500D01*
X125962864Y-68259500D01*
X124967129Y-68259500D01*
X124967123Y-68259501D01*
X124907518Y-68265908D01*
X124873331Y-68278659D01*
X124803639Y-68283642D01*
X124786669Y-68278659D01*
X124769140Y-68272121D01*
X124752483Y-68265909D01*
X124752482Y-68265908D01*
X124692883Y-68259501D01*
X124692881Y-68259500D01*
X124692873Y-68259500D01*
X124692864Y-68259500D01*
X123697129Y-68259500D01*
X123697115Y-68259501D01*
X123669124Y-68262510D01*
X123600365Y-68250102D01*
X123549230Y-68202489D01*
X123531953Y-68134789D01*
X123550881Y-68073247D01*
X123565789Y-68049522D01*
X123625368Y-67879255D01*
X123630046Y-67837737D01*
X123645565Y-67700003D01*
X123645565Y-67699996D01*
X123625369Y-67520750D01*
X123625368Y-67520745D01*
X123613865Y-67487872D01*
X123565789Y-67350478D01*
X123559676Y-67340750D01*
X123498406Y-67243239D01*
X123469816Y-67197738D01*
X123342262Y-67070184D01*
X123189523Y-66974211D01*
X123019254Y-66914631D01*
X123019249Y-66914630D01*
X122840004Y-66894435D01*
X122839996Y-66894435D01*
X122660750Y-66914630D01*
X122660745Y-66914631D01*
X122490476Y-66974211D01*
X122337737Y-67070184D01*
X122210184Y-67197737D01*
X122114211Y-67350476D01*
X122054631Y-67520745D01*
X122054630Y-67520750D01*
X122034435Y-67699996D01*
X122034435Y-67700003D01*
X122054630Y-67879249D01*
X122054631Y-67879254D01*
X122114212Y-68049525D01*
X122126781Y-68069529D01*
X122145781Y-68136766D01*
X122125413Y-68203601D01*
X122072144Y-68248814D01*
X122021787Y-68259500D01*
X121157129Y-68259500D01*
X121157123Y-68259501D01*
X121097518Y-68265908D01*
X121063331Y-68278659D01*
X120993639Y-68283642D01*
X120976669Y-68278659D01*
X120959140Y-68272121D01*
X120942483Y-68265909D01*
X120942482Y-68265908D01*
X120882883Y-68259501D01*
X120882881Y-68259500D01*
X120882873Y-68259500D01*
X120882864Y-68259500D01*
X119887129Y-68259500D01*
X119887123Y-68259501D01*
X119827518Y-68265908D01*
X119793331Y-68278659D01*
X119723639Y-68283642D01*
X119706669Y-68278659D01*
X119689140Y-68272121D01*
X119672483Y-68265909D01*
X119672482Y-68265908D01*
X119612883Y-68259501D01*
X119612881Y-68259500D01*
X119612873Y-68259500D01*
X119612864Y-68259500D01*
X118617129Y-68259500D01*
X118617123Y-68259501D01*
X118557518Y-68265908D01*
X118523331Y-68278659D01*
X118453639Y-68283642D01*
X118436669Y-68278659D01*
X118419140Y-68272121D01*
X118402483Y-68265909D01*
X118402482Y-68265908D01*
X118342883Y-68259501D01*
X118342881Y-68259500D01*
X118342873Y-68259500D01*
X118342864Y-68259500D01*
X117347129Y-68259500D01*
X117347123Y-68259501D01*
X117287518Y-68265908D01*
X117253331Y-68278659D01*
X117183639Y-68283642D01*
X117166669Y-68278659D01*
X117149140Y-68272121D01*
X117132483Y-68265909D01*
X117132482Y-68265908D01*
X117072883Y-68259501D01*
X117072881Y-68259500D01*
X117072873Y-68259500D01*
X117072864Y-68259500D01*
X116077129Y-68259500D01*
X116077123Y-68259501D01*
X116017518Y-68265908D01*
X115983331Y-68278659D01*
X115913639Y-68283642D01*
X115896669Y-68278659D01*
X115879140Y-68272121D01*
X115862483Y-68265909D01*
X115862482Y-68265908D01*
X115802883Y-68259501D01*
X115802881Y-68259500D01*
X115802873Y-68259500D01*
X115802864Y-68259500D01*
X114807129Y-68259500D01*
X114807123Y-68259501D01*
X114747518Y-68265908D01*
X114713331Y-68278659D01*
X114643639Y-68283642D01*
X114626669Y-68278659D01*
X114609140Y-68272121D01*
X114592483Y-68265909D01*
X114592482Y-68265908D01*
X114532883Y-68259501D01*
X114532881Y-68259500D01*
X114532873Y-68259500D01*
X114532864Y-68259500D01*
X113537129Y-68259500D01*
X113537123Y-68259501D01*
X113477518Y-68265908D01*
X113443331Y-68278659D01*
X113373639Y-68283642D01*
X113356669Y-68278659D01*
X113339140Y-68272121D01*
X113322483Y-68265909D01*
X113322482Y-68265908D01*
X113262883Y-68259501D01*
X113262881Y-68259500D01*
X113262873Y-68259500D01*
X113262865Y-68259500D01*
X112374499Y-68259500D01*
X112307460Y-68239815D01*
X112261705Y-68187011D01*
X112250499Y-68135500D01*
X112250499Y-67762129D01*
X112250498Y-67762123D01*
X112250497Y-67762116D01*
X112244091Y-67702517D01*
X112231340Y-67668332D01*
X112226357Y-67598642D01*
X112231340Y-67581669D01*
X112244091Y-67547483D01*
X112250500Y-67487873D01*
X112250499Y-66492128D01*
X112244091Y-66432517D01*
X112231340Y-66398332D01*
X112226357Y-66328642D01*
X112231340Y-66311669D01*
X112244091Y-66277483D01*
X112250500Y-66217873D01*
X112250499Y-65222128D01*
X112244091Y-65162517D01*
X112231340Y-65128332D01*
X112226357Y-65058642D01*
X112231340Y-65041669D01*
X112244091Y-65007483D01*
X112250500Y-64947873D01*
X112250499Y-63952128D01*
X112244091Y-63892517D01*
X112231340Y-63858332D01*
X112226357Y-63788642D01*
X112231340Y-63771669D01*
X112244091Y-63737483D01*
X112250500Y-63677873D01*
X112250499Y-62682128D01*
X112244091Y-62622517D01*
X112231340Y-62588332D01*
X112226357Y-62518642D01*
X112231340Y-62501669D01*
X112244091Y-62467483D01*
X112250500Y-62407873D01*
X112250499Y-61586660D01*
X117186892Y-61586660D01*
X117186892Y-61586661D01*
X117200692Y-61595333D01*
X117200691Y-61595333D01*
X117370861Y-61654878D01*
X117549997Y-61675062D01*
X117550003Y-61675062D01*
X117729138Y-61654878D01*
X117729141Y-61654877D01*
X117899305Y-61595334D01*
X117899306Y-61595334D01*
X117913106Y-61586661D01*
X117913106Y-61586660D01*
X118586892Y-61586660D01*
X118586892Y-61586661D01*
X118600692Y-61595333D01*
X118600691Y-61595333D01*
X118770861Y-61654878D01*
X118949997Y-61675062D01*
X118950003Y-61675062D01*
X119129138Y-61654878D01*
X119129141Y-61654877D01*
X119299305Y-61595334D01*
X119299306Y-61595334D01*
X119313106Y-61586661D01*
X119313106Y-61586660D01*
X118950001Y-61223553D01*
X118950000Y-61223553D01*
X118586892Y-61586660D01*
X117913106Y-61586660D01*
X117550001Y-61223553D01*
X117550000Y-61223553D01*
X117186892Y-61586660D01*
X112250499Y-61586660D01*
X112250499Y-61412128D01*
X112244091Y-61352517D01*
X112231340Y-61318332D01*
X112226357Y-61248642D01*
X112231340Y-61231669D01*
X112244091Y-61197483D01*
X112250500Y-61137873D01*
X112250500Y-60886660D01*
X116486892Y-60886660D01*
X116486892Y-60886661D01*
X116500692Y-60895333D01*
X116500691Y-60895333D01*
X116670862Y-60954878D01*
X116671644Y-60955057D01*
X116672097Y-60955310D01*
X116677431Y-60957177D01*
X116677104Y-60958111D01*
X116732623Y-60989166D01*
X116761952Y-61042874D01*
X116762822Y-61042570D01*
X116764670Y-61047852D01*
X116764940Y-61048346D01*
X116765121Y-61049142D01*
X116824663Y-61219300D01*
X116824663Y-61219301D01*
X116833338Y-61233107D01*
X117196446Y-60870000D01*
X117176555Y-60850109D01*
X117450000Y-60850109D01*
X117450000Y-60889891D01*
X117465224Y-60926645D01*
X117493355Y-60954776D01*
X117530109Y-60970000D01*
X117569891Y-60970000D01*
X117606645Y-60954776D01*
X117634776Y-60926645D01*
X117650000Y-60889891D01*
X117650000Y-60869999D01*
X117903553Y-60869999D01*
X117903553Y-60870000D01*
X118250000Y-61216446D01*
X118250001Y-61216446D01*
X118596446Y-60870000D01*
X118576555Y-60850109D01*
X118850000Y-60850109D01*
X118850000Y-60889891D01*
X118865224Y-60926645D01*
X118893355Y-60954776D01*
X118930109Y-60970000D01*
X118969891Y-60970000D01*
X119006645Y-60954776D01*
X119034776Y-60926645D01*
X119050000Y-60889891D01*
X119050000Y-60869999D01*
X119303553Y-60869999D01*
X119303553Y-60870000D01*
X119666660Y-61233106D01*
X119666661Y-61233106D01*
X119675334Y-61219306D01*
X119675334Y-61219305D01*
X119734876Y-61049144D01*
X119735056Y-61048358D01*
X119735311Y-61047901D01*
X119737177Y-61042570D01*
X119738110Y-61042896D01*
X119769164Y-60987379D01*
X119822875Y-60958049D01*
X119822570Y-60957177D01*
X119827870Y-60955322D01*
X119828358Y-60955056D01*
X119829144Y-60954876D01*
X119999305Y-60895334D01*
X119999306Y-60895334D01*
X120013106Y-60886661D01*
X120013106Y-60886660D01*
X119650000Y-60523553D01*
X119584240Y-60589314D01*
X119584239Y-60589314D01*
X119303553Y-60869999D01*
X119050000Y-60869999D01*
X119050000Y-60850109D01*
X119034776Y-60813355D01*
X119006645Y-60785224D01*
X118969891Y-60770000D01*
X118930109Y-60770000D01*
X118893355Y-60785224D01*
X118865224Y-60813355D01*
X118850000Y-60850109D01*
X118576555Y-60850109D01*
X118315760Y-60589314D01*
X118250000Y-60523553D01*
X118184240Y-60589314D01*
X118184239Y-60589314D01*
X117903553Y-60869999D01*
X117650000Y-60869999D01*
X117650000Y-60850109D01*
X117634776Y-60813355D01*
X117606645Y-60785224D01*
X117569891Y-60770000D01*
X117530109Y-60770000D01*
X117493355Y-60785224D01*
X117465224Y-60813355D01*
X117450000Y-60850109D01*
X117176555Y-60850109D01*
X116849999Y-60523553D01*
X116849998Y-60523553D01*
X116486892Y-60886660D01*
X112250500Y-60886660D01*
X112250499Y-60169997D01*
X116044938Y-60169997D01*
X116044938Y-60170002D01*
X116065121Y-60349138D01*
X116124665Y-60519304D01*
X116133338Y-60533107D01*
X116496446Y-60170000D01*
X116496446Y-60169999D01*
X116476556Y-60150109D01*
X116750000Y-60150109D01*
X116750000Y-60189891D01*
X116765224Y-60226645D01*
X116793355Y-60254776D01*
X116830109Y-60270000D01*
X116869891Y-60270000D01*
X116906645Y-60254776D01*
X116934776Y-60226645D01*
X116950000Y-60189891D01*
X116950000Y-60170000D01*
X117203553Y-60170000D01*
X117250161Y-60216607D01*
X117550000Y-60516446D01*
X117896446Y-60170000D01*
X117876555Y-60150109D01*
X118150000Y-60150109D01*
X118150000Y-60189891D01*
X118165224Y-60226645D01*
X118193355Y-60254776D01*
X118230109Y-60270000D01*
X118269891Y-60270000D01*
X118306645Y-60254776D01*
X118334776Y-60226645D01*
X118350000Y-60189891D01*
X118350000Y-60170000D01*
X118603553Y-60170000D01*
X118650161Y-60216607D01*
X118950000Y-60516446D01*
X119296446Y-60170000D01*
X119276555Y-60150109D01*
X119550000Y-60150109D01*
X119550000Y-60189891D01*
X119565224Y-60226645D01*
X119593355Y-60254776D01*
X119630109Y-60270000D01*
X119669891Y-60270000D01*
X119706645Y-60254776D01*
X119734776Y-60226645D01*
X119750000Y-60189891D01*
X119750000Y-60170000D01*
X120003552Y-60170000D01*
X120366660Y-60533106D01*
X120366661Y-60533106D01*
X120375334Y-60519306D01*
X120375334Y-60519305D01*
X120434877Y-60349141D01*
X120434878Y-60349138D01*
X120455062Y-60170002D01*
X120455062Y-60169997D01*
X120434878Y-59990861D01*
X120375333Y-59820692D01*
X120366661Y-59806892D01*
X120366660Y-59806892D01*
X120003552Y-60170000D01*
X119750000Y-60170000D01*
X119750000Y-60150109D01*
X119734776Y-60113355D01*
X119706645Y-60085224D01*
X119669891Y-60070000D01*
X119630109Y-60070000D01*
X119593355Y-60085224D01*
X119565224Y-60113355D01*
X119550000Y-60150109D01*
X119276555Y-60150109D01*
X118994317Y-59867871D01*
X118950000Y-59823553D01*
X118905683Y-59867871D01*
X118905682Y-59867872D01*
X118603553Y-60170000D01*
X118350000Y-60170000D01*
X118350000Y-60150109D01*
X118334776Y-60113355D01*
X118306645Y-60085224D01*
X118269891Y-60070000D01*
X118230109Y-60070000D01*
X118193355Y-60085224D01*
X118165224Y-60113355D01*
X118150000Y-60150109D01*
X117876555Y-60150109D01*
X117594317Y-59867871D01*
X117550000Y-59823553D01*
X117505683Y-59867871D01*
X117505682Y-59867872D01*
X117203553Y-60170000D01*
X116950000Y-60170000D01*
X116950000Y-60150109D01*
X116934776Y-60113355D01*
X116906645Y-60085224D01*
X116869891Y-60070000D01*
X116830109Y-60070000D01*
X116793355Y-60085224D01*
X116765224Y-60113355D01*
X116750000Y-60150109D01*
X116476556Y-60150109D01*
X116133338Y-59806891D01*
X116133337Y-59806891D01*
X116124667Y-59820691D01*
X116124662Y-59820701D01*
X116065122Y-59990858D01*
X116065121Y-59990861D01*
X116044938Y-60169997D01*
X112250499Y-60169997D01*
X112250499Y-60142128D01*
X112244091Y-60082517D01*
X112231340Y-60048332D01*
X112226357Y-59978642D01*
X112231340Y-59961669D01*
X112244091Y-59927483D01*
X112250500Y-59867873D01*
X112250500Y-59469999D01*
X116503553Y-59469999D01*
X116503553Y-59470000D01*
X116849998Y-59816446D01*
X116849999Y-59816446D01*
X117125869Y-59540577D01*
X117196446Y-59470000D01*
X117176555Y-59450109D01*
X117450000Y-59450109D01*
X117450000Y-59489891D01*
X117465224Y-59526645D01*
X117493355Y-59554776D01*
X117530109Y-59570000D01*
X117569891Y-59570000D01*
X117606645Y-59554776D01*
X117634776Y-59526645D01*
X117650000Y-59489891D01*
X117650000Y-59469999D01*
X117903553Y-59469999D01*
X118250000Y-59816446D01*
X118596446Y-59470000D01*
X118576555Y-59450109D01*
X118850000Y-59450109D01*
X118850000Y-59489891D01*
X118865224Y-59526645D01*
X118893355Y-59554776D01*
X118930109Y-59570000D01*
X118969891Y-59570000D01*
X119006645Y-59554776D01*
X119034776Y-59526645D01*
X119050000Y-59489891D01*
X119050000Y-59469999D01*
X119303553Y-59469999D01*
X119650000Y-59816446D01*
X119996446Y-59470000D01*
X119996446Y-59469999D01*
X119650000Y-59123553D01*
X119584240Y-59189314D01*
X119584239Y-59189314D01*
X119303553Y-59469999D01*
X119050000Y-59469999D01*
X119050000Y-59450109D01*
X119034776Y-59413355D01*
X119006645Y-59385224D01*
X118969891Y-59370000D01*
X118930109Y-59370000D01*
X118893355Y-59385224D01*
X118865224Y-59413355D01*
X118850000Y-59450109D01*
X118576555Y-59450109D01*
X118315760Y-59189314D01*
X118250000Y-59123553D01*
X118184240Y-59189314D01*
X118184239Y-59189314D01*
X117903553Y-59469999D01*
X117650000Y-59469999D01*
X117650000Y-59450109D01*
X117634776Y-59413355D01*
X117606645Y-59385224D01*
X117569891Y-59370000D01*
X117530109Y-59370000D01*
X117493355Y-59385224D01*
X117465224Y-59413355D01*
X117450000Y-59450109D01*
X117176555Y-59450109D01*
X116849999Y-59123553D01*
X116849998Y-59123553D01*
X116503553Y-59469999D01*
X112250500Y-59469999D01*
X112250499Y-58872128D01*
X112244091Y-58812517D01*
X112231340Y-58778332D01*
X112230744Y-58769997D01*
X116044938Y-58769997D01*
X116044938Y-58770002D01*
X116065121Y-58949138D01*
X116124665Y-59119304D01*
X116133338Y-59133107D01*
X116496446Y-58770000D01*
X116496446Y-58769999D01*
X116476556Y-58750109D01*
X116750000Y-58750109D01*
X116750000Y-58789891D01*
X116765224Y-58826645D01*
X116793355Y-58854776D01*
X116830109Y-58870000D01*
X116869891Y-58870000D01*
X116906645Y-58854776D01*
X116934776Y-58826645D01*
X116950000Y-58789891D01*
X116950000Y-58769999D01*
X117203553Y-58769999D01*
X117246071Y-58812516D01*
X117246072Y-58812518D01*
X117550000Y-59116446D01*
X117896446Y-58770000D01*
X117876555Y-58750109D01*
X118150000Y-58750109D01*
X118150000Y-58789891D01*
X118165224Y-58826645D01*
X118193355Y-58854776D01*
X118230109Y-58870000D01*
X118269891Y-58870000D01*
X118306645Y-58854776D01*
X118334776Y-58826645D01*
X118350000Y-58789891D01*
X118350000Y-58769999D01*
X118603553Y-58769999D01*
X118646071Y-58812516D01*
X118646072Y-58812518D01*
X118950000Y-59116446D01*
X119296446Y-58770000D01*
X119276555Y-58750109D01*
X119550000Y-58750109D01*
X119550000Y-58789891D01*
X119565224Y-58826645D01*
X119593355Y-58854776D01*
X119630109Y-58870000D01*
X119669891Y-58870000D01*
X119706645Y-58854776D01*
X119734776Y-58826645D01*
X119750000Y-58789891D01*
X119750000Y-58770000D01*
X120003553Y-58770000D01*
X120366660Y-59133106D01*
X120366661Y-59133106D01*
X120375334Y-59119306D01*
X120375334Y-59119305D01*
X120434878Y-58949140D01*
X120434878Y-58949138D01*
X120455062Y-58770002D01*
X120455062Y-58769997D01*
X120434878Y-58590861D01*
X120375333Y-58420692D01*
X120366661Y-58406892D01*
X120366660Y-58406892D01*
X120003553Y-58770000D01*
X119750000Y-58770000D01*
X119750000Y-58750109D01*
X119734776Y-58713355D01*
X119706645Y-58685224D01*
X119669891Y-58670000D01*
X119630109Y-58670000D01*
X119593355Y-58685224D01*
X119565224Y-58713355D01*
X119550000Y-58750109D01*
X119276555Y-58750109D01*
X119015760Y-58489314D01*
X118950000Y-58423553D01*
X118884240Y-58489314D01*
X118884239Y-58489314D01*
X118603553Y-58769999D01*
X118350000Y-58769999D01*
X118350000Y-58750109D01*
X118334776Y-58713355D01*
X118306645Y-58685224D01*
X118269891Y-58670000D01*
X118230109Y-58670000D01*
X118193355Y-58685224D01*
X118165224Y-58713355D01*
X118150000Y-58750109D01*
X117876555Y-58750109D01*
X117615760Y-58489314D01*
X117550000Y-58423553D01*
X117484240Y-58489314D01*
X117484239Y-58489314D01*
X117203553Y-58769999D01*
X116950000Y-58769999D01*
X116950000Y-58750109D01*
X116934776Y-58713355D01*
X116906645Y-58685224D01*
X116869891Y-58670000D01*
X116830109Y-58670000D01*
X116793355Y-58685224D01*
X116765224Y-58713355D01*
X116750000Y-58750109D01*
X116476556Y-58750109D01*
X116133338Y-58406891D01*
X116133337Y-58406891D01*
X116124667Y-58420691D01*
X116124662Y-58420701D01*
X116065122Y-58590858D01*
X116065121Y-58590861D01*
X116044938Y-58769997D01*
X112230744Y-58769997D01*
X112226357Y-58708642D01*
X112231340Y-58691669D01*
X112244091Y-58657483D01*
X112250500Y-58597873D01*
X112250499Y-58053337D01*
X116486891Y-58053337D01*
X116486891Y-58053338D01*
X116849998Y-58416446D01*
X117148735Y-58117711D01*
X117196446Y-58069998D01*
X117176557Y-58050109D01*
X117450000Y-58050109D01*
X117450000Y-58089891D01*
X117465224Y-58126645D01*
X117493355Y-58154776D01*
X117530109Y-58170000D01*
X117569891Y-58170000D01*
X117606645Y-58154776D01*
X117634776Y-58126645D01*
X117650000Y-58089891D01*
X117650000Y-58069998D01*
X117903553Y-58069998D01*
X117903553Y-58069999D01*
X118250000Y-58416446D01*
X118548733Y-58117713D01*
X118596446Y-58069998D01*
X118576557Y-58050109D01*
X118850000Y-58050109D01*
X118850000Y-58089891D01*
X118865224Y-58126645D01*
X118893355Y-58154776D01*
X118930109Y-58170000D01*
X118969891Y-58170000D01*
X119006645Y-58154776D01*
X119034776Y-58126645D01*
X119050000Y-58089891D01*
X119050000Y-58069998D01*
X119303553Y-58069998D01*
X119303553Y-58069999D01*
X119650000Y-58416446D01*
X119650001Y-58416446D01*
X120013107Y-58053338D01*
X119999301Y-58044663D01*
X119829142Y-57985121D01*
X119828346Y-57984940D01*
X119827883Y-57984681D01*
X119822570Y-57982822D01*
X119822895Y-57981890D01*
X119767370Y-57950827D01*
X119738049Y-57897125D01*
X119737177Y-57897431D01*
X119735321Y-57892128D01*
X119735057Y-57891644D01*
X119734878Y-57890862D01*
X119675333Y-57720692D01*
X119666661Y-57706892D01*
X119666660Y-57706892D01*
X119303553Y-58069998D01*
X119050000Y-58069998D01*
X119050000Y-58050109D01*
X119034776Y-58013355D01*
X119006645Y-57985224D01*
X118969891Y-57970000D01*
X118930109Y-57970000D01*
X118893355Y-57985224D01*
X118865224Y-58013355D01*
X118850000Y-58050109D01*
X118576557Y-58050109D01*
X118250001Y-57723553D01*
X118250000Y-57723553D01*
X117903553Y-58069998D01*
X117650000Y-58069998D01*
X117650000Y-58050109D01*
X117634776Y-58013355D01*
X117606645Y-57985224D01*
X117569891Y-57970000D01*
X117530109Y-57970000D01*
X117493355Y-57985224D01*
X117465224Y-58013355D01*
X117450000Y-58050109D01*
X117176557Y-58050109D01*
X116833338Y-57706891D01*
X116833337Y-57706891D01*
X116824667Y-57720691D01*
X116824662Y-57720701D01*
X116765119Y-57890866D01*
X116764939Y-57891656D01*
X116764682Y-57892113D01*
X116762823Y-57897429D01*
X116761891Y-57897103D01*
X116730824Y-57952631D01*
X116677124Y-57981952D01*
X116677429Y-57982823D01*
X116672145Y-57984671D01*
X116671656Y-57984939D01*
X116670866Y-57985119D01*
X116500701Y-58044662D01*
X116500691Y-58044667D01*
X116486891Y-58053337D01*
X112250499Y-58053337D01*
X112250499Y-57602128D01*
X112244091Y-57542517D01*
X112231340Y-57508332D01*
X112226357Y-57438642D01*
X112231340Y-57421669D01*
X112244091Y-57387483D01*
X112247762Y-57353337D01*
X117186891Y-57353337D01*
X117186891Y-57353338D01*
X117550000Y-57716446D01*
X117550001Y-57716446D01*
X117913107Y-57353338D01*
X117913105Y-57353337D01*
X118586891Y-57353337D01*
X118586891Y-57353338D01*
X118950000Y-57716446D01*
X118950001Y-57716446D01*
X119313107Y-57353338D01*
X119299304Y-57344665D01*
X119129138Y-57285121D01*
X118950003Y-57264938D01*
X118949997Y-57264938D01*
X118770861Y-57285121D01*
X118770858Y-57285122D01*
X118600701Y-57344662D01*
X118600691Y-57344667D01*
X118586891Y-57353337D01*
X117913105Y-57353337D01*
X117899304Y-57344665D01*
X117729138Y-57285121D01*
X117550003Y-57264938D01*
X117549997Y-57264938D01*
X117370861Y-57285121D01*
X117370858Y-57285122D01*
X117200701Y-57344662D01*
X117200691Y-57344667D01*
X117186891Y-57353337D01*
X112247762Y-57353337D01*
X112250500Y-57327873D01*
X112250499Y-56332128D01*
X112244091Y-56272517D01*
X112231340Y-56238332D01*
X112226357Y-56168642D01*
X112231340Y-56151669D01*
X112244091Y-56117483D01*
X112250500Y-56057873D01*
X112250499Y-55062128D01*
X112246804Y-55027753D01*
X112259211Y-54958994D01*
X112306822Y-54907857D01*
X112370094Y-54890500D01*
X123789903Y-54890500D01*
X123856942Y-54910185D01*
X123877584Y-54926819D01*
X124699298Y-55748533D01*
X124732783Y-55809856D01*
X124734837Y-55822330D01*
X124744630Y-55909249D01*
X124804210Y-56079521D01*
X124865960Y-56177795D01*
X124900184Y-56232262D01*
X125027738Y-56359816D01*
X125078397Y-56391647D01*
X125147462Y-56435044D01*
X125180478Y-56455789D01*
X125288696Y-56493656D01*
X125350745Y-56515368D01*
X125350750Y-56515369D01*
X125529996Y-56535565D01*
X125530000Y-56535565D01*
X125530004Y-56535565D01*
X125709249Y-56515369D01*
X125709252Y-56515368D01*
X125709255Y-56515368D01*
X125879522Y-56455789D01*
X126032262Y-56359816D01*
X126159816Y-56232262D01*
X126255789Y-56079522D01*
X126315368Y-55909255D01*
X126315772Y-55905668D01*
X126335565Y-55730003D01*
X126335565Y-55729996D01*
X126315369Y-55550750D01*
X126315368Y-55550745D01*
X126288689Y-55474500D01*
X126255789Y-55380478D01*
X126255061Y-55379320D01*
X126181670Y-55262518D01*
X126159816Y-55227738D01*
X126032262Y-55100184D01*
X126007040Y-55084336D01*
X125879521Y-55004210D01*
X125709249Y-54944630D01*
X125622330Y-54934837D01*
X125557916Y-54907770D01*
X125548533Y-54899298D01*
X124577590Y-53928355D01*
X124577588Y-53928352D01*
X124458717Y-53809481D01*
X124458716Y-53809480D01*
X124371904Y-53759360D01*
X124371904Y-53759359D01*
X124371900Y-53759358D01*
X124321785Y-53730423D01*
X124169057Y-53689499D01*
X124010943Y-53689499D01*
X124003347Y-53689499D01*
X124003331Y-53689500D01*
X113701940Y-53689500D01*
X113634901Y-53669815D01*
X113589146Y-53617011D01*
X113579202Y-53547853D01*
X113608227Y-53484297D01*
X113614259Y-53477819D01*
X113616578Y-53475500D01*
X113689816Y-53402262D01*
X113785789Y-53249522D01*
X113845368Y-53079255D01*
X113853583Y-53006344D01*
X113865565Y-52900003D01*
X113865565Y-52899996D01*
X113845369Y-52720750D01*
X113845368Y-52720745D01*
X113836264Y-52694726D01*
X113785789Y-52550478D01*
X113785174Y-52549500D01*
X113689815Y-52397737D01*
X113562262Y-52270184D01*
X113409523Y-52174211D01*
X113239254Y-52114631D01*
X113239249Y-52114630D01*
X113060004Y-52094435D01*
X113059996Y-52094435D01*
X112880750Y-52114630D01*
X112880737Y-52114633D01*
X112710481Y-52174209D01*
X112710477Y-52174210D01*
X112620904Y-52230494D01*
X112554932Y-52249500D01*
X112195955Y-52249500D01*
X112128916Y-52229815D01*
X112108280Y-52213188D01*
X112107544Y-52212452D01*
X111992335Y-52126206D01*
X111992328Y-52126202D01*
X111857482Y-52075908D01*
X111857483Y-52075908D01*
X111797883Y-52069501D01*
X111797881Y-52069500D01*
X111797873Y-52069500D01*
X111797864Y-52069500D01*
X110202129Y-52069500D01*
X110202123Y-52069501D01*
X110142516Y-52075908D01*
X110083047Y-52098089D01*
X110013355Y-52103073D01*
X109952034Y-52069588D01*
X109286818Y-51404372D01*
X109253333Y-51343049D01*
X109250499Y-51316691D01*
X109250499Y-50924998D01*
X109250498Y-50924981D01*
X109239999Y-50822203D01*
X109239998Y-50822200D01*
X109184814Y-50655666D01*
X109092712Y-50506344D01*
X109058049Y-50471681D01*
X109024564Y-50410358D01*
X109029548Y-50340666D01*
X109071420Y-50284733D01*
X109136884Y-50260316D01*
X109145730Y-50260000D01*
X143750000Y-50260000D01*
X143750000Y-42590342D01*
X143769685Y-42523303D01*
X143822489Y-42477548D01*
X143873955Y-42466342D01*
X161305884Y-42460702D01*
X161372930Y-42480365D01*
G37*
%TD.AperFunction*%
%TA.AperFunction,Conductor*%
G36*
X102762659Y-74478807D02*
G01*
X102799100Y-74516569D01*
X102800888Y-74515231D01*
X102892452Y-74637544D01*
X102892455Y-74637547D01*
X103007664Y-74723793D01*
X103007671Y-74723797D01*
X103019058Y-74728044D01*
X103142517Y-74774091D01*
X103202127Y-74780500D01*
X103475501Y-74780499D01*
X103542539Y-74800183D01*
X103588294Y-74852987D01*
X103599500Y-74904499D01*
X103599500Y-76700903D01*
X103579815Y-76767942D01*
X103527011Y-76813697D01*
X103457853Y-76823641D01*
X103394297Y-76794616D01*
X103387819Y-76788584D01*
X101664833Y-75065598D01*
X101631348Y-75004275D01*
X101636332Y-74934583D01*
X101678204Y-74878650D01*
X101743668Y-74854233D01*
X101768693Y-74854977D01*
X101810639Y-74860500D01*
X102089360Y-74860499D01*
X102089363Y-74860499D01*
X102206753Y-74845046D01*
X102206757Y-74845044D01*
X102206762Y-74845044D01*
X102352841Y-74784536D01*
X102478282Y-74688282D01*
X102574536Y-74562841D01*
X102584826Y-74537996D01*
X102628665Y-74483595D01*
X102694959Y-74461529D01*
X102762659Y-74478807D01*
G37*
%TD.AperFunction*%
%TA.AperFunction,Conductor*%
G36*
X106042539Y-73920185D02*
G01*
X106088294Y-73972989D01*
X106099500Y-74024500D01*
X106099500Y-74323336D01*
X106099501Y-74323355D01*
X106109650Y-74422707D01*
X106109651Y-74422710D01*
X106162996Y-74583694D01*
X106163001Y-74583705D01*
X106252029Y-74728040D01*
X106252032Y-74728044D01*
X106371955Y-74847967D01*
X106371959Y-74847970D01*
X106516294Y-74936998D01*
X106516297Y-74936999D01*
X106516303Y-74937003D01*
X106677292Y-74990349D01*
X106776655Y-75000500D01*
X107623344Y-75000499D01*
X107623352Y-75000498D01*
X107623355Y-75000498D01*
X107677760Y-74994940D01*
X107722708Y-74990349D01*
X107883697Y-74937003D01*
X108028044Y-74847968D01*
X108034193Y-74841819D01*
X108095516Y-74808334D01*
X108121874Y-74805500D01*
X108130611Y-74805500D01*
X108165547Y-74810523D01*
X108223442Y-74827523D01*
X108223446Y-74827524D01*
X108365862Y-74848000D01*
X108420270Y-74848000D01*
X108487309Y-74867685D01*
X108507951Y-74884319D01*
X108596344Y-74972712D01*
X108745666Y-75064814D01*
X108912203Y-75119999D01*
X109014991Y-75130500D01*
X109440500Y-75130499D01*
X109507539Y-75150183D01*
X109553294Y-75202987D01*
X109564500Y-75254499D01*
X109564500Y-75739646D01*
X109544815Y-75806685D01*
X109528181Y-75827327D01*
X108642328Y-76713181D01*
X108581005Y-76746666D01*
X108554647Y-76749500D01*
X108265004Y-76749500D01*
X108197965Y-76729815D01*
X108159465Y-76690596D01*
X108147968Y-76671956D01*
X108028044Y-76552032D01*
X108028040Y-76552029D01*
X107883705Y-76463001D01*
X107883699Y-76462998D01*
X107883697Y-76462997D01*
X107830200Y-76445270D01*
X107722709Y-76409651D01*
X107623352Y-76399500D01*
X106921702Y-76399500D01*
X106854663Y-76379815D01*
X106808908Y-76327011D01*
X106798482Y-76261616D01*
X106815565Y-76110002D01*
X106815565Y-76109996D01*
X106795369Y-75930750D01*
X106795368Y-75930745D01*
X106759180Y-75827327D01*
X106735789Y-75760478D01*
X106722699Y-75739646D01*
X106639815Y-75607737D01*
X106512262Y-75480184D01*
X106359523Y-75384211D01*
X106189254Y-75324631D01*
X106189250Y-75324630D01*
X106010615Y-75304503D01*
X105946201Y-75277436D01*
X105906646Y-75219841D01*
X105900499Y-75181283D01*
X105900499Y-75072129D01*
X105900498Y-75072123D01*
X105899712Y-75064814D01*
X105894091Y-75012517D01*
X105889608Y-75000498D01*
X105843797Y-74877671D01*
X105843793Y-74877664D01*
X105757547Y-74762455D01*
X105755269Y-74760750D01*
X105705902Y-74723793D01*
X105637448Y-74672548D01*
X105595578Y-74616614D01*
X105588540Y-74587167D01*
X105585367Y-74559004D01*
X105525788Y-74388737D01*
X105429815Y-74235997D01*
X105305999Y-74112181D01*
X105272514Y-74050858D01*
X105277498Y-73981166D01*
X105319370Y-73925233D01*
X105384834Y-73900816D01*
X105393680Y-73900500D01*
X105975500Y-73900500D01*
X106042539Y-73920185D01*
G37*
%TD.AperFunction*%
%TA.AperFunction,Conductor*%
G36*
X102920000Y-72141800D02*
G01*
X102900315Y-72208839D01*
X102899104Y-72210687D01*
X102895911Y-72215466D01*
X102895908Y-72215471D01*
X102873539Y-72248946D01*
X102873533Y-72248957D01*
X102824499Y-72367337D01*
X102824497Y-72367343D01*
X102799500Y-72493010D01*
X102799500Y-73553271D01*
X102791681Y-73596606D01*
X102790681Y-73599287D01*
X102748809Y-73655220D01*
X102683344Y-73679636D01*
X102615072Y-73664783D01*
X102565667Y-73615377D01*
X102550500Y-73555952D01*
X102550500Y-72467316D01*
X102550500Y-72467314D01*
X102532051Y-72398462D01*
X102509577Y-72314586D01*
X102452352Y-72215470D01*
X102448427Y-72208671D01*
X102436612Y-72188206D01*
X102420000Y-72126208D01*
X102420000Y-72035000D01*
X102920000Y-72035000D01*
X102920000Y-72141800D01*
G37*
%TD.AperFunction*%
%TA.AperFunction,Conductor*%
G36*
X105635532Y-66785185D02*
G01*
X105681287Y-66837989D01*
X105691231Y-66907147D01*
X105662206Y-66970703D01*
X105656174Y-66977181D01*
X105059968Y-67573385D01*
X105013245Y-67602744D01*
X104980480Y-67614210D01*
X104980475Y-67614212D01*
X104827737Y-67710184D01*
X104700184Y-67837737D01*
X104604211Y-67990476D01*
X104544631Y-68160745D01*
X104544630Y-68160750D01*
X104524435Y-68339996D01*
X104524435Y-68340003D01*
X104544630Y-68519249D01*
X104544631Y-68519254D01*
X104604211Y-68689523D01*
X104684614Y-68817483D01*
X104700184Y-68842262D01*
X104827738Y-68969816D01*
X104878384Y-69001639D01*
X104930623Y-69034463D01*
X104976914Y-69086798D01*
X104987562Y-69155852D01*
X104986268Y-69163649D01*
X104974500Y-69222808D01*
X104974500Y-69328035D01*
X104972117Y-69352227D01*
X104949500Y-69465928D01*
X104949500Y-69594071D01*
X104972117Y-69707769D01*
X104974500Y-69731961D01*
X104974500Y-70061273D01*
X104954815Y-70128312D01*
X104938181Y-70148954D01*
X104005856Y-71081279D01*
X103944533Y-71114764D01*
X103874841Y-71109780D01*
X103830494Y-71081279D01*
X103707466Y-70958251D01*
X103707462Y-70958248D01*
X103543684Y-70848814D01*
X103543671Y-70848807D01*
X103361693Y-70773430D01*
X103361681Y-70773427D01*
X103168495Y-70735000D01*
X102920000Y-70735000D01*
X102920000Y-71435000D01*
X102420000Y-71435000D01*
X102420000Y-70735000D01*
X102171504Y-70735000D01*
X102168691Y-70735560D01*
X102167187Y-70735425D01*
X102165446Y-70735597D01*
X102165413Y-70735266D01*
X102099099Y-70729333D01*
X102043922Y-70686469D01*
X102020678Y-70620580D01*
X102020500Y-70613943D01*
X102020500Y-67470097D01*
X102040185Y-67403058D01*
X102056819Y-67382416D01*
X102637417Y-66801819D01*
X102698740Y-66768334D01*
X102725098Y-66765500D01*
X105568493Y-66765500D01*
X105635532Y-66785185D01*
G37*
%TD.AperFunction*%
%TA.AperFunction,Conductor*%
G36*
X133577667Y-65968006D02*
G01*
X133601855Y-65995921D01*
X133602139Y-65995702D01*
X133606179Y-66000911D01*
X133606732Y-66001548D01*
X133606919Y-66001865D01*
X133606921Y-66001867D01*
X133606923Y-66001870D01*
X133718277Y-66113224D01*
X133751762Y-66174547D01*
X133746778Y-66244239D01*
X133735590Y-66266876D01*
X133664212Y-66380474D01*
X133604631Y-66550745D01*
X133604630Y-66550750D01*
X133584435Y-66729996D01*
X133584435Y-66730003D01*
X133595872Y-66831511D01*
X133583817Y-66900332D01*
X133548141Y-66943768D01*
X133511721Y-66971715D01*
X133511719Y-66971716D01*
X133511718Y-66971718D01*
X133470321Y-67025668D01*
X133415463Y-67097160D01*
X133354956Y-67243237D01*
X133354956Y-67243238D01*
X133352940Y-67258555D01*
X133352939Y-67258559D01*
X133324671Y-67322455D01*
X133266346Y-67360926D01*
X133196482Y-67361756D01*
X133137259Y-67324683D01*
X133107481Y-67261476D01*
X133107060Y-67258555D01*
X133105044Y-67243238D01*
X133044536Y-67097159D01*
X132948282Y-66971718D01*
X132948280Y-66971717D01*
X132948280Y-66971716D01*
X132847565Y-66894435D01*
X132822841Y-66875464D01*
X132822840Y-66875463D01*
X132817074Y-66871039D01*
X132775871Y-66814611D01*
X132771716Y-66744865D01*
X132783623Y-66716198D01*
X132782771Y-66715788D01*
X132785784Y-66709528D01*
X132785789Y-66709522D01*
X132845368Y-66539255D01*
X132858864Y-66419461D01*
X132874697Y-66371349D01*
X132914887Y-66301737D01*
X132965453Y-66253521D01*
X132987666Y-66244664D01*
X133135398Y-66201744D01*
X133276865Y-66118081D01*
X133393081Y-66001865D01*
X133393267Y-66001549D01*
X133393477Y-66001353D01*
X133397861Y-65995702D01*
X133398772Y-65996409D01*
X133444336Y-65953866D01*
X133513077Y-65941362D01*
X133577667Y-65968006D01*
G37*
%TD.AperFunction*%
%TA.AperFunction,Conductor*%
G36*
X107346309Y-50279685D02*
G01*
X107392064Y-50332489D01*
X107402008Y-50401647D01*
X107372983Y-50465203D01*
X107366951Y-50471681D01*
X107332289Y-50506342D01*
X107240187Y-50655663D01*
X107240186Y-50655666D01*
X107185001Y-50822203D01*
X107185001Y-50822204D01*
X107185000Y-50822204D01*
X107174500Y-50924983D01*
X107174500Y-51575001D01*
X107174501Y-51575019D01*
X107185000Y-51677796D01*
X107185001Y-51677799D01*
X107202298Y-51729996D01*
X107240186Y-51844334D01*
X107332288Y-51993656D01*
X107456344Y-52117712D01*
X107605666Y-52209814D01*
X107772203Y-52264999D01*
X107874991Y-52275500D01*
X108266691Y-52275499D01*
X108333730Y-52295183D01*
X108354372Y-52311818D01*
X108454872Y-52412318D01*
X108488357Y-52473641D01*
X108483373Y-52543333D01*
X108454873Y-52587680D01*
X108419019Y-52623534D01*
X108354371Y-52688181D01*
X108293050Y-52721666D01*
X108266691Y-52724500D01*
X107874998Y-52724500D01*
X107874980Y-52724501D01*
X107772203Y-52735000D01*
X107772200Y-52735001D01*
X107605668Y-52790185D01*
X107605663Y-52790187D01*
X107456342Y-52882289D01*
X107332289Y-53006342D01*
X107240187Y-53155663D01*
X107240186Y-53155666D01*
X107185001Y-53322203D01*
X107185001Y-53322204D01*
X107185000Y-53322204D01*
X107174500Y-53424983D01*
X107174500Y-54075001D01*
X107174501Y-54075019D01*
X107185000Y-54177796D01*
X107185001Y-54177799D01*
X107234429Y-54326962D01*
X107236831Y-54396791D01*
X107212474Y-54444755D01*
X107136853Y-54536655D01*
X107136852Y-54536656D01*
X107136852Y-54536657D01*
X107085088Y-54658100D01*
X107080436Y-54669013D01*
X107080434Y-54669019D01*
X107062965Y-54734651D01*
X107062549Y-54736117D01*
X107062461Y-54736544D01*
X107045622Y-54879435D01*
X107047460Y-54951524D01*
X107068749Y-55084336D01*
X107074533Y-55103553D01*
X107087602Y-55146967D01*
X107091548Y-55155666D01*
X107143164Y-55269465D01*
X107204767Y-55342297D01*
X107233031Y-55406194D01*
X107224653Y-55469824D01*
X107214958Y-55493231D01*
X107214955Y-55493239D01*
X107199500Y-55610638D01*
X107199500Y-55889363D01*
X107214953Y-56006753D01*
X107214956Y-56006762D01*
X107274978Y-56151669D01*
X107275464Y-56152841D01*
X107371718Y-56278282D01*
X107497159Y-56374536D01*
X107497163Y-56374539D01*
X107504196Y-56378599D01*
X107503259Y-56380221D01*
X107549597Y-56417566D01*
X107571659Y-56483861D01*
X107554377Y-56551560D01*
X107553277Y-56553378D01*
X107490189Y-56655659D01*
X107490185Y-56655668D01*
X107472244Y-56709812D01*
X107435001Y-56822203D01*
X107435001Y-56822204D01*
X107435000Y-56822204D01*
X107424500Y-56924983D01*
X107424500Y-57575001D01*
X107424501Y-57575019D01*
X107435000Y-57677796D01*
X107435001Y-57677799D01*
X107490185Y-57844331D01*
X107490187Y-57844336D01*
X107518887Y-57890866D01*
X107582288Y-57993656D01*
X107706344Y-58117712D01*
X107855666Y-58209814D01*
X108022203Y-58264999D01*
X108124991Y-58275500D01*
X108750082Y-58275499D01*
X108817121Y-58295183D01*
X108862876Y-58347987D01*
X108865648Y-58354550D01*
X108880189Y-58391938D01*
X108880191Y-58391940D01*
X108902346Y-58420692D01*
X108968010Y-58505908D01*
X108968016Y-58505913D01*
X108968018Y-58505916D01*
X109018098Y-58554620D01*
X109018101Y-58554623D01*
X109052749Y-58579815D01*
X109134468Y-58639232D01*
X109269964Y-58687632D01*
X109269967Y-58687632D01*
X109269968Y-58687633D01*
X109289836Y-58691666D01*
X109338437Y-58701532D01*
X109338447Y-58701532D01*
X109338450Y-58701533D01*
X109482067Y-58709797D01*
X109482069Y-58709796D01*
X109482078Y-58709797D01*
X109619656Y-58698030D01*
X109688126Y-58711930D01*
X109738214Y-58760643D01*
X109754015Y-58828702D01*
X109753511Y-58834820D01*
X109749500Y-58872127D01*
X109749500Y-58872128D01*
X109749500Y-58872132D01*
X109749500Y-59867870D01*
X109749501Y-59867871D01*
X109755908Y-59927481D01*
X109768659Y-59961669D01*
X109773642Y-60031361D01*
X109768659Y-60048331D01*
X109755908Y-60082518D01*
X109752593Y-60113355D01*
X109749501Y-60142123D01*
X109749500Y-60142135D01*
X109749500Y-61137870D01*
X109749501Y-61137876D01*
X109755908Y-61197481D01*
X109768659Y-61231669D01*
X109773642Y-61301361D01*
X109768659Y-61318331D01*
X109755908Y-61352518D01*
X109750181Y-61405789D01*
X109749501Y-61412123D01*
X109749500Y-61412135D01*
X109749500Y-62212663D01*
X109729815Y-62279702D01*
X109677011Y-62325457D01*
X109611618Y-62335883D01*
X109510005Y-62324435D01*
X109509996Y-62324435D01*
X109330750Y-62344630D01*
X109330745Y-62344631D01*
X109160476Y-62404211D01*
X109007737Y-62500184D01*
X108880184Y-62627737D01*
X108784211Y-62780476D01*
X108724631Y-62950745D01*
X108724630Y-62950750D01*
X108704435Y-63129996D01*
X108704435Y-63130003D01*
X108724630Y-63309249D01*
X108724631Y-63309254D01*
X108784211Y-63479523D01*
X108880184Y-63632262D01*
X108880241Y-63632319D01*
X108880265Y-63632364D01*
X108884525Y-63637705D01*
X108883589Y-63638451D01*
X108913726Y-63693642D01*
X108908742Y-63763334D01*
X108880241Y-63807681D01*
X108820184Y-63867737D01*
X108724211Y-64020476D01*
X108664631Y-64190745D01*
X108664630Y-64190750D01*
X108644435Y-64369996D01*
X108644435Y-64370004D01*
X108657600Y-64486855D01*
X108645545Y-64555677D01*
X108598196Y-64607056D01*
X108530585Y-64624680D01*
X108464180Y-64602953D01*
X108427650Y-64563861D01*
X108368081Y-64463135D01*
X108368076Y-64463129D01*
X108251870Y-64346923D01*
X108251862Y-64346917D01*
X108133039Y-64276646D01*
X108110398Y-64263256D01*
X108110397Y-64263255D01*
X108110396Y-64263255D01*
X108110393Y-64263254D01*
X107952573Y-64217402D01*
X107952567Y-64217401D01*
X107920995Y-64214917D01*
X107855707Y-64190033D01*
X107814236Y-64133802D01*
X107809749Y-64064076D01*
X107843671Y-64002994D01*
X107868640Y-63984615D01*
X107868613Y-63984574D01*
X107869516Y-63983970D01*
X107872283Y-63981934D01*
X107873686Y-63981184D01*
X108037462Y-63871751D01*
X108037466Y-63871748D01*
X108176748Y-63732466D01*
X108176751Y-63732462D01*
X108286185Y-63568684D01*
X108286192Y-63568671D01*
X108361569Y-63386692D01*
X108361569Y-63386690D01*
X108369862Y-63345000D01*
X107566988Y-63345000D01*
X107584205Y-63335060D01*
X107640060Y-63279205D01*
X107679556Y-63210796D01*
X107700000Y-63134496D01*
X107700000Y-63055504D01*
X107679556Y-62979204D01*
X107640060Y-62910795D01*
X107584205Y-62854940D01*
X107566988Y-62845000D01*
X108369862Y-62845000D01*
X108361569Y-62803309D01*
X108361569Y-62803307D01*
X108286192Y-62621328D01*
X108286185Y-62621315D01*
X108176751Y-62457537D01*
X108176748Y-62457533D01*
X108037466Y-62318251D01*
X108037462Y-62318248D01*
X107873684Y-62208814D01*
X107873671Y-62208807D01*
X107691693Y-62133430D01*
X107691681Y-62133427D01*
X107498495Y-62095000D01*
X107100000Y-62095000D01*
X107100000Y-62795000D01*
X106600000Y-62795000D01*
X106600000Y-62095000D01*
X106201504Y-62095000D01*
X106008318Y-62133427D01*
X106008306Y-62133430D01*
X105826328Y-62208807D01*
X105826315Y-62208814D01*
X105662537Y-62318248D01*
X105662533Y-62318251D01*
X105523251Y-62457533D01*
X105523248Y-62457537D01*
X105413814Y-62621315D01*
X105413807Y-62621328D01*
X105338430Y-62803307D01*
X105338430Y-62803309D01*
X105330138Y-62845000D01*
X106133012Y-62845000D01*
X106115795Y-62854940D01*
X106059940Y-62910795D01*
X106020444Y-62979204D01*
X106000000Y-63055504D01*
X106000000Y-63134496D01*
X106020444Y-63210796D01*
X106059940Y-63279205D01*
X106115795Y-63335060D01*
X106133012Y-63345000D01*
X105330138Y-63345000D01*
X105338430Y-63386690D01*
X105338430Y-63386692D01*
X105413807Y-63568671D01*
X105413814Y-63568684D01*
X105523248Y-63732462D01*
X105523251Y-63732466D01*
X105662533Y-63871748D01*
X105662537Y-63871751D01*
X105826315Y-63981185D01*
X105826328Y-63981192D01*
X105835838Y-63985131D01*
X105890243Y-64028970D01*
X105912310Y-64095264D01*
X105895033Y-64162963D01*
X105891350Y-64168405D01*
X105813719Y-64302863D01*
X105794266Y-64375464D01*
X105774500Y-64449234D01*
X105774500Y-64600766D01*
X105777156Y-64610677D01*
X105813719Y-64747136D01*
X105833804Y-64781923D01*
X105889485Y-64878365D01*
X105889487Y-64878367D01*
X105925761Y-64914641D01*
X105959246Y-64975964D01*
X105954262Y-65045656D01*
X105925762Y-65090002D01*
X105887585Y-65128180D01*
X105826263Y-65161666D01*
X105799903Y-65164500D01*
X102180253Y-65164500D01*
X102151507Y-65172202D01*
X102151508Y-65172203D01*
X102027528Y-65205423D01*
X102027523Y-65205426D01*
X101890604Y-65284475D01*
X101890596Y-65284481D01*
X100842181Y-66332897D01*
X100780858Y-66366382D01*
X100711166Y-66361398D01*
X100655233Y-66319526D01*
X100630816Y-66254062D01*
X100630500Y-66245216D01*
X100630500Y-62845000D01*
X101300138Y-62845000D01*
X102103012Y-62845000D01*
X102085795Y-62854940D01*
X102029940Y-62910795D01*
X101990444Y-62979204D01*
X101970000Y-63055504D01*
X101970000Y-63134496D01*
X101990444Y-63210796D01*
X102029940Y-63279205D01*
X102085795Y-63335060D01*
X102103012Y-63345000D01*
X101300138Y-63345000D01*
X101308430Y-63386690D01*
X101308430Y-63386692D01*
X101383807Y-63568671D01*
X101383814Y-63568684D01*
X101493248Y-63732462D01*
X101493251Y-63732466D01*
X101632533Y-63871748D01*
X101632537Y-63871751D01*
X101796315Y-63981185D01*
X101796328Y-63981192D01*
X101978306Y-64056569D01*
X101978318Y-64056572D01*
X102171504Y-64094999D01*
X102171508Y-64095000D01*
X102420000Y-64095000D01*
X102420000Y-63395000D01*
X102920000Y-63395000D01*
X102920000Y-64095000D01*
X103168492Y-64095000D01*
X103168495Y-64094999D01*
X103361681Y-64056572D01*
X103361693Y-64056569D01*
X103543671Y-63981192D01*
X103543684Y-63981185D01*
X103707462Y-63871751D01*
X103707466Y-63871748D01*
X103846748Y-63732466D01*
X103846751Y-63732462D01*
X103956185Y-63568684D01*
X103956192Y-63568671D01*
X104031569Y-63386692D01*
X104031569Y-63386690D01*
X104039862Y-63345000D01*
X103236988Y-63345000D01*
X103254205Y-63335060D01*
X103310060Y-63279205D01*
X103349556Y-63210796D01*
X103370000Y-63134496D01*
X103370000Y-63055504D01*
X103349556Y-62979204D01*
X103310060Y-62910795D01*
X103254205Y-62854940D01*
X103236988Y-62845000D01*
X104039862Y-62845000D01*
X104031569Y-62803309D01*
X104031569Y-62803307D01*
X103956192Y-62621328D01*
X103956185Y-62621315D01*
X103846751Y-62457537D01*
X103846748Y-62457533D01*
X103707466Y-62318251D01*
X103707462Y-62318248D01*
X103543684Y-62208814D01*
X103543671Y-62208807D01*
X103361693Y-62133430D01*
X103361681Y-62133427D01*
X103168495Y-62095000D01*
X102920000Y-62095000D01*
X102920000Y-62795000D01*
X102420000Y-62795000D01*
X102420000Y-62095000D01*
X102171504Y-62095000D01*
X101978318Y-62133427D01*
X101978306Y-62133430D01*
X101796328Y-62208807D01*
X101796315Y-62208814D01*
X101632537Y-62318248D01*
X101632533Y-62318251D01*
X101493251Y-62457533D01*
X101493248Y-62457537D01*
X101383814Y-62621315D01*
X101383807Y-62621328D01*
X101308430Y-62803307D01*
X101308430Y-62803309D01*
X101300138Y-62845000D01*
X100630500Y-62845000D01*
X100630500Y-50384000D01*
X100650185Y-50316961D01*
X100702989Y-50271206D01*
X100754500Y-50260000D01*
X107279270Y-50260000D01*
X107346309Y-50279685D01*
G37*
%TD.AperFunction*%
%TA.AperFunction,Conductor*%
G36*
X153384314Y-53870185D02*
G01*
X153430069Y-53922989D01*
X153440013Y-53992147D01*
X153427906Y-54028750D01*
X153428328Y-54028935D01*
X153426364Y-54033410D01*
X153426329Y-54033519D01*
X153426267Y-54033633D01*
X153326412Y-54261282D01*
X153265387Y-54502261D01*
X153265385Y-54502270D01*
X153244859Y-54749994D01*
X153244859Y-54750005D01*
X153265385Y-54997729D01*
X153265387Y-54997738D01*
X153326412Y-55238717D01*
X153426266Y-55466364D01*
X153526564Y-55619882D01*
X154226212Y-54920233D01*
X154237482Y-54962292D01*
X154309890Y-55087708D01*
X154412292Y-55190110D01*
X154537708Y-55262518D01*
X154579765Y-55273787D01*
X153879942Y-55973609D01*
X153926768Y-56010055D01*
X153926770Y-56010056D01*
X154145385Y-56128364D01*
X154145396Y-56128369D01*
X154380506Y-56209083D01*
X154625707Y-56250000D01*
X154874293Y-56250000D01*
X155119493Y-56209083D01*
X155354603Y-56128369D01*
X155354614Y-56128364D01*
X155573228Y-56010057D01*
X155573231Y-56010055D01*
X155620056Y-55973609D01*
X154920234Y-55273787D01*
X154962292Y-55262518D01*
X155087708Y-55190110D01*
X155190110Y-55087708D01*
X155262518Y-54962292D01*
X155273787Y-54920235D01*
X155973434Y-55619882D01*
X156073732Y-55466367D01*
X156091944Y-55424849D01*
X156136899Y-55371363D01*
X156203635Y-55350672D01*
X156270963Y-55369346D01*
X156317507Y-55421456D01*
X156329500Y-55474658D01*
X156329500Y-55955626D01*
X156323206Y-55994629D01*
X156297502Y-56072198D01*
X156297500Y-56072209D01*
X156287000Y-56174983D01*
X156287000Y-56741691D01*
X156267315Y-56808730D01*
X156250681Y-56829372D01*
X155300909Y-57779143D01*
X155239586Y-57812628D01*
X155172967Y-57808744D01*
X155119613Y-57790428D01*
X154874335Y-57749500D01*
X154625665Y-57749500D01*
X154380383Y-57790429D01*
X154145197Y-57871169D01*
X154145188Y-57871172D01*
X153926493Y-57989524D01*
X153730257Y-58142261D01*
X153561833Y-58325217D01*
X153425826Y-58533393D01*
X153425214Y-58534525D01*
X153424842Y-58534898D01*
X153423022Y-58537686D01*
X153422448Y-58537311D01*
X153375991Y-58584112D01*
X153316163Y-58599500D01*
X149683837Y-58599500D01*
X149616798Y-58579815D01*
X149577438Y-58537384D01*
X149576978Y-58537686D01*
X149575214Y-58534987D01*
X149574786Y-58534525D01*
X149574173Y-58533393D01*
X149438166Y-58325217D01*
X149392397Y-58275499D01*
X149269744Y-58142262D01*
X149073509Y-57989526D01*
X149073507Y-57989525D01*
X149073506Y-57989524D01*
X148861411Y-57874744D01*
X148811821Y-57825524D01*
X148796713Y-57757308D01*
X148820883Y-57691752D01*
X148832741Y-57678015D01*
X152623938Y-53886819D01*
X152685261Y-53853334D01*
X152711619Y-53850500D01*
X153317275Y-53850500D01*
X153384314Y-53870185D01*
G37*
%TD.AperFunction*%
%TD*%
M02*
