%TF.GenerationSoftware,KiCad,Pcbnew,8.0.5*%
%TF.CreationDate,2024-11-06T17:44:16-08:00*%
%TF.ProjectId,PCB Board and Schematic,50434220-426f-4617-9264-20616e642053,rev?*%
%TF.SameCoordinates,Original*%
%TF.FileFunction,Soldermask,Top*%
%TF.FilePolarity,Negative*%
%FSLAX46Y46*%
G04 Gerber Fmt 4.6, Leading zero omitted, Abs format (unit mm)*
G04 Created by KiCad (PCBNEW 8.0.5) date 2024-11-06 17:44:16*
%MOMM*%
%LPD*%
G01*
G04 APERTURE LIST*
G04 Aperture macros list*
%AMRoundRect*
0 Rectangle with rounded corners*
0 $1 Rounding radius*
0 $2 $3 $4 $5 $6 $7 $8 $9 X,Y pos of 4 corners*
0 Add a 4 corners polygon primitive as box body*
4,1,4,$2,$3,$4,$5,$6,$7,$8,$9,$2,$3,0*
0 Add four circle primitives for the rounded corners*
1,1,$1+$1,$2,$3*
1,1,$1+$1,$4,$5*
1,1,$1+$1,$6,$7*
1,1,$1+$1,$8,$9*
0 Add four rect primitives between the rounded corners*
20,1,$1+$1,$2,$3,$4,$5,0*
20,1,$1+$1,$4,$5,$6,$7,0*
20,1,$1+$1,$6,$7,$8,$9,0*
20,1,$1+$1,$8,$9,$2,$3,0*%
G04 Aperture macros list end*
%ADD10RoundRect,0.250000X0.287500X0.275000X-0.287500X0.275000X-0.287500X-0.275000X0.287500X-0.275000X0*%
%ADD11RoundRect,0.250000X-0.287500X-0.275000X0.287500X-0.275000X0.287500X0.275000X-0.287500X0.275000X0*%
%ADD12RoundRect,0.102000X-0.200000X0.240000X-0.200000X-0.240000X0.200000X-0.240000X0.200000X0.240000X0*%
%ADD13RoundRect,0.100000X0.130000X0.100000X-0.130000X0.100000X-0.130000X-0.100000X0.130000X-0.100000X0*%
%ADD14R,3.000000X3.000000*%
%ADD15C,3.000000*%
%ADD16C,2.000000*%
%ADD17RoundRect,0.225000X-0.375000X0.225000X-0.375000X-0.225000X0.375000X-0.225000X0.375000X0.225000X0*%
%ADD18RoundRect,0.100000X-0.130000X-0.100000X0.130000X-0.100000X0.130000X0.100000X-0.130000X0.100000X0*%
%ADD19R,1.700000X1.700000*%
%ADD20RoundRect,0.150000X0.512500X0.150000X-0.512500X0.150000X-0.512500X-0.150000X0.512500X-0.150000X0*%
%ADD21RoundRect,0.100000X-0.100000X0.130000X-0.100000X-0.130000X0.100000X-0.130000X0.100000X0.130000X0*%
%ADD22RoundRect,0.375000X0.625000X0.375000X-0.625000X0.375000X-0.625000X-0.375000X0.625000X-0.375000X0*%
%ADD23RoundRect,0.500000X0.500000X1.400000X-0.500000X1.400000X-0.500000X-1.400000X0.500000X-1.400000X0*%
%ADD24RoundRect,0.250000X0.275000X-0.287500X0.275000X0.287500X-0.275000X0.287500X-0.275000X-0.287500X0*%
%ADD25C,0.650000*%
%ADD26RoundRect,0.150000X-0.425000X0.150000X-0.425000X-0.150000X0.425000X-0.150000X0.425000X0.150000X0*%
%ADD27RoundRect,0.075000X-0.500000X0.075000X-0.500000X-0.075000X0.500000X-0.075000X0.500000X0.075000X0*%
%ADD28O,2.100000X1.000000*%
%ADD29O,1.800000X1.000000*%
%ADD30R,1.500000X0.900000*%
%ADD31R,0.900000X1.500000*%
%ADD32C,0.600000*%
%ADD33R,3.900000X3.900000*%
%ADD34RoundRect,0.102000X0.200000X-0.240000X0.200000X0.240000X-0.200000X0.240000X-0.200000X-0.240000X0*%
G04 APERTURE END LIST*
D10*
%TO.C,C2*%
X108212500Y-53750000D03*
X106787500Y-53750000D03*
%TD*%
D11*
%TO.C,C9*%
X157325000Y-56500000D03*
X158750000Y-56500000D03*
%TD*%
D12*
%TO.C,D2*%
X105200000Y-74040000D03*
X105200000Y-75360000D03*
%TD*%
D13*
%TO.C,R3*%
X143390000Y-54250000D03*
X142750000Y-54250000D03*
%TD*%
D14*
%TO.C,J4*%
X136007500Y-78132500D03*
D15*
X131007500Y-78132500D03*
X126007500Y-78132500D03*
X121007500Y-78132500D03*
X116007500Y-78132500D03*
%TD*%
D16*
%TO.C,SW1*%
X133500000Y-55000000D03*
X140000000Y-55000000D03*
X133500000Y-59500000D03*
X140000000Y-59500000D03*
%TD*%
D11*
%TO.C,C8*%
X143250000Y-55750000D03*
X144675000Y-55750000D03*
%TD*%
D17*
%TO.C,D4*%
X107200000Y-74050000D03*
X107200000Y-77350000D03*
%TD*%
D18*
%TO.C,R8*%
X131680000Y-68750000D03*
X132320000Y-68750000D03*
%TD*%
D11*
%TO.C,C4*%
X150950000Y-69370000D03*
X152375000Y-69370000D03*
%TD*%
D18*
%TO.C,C11*%
X133430000Y-67500000D03*
X134070000Y-67500000D03*
%TD*%
D19*
%TO.C,J2*%
X158125000Y-65000000D03*
%TD*%
D13*
%TO.C,D1*%
X153020000Y-71100000D03*
X152380000Y-71100000D03*
%TD*%
D18*
%TO.C,R1*%
X107930000Y-55750000D03*
X108570000Y-55750000D03*
%TD*%
D20*
%TO.C,U3*%
X134637500Y-65450000D03*
X134637500Y-64500000D03*
X134637500Y-63550000D03*
X132362500Y-63550000D03*
X132362500Y-65450000D03*
%TD*%
D12*
%TO.C,D9*%
X103700000Y-76630000D03*
X103700000Y-77950000D03*
%TD*%
D21*
%TO.C,R5*%
X101950000Y-74130000D03*
X101950000Y-74770000D03*
%TD*%
D18*
%TO.C,C13*%
X137275000Y-65000000D03*
X137915000Y-65000000D03*
%TD*%
D22*
%TO.C,U2*%
X148250000Y-70100000D03*
X148250000Y-67800000D03*
D23*
X141950000Y-67800000D03*
D22*
X148250000Y-65500000D03*
%TD*%
D24*
%TO.C,C10*%
X109340000Y-75517500D03*
X109340000Y-74092500D03*
%TD*%
D18*
%TO.C,C12*%
X137275000Y-63250000D03*
X137915000Y-63250000D03*
%TD*%
D16*
%TO.C,SW3*%
X148250000Y-54750000D03*
X154750000Y-54750000D03*
X148250000Y-59250000D03*
X154750000Y-59250000D03*
%TD*%
D11*
%TO.C,C6*%
X150737500Y-65600000D03*
X152162500Y-65600000D03*
%TD*%
D18*
%TO.C,D5*%
X131750000Y-67500000D03*
X132390000Y-67500000D03*
%TD*%
D19*
%TO.C,J3*%
X158125000Y-61000000D03*
%TD*%
D10*
%TO.C,C3*%
X108212500Y-51250000D03*
X106787500Y-51250000D03*
%TD*%
D21*
%TO.C,R6*%
X105200000Y-76880000D03*
X105200000Y-77520000D03*
%TD*%
D18*
%TO.C,R7*%
X133500000Y-68750000D03*
X134140000Y-68750000D03*
%TD*%
D25*
%TO.C,J1*%
X106350000Y-64525000D03*
X106350000Y-70305000D03*
D26*
X107425000Y-64215000D03*
X107425000Y-65015000D03*
D27*
X107425000Y-66165000D03*
X107425000Y-67165000D03*
X107425000Y-67665000D03*
X107425000Y-68665000D03*
D26*
X107425000Y-69815000D03*
X107425000Y-70615000D03*
X107425000Y-70615000D03*
X107425000Y-69815000D03*
D27*
X107425000Y-69165000D03*
X107425000Y-68165000D03*
X107425000Y-66665000D03*
X107425000Y-65665000D03*
D26*
X107425000Y-65015000D03*
X107425000Y-64215000D03*
D28*
X106850000Y-63095000D03*
D29*
X102670000Y-63095000D03*
D28*
X106850000Y-71735000D03*
D29*
X102670000Y-71735000D03*
%TD*%
D30*
%TO.C,U1*%
X111000000Y-51750000D03*
X111000000Y-53020000D03*
X111000000Y-54290000D03*
X111000000Y-55560000D03*
X111000000Y-56830000D03*
X111000000Y-58100000D03*
X111000000Y-59370000D03*
X111000000Y-60640000D03*
X111000000Y-61910000D03*
X111000000Y-63180000D03*
X111000000Y-64450000D03*
X111000000Y-65720000D03*
X111000000Y-66990000D03*
X111000000Y-68260000D03*
D31*
X112765000Y-69510000D03*
X114035000Y-69510000D03*
X115305000Y-69510000D03*
X116575000Y-69510000D03*
X117845000Y-69510000D03*
X119115000Y-69510000D03*
X120385000Y-69510000D03*
X121655000Y-69510000D03*
X122925000Y-69510000D03*
X124195000Y-69510000D03*
X125465000Y-69510000D03*
X126735000Y-69510000D03*
D30*
X128500000Y-68260000D03*
X128500000Y-66990000D03*
X128500000Y-65720000D03*
X128500000Y-64450000D03*
X128500000Y-63180000D03*
X128500000Y-61910000D03*
X128500000Y-60640000D03*
X128500000Y-59370000D03*
X128500000Y-58100000D03*
X128500000Y-56830000D03*
X128500000Y-55560000D03*
X128500000Y-54290000D03*
X128500000Y-53020000D03*
X128500000Y-51750000D03*
D32*
X116850000Y-58770000D03*
X116850000Y-60170000D03*
X117550000Y-58070000D03*
X117550000Y-59470000D03*
X117550000Y-60870000D03*
X118250000Y-58770000D03*
D33*
X118250000Y-59470000D03*
D32*
X118250000Y-60170000D03*
X118950000Y-58070000D03*
X118950000Y-59470000D03*
X118950000Y-60870000D03*
X119650000Y-58770000D03*
X119650000Y-60170000D03*
%TD*%
D34*
%TO.C,D3*%
X103450000Y-75360000D03*
X103450000Y-74040000D03*
%TD*%
D11*
%TO.C,C1*%
X107037500Y-57250000D03*
X108462500Y-57250000D03*
%TD*%
%TO.C,C5*%
X151025000Y-67620000D03*
X152450000Y-67620000D03*
%TD*%
D13*
%TO.C,R4*%
X157570000Y-53750000D03*
X156930000Y-53750000D03*
%TD*%
D18*
%TO.C,R2*%
X150630000Y-71100000D03*
X151270000Y-71100000D03*
%TD*%
D11*
%TO.C,C7*%
X150987500Y-63600000D03*
X152412500Y-63600000D03*
%TD*%
M02*
